<?xml version="1.0" encoding="UTF-8" standalone="no"?>
<!DOCTYPE svg PUBLIC "-//W3C//DTD SVG 1.1//EN"
 "http://www.w3.org/Graphics/SVG/1.1/DTD/svg11.dtd">
<!-- Generated by graphviz version 11.0.0 (20240519.1550)
 -->
<!-- Title: snakemake_dag Pages: 1 -->
<svg width="1942pt" height="476pt"
 viewBox="0.00 0.00 1941.88 476.00" xmlns="http://www.w3.org/2000/svg" xmlns:xlink="http://www.w3.org/1999/xlink">
<g id="graph0" class="graph" transform="scale(1 1) rotate(0) translate(4 472)">
<title>snakemake_dag</title>
<polygon fill="white" stroke="none" points="-4,4 -4,-472 1937.88,-472 1937.88,4 -4,4"/>
<!-- 0 -->
<g id="node1" class="node">
<title>0</title>
<path fill="none" stroke="#567bd8" stroke-width="2" d="M1100.12,-36C1100.12,-36 1070.12,-36 1070.12,-36 1064.12,-36 1058.12,-30 1058.12,-24 1058.12,-24 1058.12,-12 1058.12,-12 1058.12,-6 1064.12,0 1070.12,0 1070.12,0 1100.12,0 1100.12,0 1106.12,0 1112.12,-6 1112.12,-12 1112.12,-12 1112.12,-24 1112.12,-24 1112.12,-30 1106.12,-36 1100.12,-36"/>
<text text-anchor="middle" x="1085.12" y="-14.88" font-family="sans" font-size="10.00">all</text>
</g>
<!-- 1 -->
<g id="node2" class="node">
<title>1</title>
<path fill="none" stroke="#d85656" stroke-width="2" d="M1813.88,-180C1813.88,-180 1748.38,-180 1748.38,-180 1742.38,-180 1736.38,-174 1736.38,-168 1736.38,-168 1736.38,-156 1736.38,-156 1736.38,-150 1742.38,-144 1748.38,-144 1748.38,-144 1813.88,-144 1813.88,-144 1819.88,-144 1825.88,-150 1825.88,-156 1825.88,-156 1825.88,-168 1825.88,-168 1825.88,-174 1819.88,-180 1813.88,-180"/>
<text text-anchor="middle" x="1781.12" y="-158.88" font-family="sans" font-size="10.00">create_bigwigs</text>
</g>
<!-- 1&#45;&gt;0 -->
<g id="edge1" class="edge">
<title>1&#45;&gt;0</title>
<path fill="none" stroke="grey" stroke-width="2" d="M1735.55,-146.33C1732.7,-145.51 1729.88,-144.73 1727.12,-144 1502.86,-84.52 1227.61,-40.36 1125.63,-24.95"/>
<polygon fill="grey" stroke="grey" stroke-width="2" points="1126.36,-21.52 1115.95,-23.5 1125.32,-28.45 1126.36,-21.52"/>
</g>
<!-- 11 -->
<g id="node12" class="node">
<title>11</title>
<path fill="none" stroke="#d87d56" stroke-width="2" d="M1840.5,-108C1840.5,-108 1721.75,-108 1721.75,-108 1715.75,-108 1709.75,-102 1709.75,-96 1709.75,-96 1709.75,-84 1709.75,-84 1709.75,-78 1715.75,-72 1721.75,-72 1721.75,-72 1840.5,-72 1840.5,-72 1846.5,-72 1852.5,-78 1852.5,-84 1852.5,-84 1852.5,-96 1852.5,-96 1852.5,-102 1846.5,-108 1840.5,-108"/>
<text text-anchor="middle" x="1781.12" y="-93.25" font-family="sans" font-size="10.00">merge_replicates</text>
<text text-anchor="middle" x="1781.12" y="-80.5" font-family="sans" font-size="10.00">experiment: PROseq_data</text>
</g>
<!-- 1&#45;&gt;11 -->
<g id="edge25" class="edge">
<title>1&#45;&gt;11</title>
<path fill="none" stroke="grey" stroke-width="2" d="M1781.12,-143.34C1781.12,-136.75 1781.12,-129.08 1781.12,-121.67"/>
<polygon fill="grey" stroke="grey" stroke-width="2" points="1784.63,-121.93 1781.13,-111.93 1777.63,-121.93 1784.63,-121.93"/>
</g>
<!-- 2 -->
<g id="node3" class="node">
<title>2</title>
<path fill="none" stroke="#56c9d8" stroke-width="2" d="M330.62,-252C330.62,-252 293.62,-252 293.62,-252 287.62,-252 281.62,-246 281.62,-240 281.62,-240 281.62,-228 281.62,-228 281.62,-222 287.62,-216 293.62,-216 293.62,-216 330.62,-216 330.62,-216 336.62,-216 342.62,-222 342.62,-228 342.62,-228 342.62,-240 342.62,-240 342.62,-246 336.62,-252 330.62,-252"/>
<text text-anchor="middle" x="312.12" y="-230.88" font-family="sans" font-size="10.00">sort_sam</text>
</g>
<!-- 2&#45;&gt;1 -->
<g id="edge17" class="edge">
<title>2&#45;&gt;1</title>
<path fill="none" stroke="grey" stroke-width="2" d="M343.43,-232.96C522.79,-232.58 1422.11,-228.37 1723.08,-180.35"/>
<polygon fill="grey" stroke="grey" stroke-width="2" points="1723.4,-183.84 1732.69,-178.75 1722.25,-176.94 1723.4,-183.84"/>
</g>
<!-- 12 -->
<g id="node13" class="node">
<title>12</title>
<path fill="none" stroke="#56a2d8" stroke-width="2" d="M207.75,-180C207.75,-180 126.5,-180 126.5,-180 120.5,-180 114.5,-174 114.5,-168 114.5,-168 114.5,-156 114.5,-156 114.5,-150 120.5,-144 126.5,-144 126.5,-144 207.75,-144 207.75,-144 213.75,-144 219.75,-150 219.75,-156 219.75,-156 219.75,-168 219.75,-168 219.75,-174 213.75,-180 207.75,-180"/>
<text text-anchor="middle" x="167.12" y="-158.88" font-family="sans" font-size="10.00">bam_qc_qualimap</text>
</g>
<!-- 2&#45;&gt;12 -->
<g id="edge27" class="edge">
<title>2&#45;&gt;12</title>
<path fill="none" stroke="grey" stroke-width="2" d="M280.66,-217.81C261.69,-208.65 237.12,-196.79 215.69,-186.45"/>
<polygon fill="grey" stroke="grey" stroke-width="2" points="217.42,-183.39 206.9,-182.2 214.38,-189.7 217.42,-183.39"/>
</g>
<!-- 18 -->
<g id="node19" class="node">
<title>18</title>
<path fill="none" stroke="#c6d856" stroke-width="2" d="M84.25,-180C84.25,-180 12,-180 12,-180 6,-180 0,-174 0,-168 0,-168 0,-156 0,-156 0,-150 6,-144 12,-144 12,-144 84.25,-144 84.25,-144 90.25,-144 96.25,-150 96.25,-156 96.25,-156 96.25,-168 96.25,-168 96.25,-174 90.25,-180 84.25,-180"/>
<text text-anchor="middle" x="48.12" y="-158.88" font-family="sans" font-size="10.00">bam_qc_flagstat</text>
</g>
<!-- 2&#45;&gt;18 -->
<g id="edge29" class="edge">
<title>2&#45;&gt;18</title>
<path fill="none" stroke="grey" stroke-width="2" d="M280.81,-225.39C242.56,-216 175.6,-199.29 109.53,-181.17"/>
<polygon fill="grey" stroke="grey" stroke-width="2" points="110.7,-177.86 100.13,-178.58 108.84,-184.61 110.7,-177.86"/>
</g>
<!-- 20 -->
<g id="node21" class="node">
<title>20</title>
<path fill="none" stroke="#d8a456" stroke-width="2" d="M374.88,-180C374.88,-180 249.38,-180 249.38,-180 243.38,-180 237.38,-174 237.38,-168 237.38,-168 237.38,-156 237.38,-156 237.38,-150 243.38,-144 249.38,-144 249.38,-144 374.88,-144 374.88,-144 380.88,-144 386.88,-150 386.88,-156 386.88,-156 386.88,-168 386.88,-168 386.88,-174 380.88,-180 374.88,-180"/>
<text text-anchor="middle" x="312.12" y="-158.88" font-family="sans" font-size="10.00">EstimateLibraryComplexity</text>
</g>
<!-- 2&#45;&gt;20 -->
<g id="edge31" class="edge">
<title>2&#45;&gt;20</title>
<path fill="none" stroke="grey" stroke-width="2" d="M312.12,-215.34C312.12,-208.75 312.12,-201.08 312.12,-193.67"/>
<polygon fill="grey" stroke="grey" stroke-width="2" points="315.63,-193.93 312.13,-183.93 308.63,-193.93 315.63,-193.93"/>
</g>
<!-- 22 -->
<g id="node23" class="node">
<title>22</title>
<path fill="none" stroke="#56d87b" stroke-width="2" d="M1173.62,-180C1173.62,-180 1088.62,-180 1088.62,-180 1082.62,-180 1076.62,-174 1076.62,-168 1076.62,-168 1076.62,-156 1076.62,-156 1076.62,-150 1082.62,-144 1088.62,-144 1088.62,-144 1173.62,-144 1173.62,-144 1179.62,-144 1185.62,-150 1185.62,-156 1185.62,-156 1185.62,-168 1185.62,-168 1185.62,-174 1179.62,-180 1173.62,-180"/>
<text text-anchor="middle" x="1131.12" y="-158.88" font-family="sans" font-size="10.00">picard_rna_metrics</text>
</g>
<!-- 2&#45;&gt;22 -->
<g id="edge33" class="edge">
<title>2&#45;&gt;22</title>
<path fill="none" stroke="grey" stroke-width="2" d="M343.34,-232.97C445.61,-232.41 779.83,-227.01 1063.34,-180.63"/>
<polygon fill="grey" stroke="grey" stroke-width="2" points="1063.67,-184.13 1072.96,-179.03 1062.52,-177.22 1063.67,-184.13"/>
</g>
<!-- 3 -->
<g id="node4" class="node">
<title>3</title>
<path fill="none" stroke="#59d856" stroke-width="2" d="M332.5,-324C332.5,-324 291.75,-324 291.75,-324 285.75,-324 279.75,-318 279.75,-312 279.75,-312 279.75,-300 279.75,-300 279.75,-294 285.75,-288 291.75,-288 291.75,-288 332.5,-288 332.5,-288 338.5,-288 344.5,-294 344.5,-300 344.5,-300 344.5,-312 344.5,-312 344.5,-318 338.5,-324 332.5,-324"/>
<text text-anchor="middle" x="312.12" y="-302.88" font-family="sans" font-size="10.00">filter_sam</text>
</g>
<!-- 3&#45;&gt;2 -->
<g id="edge18" class="edge">
<title>3&#45;&gt;2</title>
<path fill="none" stroke="grey" stroke-width="2" d="M312.12,-287.34C312.12,-280.75 312.12,-273.08 312.12,-265.67"/>
<polygon fill="grey" stroke="grey" stroke-width="2" points="315.63,-265.93 312.13,-255.93 308.63,-265.93 315.63,-265.93"/>
</g>
<!-- 4 -->
<g id="node5" class="node">
<title>4</title>
<path fill="none" stroke="#78d856" stroke-width="2" d="M335.12,-396C335.12,-396 289.12,-396 289.12,-396 283.12,-396 277.12,-390 277.12,-384 277.12,-384 277.12,-372 277.12,-372 277.12,-366 283.12,-360 289.12,-360 289.12,-360 335.12,-360 335.12,-360 341.12,-360 347.12,-366 347.12,-372 347.12,-372 347.12,-384 347.12,-384 347.12,-390 341.12,-396 335.12,-396"/>
<text text-anchor="middle" x="312.12" y="-374.88" font-family="sans" font-size="10.00">align_fastq</text>
</g>
<!-- 4&#45;&gt;3 -->
<g id="edge19" class="edge">
<title>4&#45;&gt;3</title>
<path fill="none" stroke="grey" stroke-width="2" d="M312.12,-359.34C312.12,-352.75 312.12,-345.08 312.12,-337.67"/>
<polygon fill="grey" stroke="grey" stroke-width="2" points="315.63,-337.93 312.13,-327.93 308.63,-337.93 315.63,-337.93"/>
</g>
<!-- 5 -->
<g id="node6" class="node">
<title>5</title>
<path fill="none" stroke="#d8c356" stroke-width="2" d="M374.88,-468C374.88,-468 249.38,-468 249.38,-468 243.38,-468 237.38,-462 237.38,-456 237.38,-456 237.38,-444 237.38,-444 237.38,-438 243.38,-432 249.38,-432 249.38,-432 374.88,-432 374.88,-432 380.88,-432 386.88,-438 386.88,-444 386.88,-444 386.88,-456 386.88,-456 386.88,-462 380.88,-468 374.88,-468"/>
<text text-anchor="middle" x="312.12" y="-453.25" font-family="sans" font-size="10.00">trim_fastq</text>
<text text-anchor="middle" x="312.12" y="-440.5" font-family="sans" font-size="10.00">sample: PROseq_data_rep1</text>
</g>
<!-- 5&#45;&gt;4 -->
<g id="edge20" class="edge">
<title>5&#45;&gt;4</title>
<path fill="none" stroke="grey" stroke-width="2" d="M312.12,-431.34C312.12,-424.75 312.12,-417.08 312.12,-409.67"/>
<polygon fill="grey" stroke="grey" stroke-width="2" points="315.63,-409.93 312.13,-399.93 308.63,-409.93 315.63,-409.93"/>
</g>
<!-- 6 -->
<g id="node7" class="node">
<title>6</title>
<path fill="none" stroke="#d85656" stroke-width="2" d="M1921.88,-180C1921.88,-180 1856.38,-180 1856.38,-180 1850.38,-180 1844.38,-174 1844.38,-168 1844.38,-168 1844.38,-156 1844.38,-156 1844.38,-150 1850.38,-144 1856.38,-144 1856.38,-144 1921.88,-144 1921.88,-144 1927.88,-144 1933.88,-150 1933.88,-156 1933.88,-156 1933.88,-168 1933.88,-168 1933.88,-174 1927.88,-180 1921.88,-180"/>
<text text-anchor="middle" x="1889.12" y="-158.88" font-family="sans" font-size="10.00">create_bigwigs</text>
</g>
<!-- 6&#45;&gt;0 -->
<g id="edge2" class="edge">
<title>6&#45;&gt;0</title>
<path fill="none" stroke="grey" stroke-width="2" d="M1889.07,-143.02C1887.95,-122.3 1882.63,-88.94 1861.12,-72 1803.07,-26.28 1276.95,-20 1125.65,-19.14"/>
<polygon fill="grey" stroke="grey" stroke-width="2" points="1126.04,-15.64 1116.03,-19.09 1126.01,-22.64 1126.04,-15.64"/>
</g>
<!-- 6&#45;&gt;11 -->
<g id="edge26" class="edge">
<title>6&#45;&gt;11</title>
<path fill="none" stroke="grey" stroke-width="2" d="M1861.59,-143.15C1848.77,-134.84 1833.31,-124.82 1819.37,-115.79"/>
<polygon fill="grey" stroke="grey" stroke-width="2" points="1821.44,-112.96 1811.15,-110.46 1817.64,-118.83 1821.44,-112.96"/>
</g>
<!-- 7 -->
<g id="node8" class="node">
<title>7</title>
<path fill="none" stroke="#56c9d8" stroke-width="2" d="M1520.62,-252C1520.62,-252 1483.62,-252 1483.62,-252 1477.62,-252 1471.62,-246 1471.62,-240 1471.62,-240 1471.62,-228 1471.62,-228 1471.62,-222 1477.62,-216 1483.62,-216 1483.62,-216 1520.62,-216 1520.62,-216 1526.62,-216 1532.62,-222 1532.62,-228 1532.62,-228 1532.62,-240 1532.62,-240 1532.62,-246 1526.62,-252 1520.62,-252"/>
<text text-anchor="middle" x="1502.12" y="-230.88" font-family="sans" font-size="10.00">sort_sam</text>
</g>
<!-- 7&#45;&gt;6 -->
<g id="edge21" class="edge">
<title>7&#45;&gt;6</title>
<path fill="none" stroke="grey" stroke-width="2" d="M1533.18,-229.61C1590.34,-223.03 1716.18,-207.02 1831.08,-180.76"/>
<polygon fill="grey" stroke="grey" stroke-width="2" points="1831.7,-184.21 1840.64,-178.54 1830.11,-177.4 1831.7,-184.21"/>
</g>
<!-- 13 -->
<g id="node14" class="node">
<title>13</title>
<path fill="none" stroke="#56a2d8" stroke-width="2" d="M1423.75,-180C1423.75,-180 1342.5,-180 1342.5,-180 1336.5,-180 1330.5,-174 1330.5,-168 1330.5,-168 1330.5,-156 1330.5,-156 1330.5,-150 1336.5,-144 1342.5,-144 1342.5,-144 1423.75,-144 1423.75,-144 1429.75,-144 1435.75,-150 1435.75,-156 1435.75,-156 1435.75,-168 1435.75,-168 1435.75,-174 1429.75,-180 1423.75,-180"/>
<text text-anchor="middle" x="1383.12" y="-158.88" font-family="sans" font-size="10.00">bam_qc_qualimap</text>
</g>
<!-- 7&#45;&gt;13 -->
<g id="edge28" class="edge">
<title>7&#45;&gt;13</title>
<path fill="none" stroke="grey" stroke-width="2" d="M1471.79,-215.15C1457.38,-206.68 1439.94,-196.42 1424.36,-187.25"/>
<polygon fill="grey" stroke="grey" stroke-width="2" points="1426.41,-184.4 1416.02,-182.35 1422.86,-190.43 1426.41,-184.4"/>
</g>
<!-- 19 -->
<g id="node20" class="node">
<title>19</title>
<path fill="none" stroke="#c6d856" stroke-width="2" d="M1538.25,-180C1538.25,-180 1466,-180 1466,-180 1460,-180 1454,-174 1454,-168 1454,-168 1454,-156 1454,-156 1454,-150 1460,-144 1466,-144 1466,-144 1538.25,-144 1538.25,-144 1544.25,-144 1550.25,-150 1550.25,-156 1550.25,-156 1550.25,-168 1550.25,-168 1550.25,-174 1544.25,-180 1538.25,-180"/>
<text text-anchor="middle" x="1502.12" y="-158.88" font-family="sans" font-size="10.00">bam_qc_flagstat</text>
</g>
<!-- 7&#45;&gt;19 -->
<g id="edge30" class="edge">
<title>7&#45;&gt;19</title>
<path fill="none" stroke="grey" stroke-width="2" d="M1502.12,-215.34C1502.12,-208.75 1502.12,-201.08 1502.12,-193.67"/>
<polygon fill="grey" stroke="grey" stroke-width="2" points="1505.63,-193.93 1502.13,-183.93 1498.63,-193.93 1505.63,-193.93"/>
</g>
<!-- 21 -->
<g id="node22" class="node">
<title>21</title>
<path fill="none" stroke="#d8a456" stroke-width="2" d="M1705.88,-180C1705.88,-180 1580.38,-180 1580.38,-180 1574.38,-180 1568.38,-174 1568.38,-168 1568.38,-168 1568.38,-156 1568.38,-156 1568.38,-150 1574.38,-144 1580.38,-144 1580.38,-144 1705.88,-144 1705.88,-144 1711.88,-144 1717.88,-150 1717.88,-156 1717.88,-156 1717.88,-168 1717.88,-168 1717.88,-174 1711.88,-180 1705.88,-180"/>
<text text-anchor="middle" x="1643.12" y="-158.88" font-family="sans" font-size="10.00">EstimateLibraryComplexity</text>
</g>
<!-- 7&#45;&gt;21 -->
<g id="edge32" class="edge">
<title>7&#45;&gt;21</title>
<path fill="none" stroke="grey" stroke-width="2" d="M1533.42,-217.46C1551.59,-208.44 1574.87,-196.89 1595.3,-186.74"/>
<polygon fill="grey" stroke="grey" stroke-width="2" points="1596.83,-189.89 1604.23,-182.31 1593.72,-183.62 1596.83,-189.89"/>
</g>
<!-- 23 -->
<g id="node24" class="node">
<title>23</title>
<path fill="none" stroke="#56d87b" stroke-width="2" d="M1300.62,-180C1300.62,-180 1215.62,-180 1215.62,-180 1209.62,-180 1203.62,-174 1203.62,-168 1203.62,-168 1203.62,-156 1203.62,-156 1203.62,-150 1209.62,-144 1215.62,-144 1215.62,-144 1300.62,-144 1300.62,-144 1306.62,-144 1312.62,-150 1312.62,-156 1312.62,-156 1312.62,-168 1312.62,-168 1312.62,-174 1306.62,-180 1300.62,-180"/>
<text text-anchor="middle" x="1258.12" y="-158.88" font-family="sans" font-size="10.00">picard_rna_metrics</text>
</g>
<!-- 7&#45;&gt;23 -->
<g id="edge34" class="edge">
<title>7&#45;&gt;23</title>
<path fill="none" stroke="grey" stroke-width="2" d="M1470.73,-223.99C1434.33,-213.55 1373.3,-196.04 1325.94,-182.46"/>
<polygon fill="grey" stroke="grey" stroke-width="2" points="1327.09,-179.14 1316.51,-179.75 1325.16,-185.87 1327.09,-179.14"/>
</g>
<!-- 8 -->
<g id="node9" class="node">
<title>8</title>
<path fill="none" stroke="#59d856" stroke-width="2" d="M1522.5,-324C1522.5,-324 1481.75,-324 1481.75,-324 1475.75,-324 1469.75,-318 1469.75,-312 1469.75,-312 1469.75,-300 1469.75,-300 1469.75,-294 1475.75,-288 1481.75,-288 1481.75,-288 1522.5,-288 1522.5,-288 1528.5,-288 1534.5,-294 1534.5,-300 1534.5,-300 1534.5,-312 1534.5,-312 1534.5,-318 1528.5,-324 1522.5,-324"/>
<text text-anchor="middle" x="1502.12" y="-302.88" font-family="sans" font-size="10.00">filter_sam</text>
</g>
<!-- 8&#45;&gt;7 -->
<g id="edge22" class="edge">
<title>8&#45;&gt;7</title>
<path fill="none" stroke="grey" stroke-width="2" d="M1502.12,-287.34C1502.12,-280.75 1502.12,-273.08 1502.12,-265.67"/>
<polygon fill="grey" stroke="grey" stroke-width="2" points="1505.63,-265.93 1502.13,-255.93 1498.63,-265.93 1505.63,-265.93"/>
</g>
<!-- 9 -->
<g id="node10" class="node">
<title>9</title>
<path fill="none" stroke="#78d856" stroke-width="2" d="M1525.12,-396C1525.12,-396 1479.12,-396 1479.12,-396 1473.12,-396 1467.12,-390 1467.12,-384 1467.12,-384 1467.12,-372 1467.12,-372 1467.12,-366 1473.12,-360 1479.12,-360 1479.12,-360 1525.12,-360 1525.12,-360 1531.12,-360 1537.12,-366 1537.12,-372 1537.12,-372 1537.12,-384 1537.12,-384 1537.12,-390 1531.12,-396 1525.12,-396"/>
<text text-anchor="middle" x="1502.12" y="-374.88" font-family="sans" font-size="10.00">align_fastq</text>
</g>
<!-- 9&#45;&gt;8 -->
<g id="edge23" class="edge">
<title>9&#45;&gt;8</title>
<path fill="none" stroke="grey" stroke-width="2" d="M1502.12,-359.34C1502.12,-352.75 1502.12,-345.08 1502.12,-337.67"/>
<polygon fill="grey" stroke="grey" stroke-width="2" points="1505.63,-337.93 1502.13,-327.93 1498.63,-337.93 1505.63,-337.93"/>
</g>
<!-- 10 -->
<g id="node11" class="node">
<title>10</title>
<path fill="none" stroke="#d8c356" stroke-width="2" d="M1564.88,-468C1564.88,-468 1439.38,-468 1439.38,-468 1433.38,-468 1427.38,-462 1427.38,-456 1427.38,-456 1427.38,-444 1427.38,-444 1427.38,-438 1433.38,-432 1439.38,-432 1439.38,-432 1564.88,-432 1564.88,-432 1570.88,-432 1576.88,-438 1576.88,-444 1576.88,-444 1576.88,-456 1576.88,-456 1576.88,-462 1570.88,-468 1564.88,-468"/>
<text text-anchor="middle" x="1502.12" y="-453.25" font-family="sans" font-size="10.00">trim_fastq</text>
<text text-anchor="middle" x="1502.12" y="-440.5" font-family="sans" font-size="10.00">sample: PROseq_data_rep2</text>
</g>
<!-- 10&#45;&gt;9 -->
<g id="edge24" class="edge">
<title>10&#45;&gt;9</title>
<path fill="none" stroke="grey" stroke-width="2" d="M1502.12,-431.34C1502.12,-424.75 1502.12,-417.08 1502.12,-409.67"/>
<polygon fill="grey" stroke="grey" stroke-width="2" points="1505.63,-409.93 1502.13,-399.93 1498.63,-409.93 1505.63,-409.93"/>
</g>
<!-- 11&#45;&gt;0 -->
<g id="edge3" class="edge">
<title>11&#45;&gt;0</title>
<path fill="none" stroke="grey" stroke-width="2" d="M1708.98,-79.09C1690.17,-76.63 1669.9,-74.11 1651.12,-72 1454.55,-49.95 1218.84,-29.94 1125.77,-22.29"/>
<polygon fill="grey" stroke="grey" stroke-width="2" points="1126.11,-18.81 1115.86,-21.48 1125.54,-25.78 1126.11,-18.81"/>
</g>
<!-- 12&#45;&gt;0 -->
<g id="edge4" class="edge">
<title>12&#45;&gt;0</title>
<path fill="none" stroke="grey" stroke-width="2" d="M220.67,-143.21C284.72,-122.67 395.53,-89.49 493.12,-72 698.09,-35.28 947.76,-23.52 1044.31,-20.18"/>
<polygon fill="grey" stroke="grey" stroke-width="2" points="1044.25,-23.69 1054.13,-19.86 1044.02,-16.69 1044.25,-23.69"/>
</g>
<!-- 24 -->
<g id="node25" class="node">
<title>24</title>
<path fill="none" stroke="#56d8c9" stroke-width="2" d="M1010.5,-108C1010.5,-108 957.75,-108 957.75,-108 951.75,-108 945.75,-102 945.75,-96 945.75,-96 945.75,-84 945.75,-84 945.75,-78 951.75,-72 957.75,-72 957.75,-72 1010.5,-72 1010.5,-72 1016.5,-72 1022.5,-78 1022.5,-84 1022.5,-84 1022.5,-96 1022.5,-96 1022.5,-102 1016.5,-108 1010.5,-108"/>
<text text-anchor="middle" x="984.12" y="-86.88" font-family="sans" font-size="10.00">run_multiQC</text>
</g>
<!-- 12&#45;&gt;24 -->
<g id="edge35" class="edge">
<title>12&#45;&gt;24</title>
<path fill="none" stroke="grey" stroke-width="2" d="M220.54,-145.46C223.1,-144.92 225.63,-144.43 228.12,-144 489.89,-98.83 808.98,-91.94 932.17,-91.05"/>
<polygon fill="grey" stroke="grey" stroke-width="2" points="931.83,-94.55 941.81,-90.99 931.79,-87.55 931.83,-94.55"/>
</g>
<!-- 13&#45;&gt;0 -->
<g id="edge5" class="edge">
<title>13&#45;&gt;0</title>
<path fill="none" stroke="grey" stroke-width="2" d="M1345.38,-143.02C1288.65,-115.98 1181.92,-65.13 1124.34,-37.69"/>
<polygon fill="grey" stroke="grey" stroke-width="2" points="1126.1,-34.65 1115.57,-33.51 1123.09,-40.97 1126.1,-34.65"/>
</g>
<!-- 13&#45;&gt;24 -->
<g id="edge36" class="edge">
<title>13&#45;&gt;24</title>
<path fill="none" stroke="grey" stroke-width="2" d="M1329.78,-145.97C1326.86,-145.27 1323.96,-144.61 1321.12,-144 1220.97,-122.46 1102.31,-105.83 1035.87,-97.31"/>
<polygon fill="grey" stroke="grey" stroke-width="2" points="1036.67,-93.89 1026.31,-96.1 1035.79,-100.83 1036.67,-93.89"/>
</g>
<!-- 14 -->
<g id="node15" class="node">
<title>14</title>
<path fill="none" stroke="#9fd856" stroke-width="2" d="M542.88,-180C542.88,-180 417.38,-180 417.38,-180 411.38,-180 405.38,-174 405.38,-168 405.38,-168 405.38,-156 405.38,-156 405.38,-150 411.38,-144 417.38,-144 417.38,-144 542.88,-144 542.88,-144 548.88,-144 554.88,-150 554.88,-156 554.88,-156 554.88,-168 554.88,-168 554.88,-174 548.88,-180 542.88,-180"/>
<text text-anchor="middle" x="480.12" y="-165.25" font-family="sans" font-size="10.00">fastq_screen</text>
<text text-anchor="middle" x="480.12" y="-152.5" font-family="sans" font-size="10.00">sample: PROseq_data_rep1</text>
</g>
<!-- 14&#45;&gt;0 -->
<g id="edge6" class="edge">
<title>14&#45;&gt;0</title>
<path fill="none" stroke="grey" stroke-width="2" d="M533.36,-143.08C592.76,-123.58 691.99,-92.44 779.12,-72 873.36,-49.9 985.9,-32.73 1044.74,-24.45"/>
<polygon fill="grey" stroke="grey" stroke-width="2" points="1045.06,-27.94 1054.48,-23.09 1044.09,-21 1045.06,-27.94"/>
</g>
<!-- 14&#45;&gt;24 -->
<g id="edge37" class="edge">
<title>14&#45;&gt;24</title>
<path fill="none" stroke="grey" stroke-width="2" d="M555.63,-145.44C558.5,-144.94 561.34,-144.46 564.12,-144 696.2,-122.33 852.91,-104.67 932.37,-96.28"/>
<polygon fill="grey" stroke="grey" stroke-width="2" points="932.31,-99.81 941.89,-95.28 931.58,-92.85 932.31,-99.81"/>
</g>
<!-- 15 -->
<g id="node16" class="node">
<title>15</title>
<path fill="none" stroke="#9fd856" stroke-width="2" d="M710.88,-180C710.88,-180 585.38,-180 585.38,-180 579.38,-180 573.38,-174 573.38,-168 573.38,-168 573.38,-156 573.38,-156 573.38,-150 579.38,-144 585.38,-144 585.38,-144 710.88,-144 710.88,-144 716.88,-144 722.88,-150 722.88,-156 722.88,-156 722.88,-168 722.88,-168 722.88,-174 716.88,-180 710.88,-180"/>
<text text-anchor="middle" x="648.12" y="-165.25" font-family="sans" font-size="10.00">fastq_screen</text>
<text text-anchor="middle" x="648.12" y="-152.5" font-family="sans" font-size="10.00">sample: PROseq_data_rep2</text>
</g>
<!-- 15&#45;&gt;0 -->
<g id="edge7" class="edge">
<title>15&#45;&gt;0</title>
<path fill="none" stroke="grey" stroke-width="2" d="M689.98,-143.08C735.67,-123.92 811.25,-93.42 878.12,-72 935.19,-53.73 1002.65,-37.41 1044.67,-27.86"/>
<polygon fill="grey" stroke="grey" stroke-width="2" points="1045.43,-31.28 1054.42,-25.67 1043.9,-24.45 1045.43,-31.28"/>
</g>
<!-- 15&#45;&gt;24 -->
<g id="edge38" class="edge">
<title>15&#45;&gt;24</title>
<path fill="none" stroke="grey" stroke-width="2" d="M723.53,-145.29C787.12,-132.04 876.45,-113.43 932.27,-101.8"/>
<polygon fill="grey" stroke="grey" stroke-width="2" points="932.98,-105.23 942.05,-99.76 931.55,-98.38 932.98,-105.23"/>
</g>
<!-- 16 -->
<g id="node17" class="node">
<title>16</title>
<path fill="none" stroke="#56d8a2" stroke-width="2" d="M878.88,-180C878.88,-180 753.38,-180 753.38,-180 747.38,-180 741.38,-174 741.38,-168 741.38,-168 741.38,-156 741.38,-156 741.38,-150 747.38,-144 753.38,-144 753.38,-144 878.88,-144 878.88,-144 884.88,-144 890.88,-150 890.88,-156 890.88,-156 890.88,-168 890.88,-168 890.88,-174 884.88,-180 878.88,-180"/>
<text text-anchor="middle" x="816.12" y="-165.25" font-family="sans" font-size="10.00">fastqc</text>
<text text-anchor="middle" x="816.12" y="-152.5" font-family="sans" font-size="10.00">sample: PROseq_data_rep1</text>
</g>
<!-- 16&#45;&gt;0 -->
<g id="edge8" class="edge">
<title>16&#45;&gt;0</title>
<path fill="none" stroke="grey" stroke-width="2" d="M836.31,-143.27C859.38,-123.72 898.91,-92.34 937.12,-72 971.91,-53.49 1014.53,-39 1045.09,-29.88"/>
<polygon fill="grey" stroke="grey" stroke-width="2" points="1045.85,-33.31 1054.48,-27.16 1043.9,-26.58 1045.85,-33.31"/>
</g>
<!-- 16&#45;&gt;24 -->
<g id="edge39" class="edge">
<title>16&#45;&gt;24</title>
<path fill="none" stroke="grey" stroke-width="2" d="M858.95,-143.15C881.47,-133.77 909.23,-122.21 932.88,-112.35"/>
<polygon fill="grey" stroke="grey" stroke-width="2" points="934.15,-115.61 942.04,-108.54 931.46,-109.15 934.15,-115.61"/>
</g>
<!-- 17 -->
<g id="node18" class="node">
<title>17</title>
<path fill="none" stroke="#56d8a2" stroke-width="2" d="M1046.88,-180C1046.88,-180 921.38,-180 921.38,-180 915.38,-180 909.38,-174 909.38,-168 909.38,-168 909.38,-156 909.38,-156 909.38,-150 915.38,-144 921.38,-144 921.38,-144 1046.88,-144 1046.88,-144 1052.88,-144 1058.88,-150 1058.88,-156 1058.88,-156 1058.88,-168 1058.88,-168 1058.88,-174 1052.88,-180 1046.88,-180"/>
<text text-anchor="middle" x="984.12" y="-165.25" font-family="sans" font-size="10.00">fastqc</text>
<text text-anchor="middle" x="984.12" y="-152.5" font-family="sans" font-size="10.00">sample: PROseq_data_rep2</text>
</g>
<!-- 17&#45;&gt;0 -->
<g id="edge9" class="edge">
<title>17&#45;&gt;0</title>
<path fill="none" stroke="grey" stroke-width="2" d="M1001.51,-143.05C1010.76,-133.09 1022.07,-120.27 1031.12,-108 1045.22,-88.88 1059.08,-65.93 1069.23,-48.13"/>
<polygon fill="grey" stroke="grey" stroke-width="2" points="1072.15,-50.07 1073.99,-39.64 1066.04,-46.65 1072.15,-50.07"/>
</g>
<!-- 17&#45;&gt;24 -->
<g id="edge40" class="edge">
<title>17&#45;&gt;24</title>
<path fill="none" stroke="grey" stroke-width="2" d="M984.12,-143.34C984.12,-136.75 984.12,-129.08 984.12,-121.67"/>
<polygon fill="grey" stroke="grey" stroke-width="2" points="987.63,-121.93 984.13,-111.93 980.63,-121.93 987.63,-121.93"/>
</g>
<!-- 18&#45;&gt;0 -->
<g id="edge10" class="edge">
<title>18&#45;&gt;0</title>
<path fill="none" stroke="grey" stroke-width="2" d="M94.19,-143.16C150.37,-122.25 248.68,-88.38 336.12,-72 603,-22.01 931.42,-18.28 1044.57,-18.63"/>
<polygon fill="grey" stroke="grey" stroke-width="2" points="1044.25,-22.13 1054.26,-18.67 1044.28,-15.13 1044.25,-22.13"/>
</g>
<!-- 18&#45;&gt;24 -->
<g id="edge41" class="edge">
<title>18&#45;&gt;24</title>
<path fill="none" stroke="grey" stroke-width="2" d="M97.08,-145.62C99.79,-145.02 102.48,-144.47 105.12,-144 265.56,-115.63 768.13,-97.76 931.94,-92.57"/>
<polygon fill="grey" stroke="grey" stroke-width="2" points="932.02,-96.07 941.91,-92.26 931.8,-89.08 932.02,-96.07"/>
</g>
<!-- 19&#45;&gt;0 -->
<g id="edge11" class="edge">
<title>19&#45;&gt;0</title>
<path fill="none" stroke="grey" stroke-width="2" d="M1453.28,-143.4C1402.42,-125.17 1320.38,-96.04 1249.12,-72 1207.08,-57.81 1158.7,-42.27 1125.45,-31.71"/>
<polygon fill="grey" stroke="grey" stroke-width="2" points="1126.53,-28.38 1115.94,-28.7 1124.41,-35.06 1126.53,-28.38"/>
</g>
<!-- 19&#45;&gt;24 -->
<g id="edge42" class="edge">
<title>19&#45;&gt;24</title>
<path fill="none" stroke="grey" stroke-width="2" d="M1453.14,-145.8C1450.44,-145.14 1447.76,-144.54 1445.12,-144 1298.67,-113.98 1122.3,-99.63 1036.35,-94.01"/>
<polygon fill="grey" stroke="grey" stroke-width="2" points="1036.57,-90.52 1026.37,-93.38 1036.12,-97.5 1036.57,-90.52"/>
</g>
<!-- 20&#45;&gt;0 -->
<g id="edge12" class="edge">
<title>20&#45;&gt;0</title>
<path fill="none" stroke="grey" stroke-width="2" d="M368.95,-143.05C434.43,-122.99 545.56,-90.87 643.12,-72 789.63,-43.67 966.57,-27.93 1044.7,-21.9"/>
<polygon fill="grey" stroke="grey" stroke-width="2" points="1044.52,-25.42 1054.22,-21.18 1043.99,-18.44 1044.52,-25.42"/>
</g>
<!-- 20&#45;&gt;24 -->
<g id="edge43" class="edge">
<title>20&#45;&gt;24</title>
<path fill="none" stroke="grey" stroke-width="2" d="M387.61,-145.32C390.48,-144.85 393.33,-144.41 396.12,-144 593.13,-115.28 829.68,-99.63 932.36,-93.75"/>
<polygon fill="grey" stroke="grey" stroke-width="2" points="932.27,-97.26 942.06,-93.2 931.87,-90.27 932.27,-97.26"/>
</g>
<!-- 21&#45;&gt;0 -->
<g id="edge13" class="edge">
<title>21&#45;&gt;0</title>
<path fill="none" stroke="grey" stroke-width="2" d="M1578.91,-143.05C1512.34,-124.61 1405.19,-95.37 1312.12,-72 1246.93,-55.63 1170.77,-38.19 1125.32,-27.96"/>
<polygon fill="grey" stroke="grey" stroke-width="2" points="1126.28,-24.59 1115.76,-25.81 1124.75,-31.42 1126.28,-24.59"/>
</g>
<!-- 21&#45;&gt;24 -->
<g id="edge44" class="edge">
<title>21&#45;&gt;24</title>
<path fill="none" stroke="grey" stroke-width="2" d="M1567.64,-145.32C1564.77,-144.85 1561.92,-144.41 1559.12,-144 1367.38,-115.84 1137.33,-99.99 1036.17,-93.91"/>
<polygon fill="grey" stroke="grey" stroke-width="2" points="1036.55,-90.43 1026.36,-93.33 1036.14,-97.42 1036.55,-90.43"/>
</g>
<!-- 22&#45;&gt;0 -->
<g id="edge14" class="edge">
<title>22&#45;&gt;0</title>
<path fill="none" stroke="grey" stroke-width="2" d="M1125.3,-143.02C1117.63,-119.33 1104.03,-77.35 1094.8,-48.86"/>
<polygon fill="grey" stroke="grey" stroke-width="2" points="1098.25,-48.15 1091.84,-39.72 1091.59,-50.31 1098.25,-48.15"/>
</g>
<!-- 22&#45;&gt;24 -->
<g id="edge45" class="edge">
<title>22&#45;&gt;24</title>
<path fill="none" stroke="grey" stroke-width="2" d="M1093.65,-143.15C1075.32,-134.43 1053.02,-123.81 1033.33,-114.43"/>
<polygon fill="grey" stroke="grey" stroke-width="2" points="1035.05,-111.37 1024.52,-110.24 1032.04,-117.69 1035.05,-111.37"/>
</g>
<!-- 23&#45;&gt;0 -->
<g id="edge15" class="edge">
<title>23&#45;&gt;0</title>
<path fill="none" stroke="grey" stroke-width="2" d="M1236.21,-143.02C1206.06,-118.26 1151.56,-73.53 1116.92,-45.1"/>
<polygon fill="grey" stroke="grey" stroke-width="2" points="1119.15,-42.4 1109.2,-38.76 1114.71,-47.81 1119.15,-42.4"/>
</g>
<!-- 23&#45;&gt;24 -->
<g id="edge46" class="edge">
<title>23&#45;&gt;24</title>
<path fill="none" stroke="grey" stroke-width="2" d="M1202.63,-146.21C1199.76,-145.46 1196.91,-144.72 1194.12,-144 1140.19,-130.03 1078.34,-114.48 1035.8,-103.85"/>
<polygon fill="grey" stroke="grey" stroke-width="2" points="1036.74,-100.48 1026.19,-101.45 1035.05,-107.27 1036.74,-100.48"/>
</g>
<!-- 24&#45;&gt;0 -->
<g id="edge16" class="edge">
<title>24&#45;&gt;0</title>
<path fill="none" stroke="grey" stroke-width="2" d="M1009.87,-71.15C1021.74,-62.93 1036.04,-53.02 1048.97,-44.06"/>
<polygon fill="grey" stroke="grey" stroke-width="2" points="1050.71,-47.11 1056.94,-38.54 1046.72,-41.36 1050.71,-47.11"/>
</g>
</g>
</svg>
