<?xml version="1.0" encoding="UTF-8" standalone="no"?>
<!DOCTYPE svg PUBLIC "-//W3C//DTD SVG 1.1//EN"
 "http://www.w3.org/Graphics/SVG/1.1/DTD/svg11.dtd">
<!-- Generated by graphviz version 11.0.0 (20240519.1550)
 -->
<!-- Title: snakemake_dag Pages: 1 -->
<svg width="3289pt" height="486pt"
 viewBox="0.00 0.00 3289.04 486.25" xmlns="http://www.w3.org/2000/svg" xmlns:xlink="http://www.w3.org/1999/xlink">
<g id="graph0" class="graph" transform="scale(1 1) rotate(0) translate(4 482.25)">
<title>snakemake_dag</title>
<polygon fill="white" stroke="none" points="-4,4 -4,-482.25 3285.04,-482.25 3285.04,4 -4,4"/>
<!-- 0 -->
<g id="node1" class="node">
<title>0</title>
<path fill="none" stroke="#78d856" stroke-width="2" d="M1719.88,-36C1719.88,-36 1689.88,-36 1689.88,-36 1683.88,-36 1677.88,-30 1677.88,-24 1677.88,-24 1677.88,-12 1677.88,-12 1677.88,-6 1683.88,0 1689.88,0 1689.88,0 1719.88,0 1719.88,0 1725.88,0 1731.88,-6 1731.88,-12 1731.88,-12 1731.88,-24 1731.88,-24 1731.88,-30 1725.88,-36 1719.88,-36"/>
<text text-anchor="middle" x="1704.88" y="-14.88" font-family="sans" font-size="10.00">all</text>
</g>
<!-- 1 -->
<g id="node2" class="node">
<title>1</title>
<path fill="none" stroke="#59d856" stroke-width="2" d="M235.75,-478.25C235.75,-478.25 12,-478.25 12,-478.25 6,-478.25 0,-472.25 0,-466.25 0,-466.25 0,-454.25 0,-454.25 0,-448.25 6,-442.25 12,-442.25 12,-442.25 235.75,-442.25 235.75,-442.25 241.75,-442.25 247.75,-448.25 247.75,-454.25 247.75,-454.25 247.75,-466.25 247.75,-466.25 247.75,-472.25 241.75,-478.25 235.75,-478.25"/>
<text text-anchor="middle" x="123.88" y="-463.5" font-family="sans" font-size="10.00">TrimGalore</text>
<text text-anchor="middle" x="123.88" y="-450.75" font-family="sans" font-size="10.00">sample: CUTnTag_SPT5_TimeCourse_2&#45;4h_rep1</text>
</g>
<!-- 1&#45;&gt;0 -->
<g id="edge1" class="edge">
<title>1&#45;&gt;0</title>
<path fill="none" stroke="grey" stroke-width="2" d="M116.62,-441.66C106.37,-415.16 88.88,-363.21 88.88,-317.25 88.88,-317.25 88.88,-317.25 88.88,-166.12 88.88,-120.67 91.39,-97.71 128.88,-72 194.03,-27.3 1423.68,-20.12 1664.25,-19.14"/>
<polygon fill="grey" stroke="grey" stroke-width="2" points="1664.11,-22.64 1674.1,-19.1 1664.09,-15.64 1664.11,-22.64"/>
</g>
<!-- 3 -->
<g id="node4" class="node">
<title>3</title>
<path fill="none" stroke="#d87d56" stroke-width="2" d="M189,-406.25C189,-406.25 128.75,-406.25 128.75,-406.25 122.75,-406.25 116.75,-400.25 116.75,-394.25 116.75,-394.25 116.75,-382.25 116.75,-382.25 116.75,-376.25 122.75,-370.25 128.75,-370.25 128.75,-370.25 189,-370.25 189,-370.25 195,-370.25 201,-376.25 201,-382.25 201,-382.25 201,-394.25 201,-394.25 201,-400.25 195,-406.25 189,-406.25"/>
<text text-anchor="middle" x="158.88" y="-385.12" font-family="sans" font-size="10.00">map_to_Dmel</text>
</g>
<!-- 1&#45;&gt;3 -->
<g id="edge28" class="edge">
<title>1&#45;&gt;3</title>
<path fill="none" stroke="grey" stroke-width="2" d="M132.71,-441.59C136.2,-434.59 140.32,-426.37 144.23,-418.53"/>
<polygon fill="grey" stroke="grey" stroke-width="2" points="147.23,-420.37 148.57,-409.86 140.97,-417.24 147.23,-420.37"/>
</g>
<!-- 2 -->
<g id="node3" class="node">
<title>2</title>
<path fill="none" stroke="#59d856" stroke-width="2" d="M2745.75,-478.25C2745.75,-478.25 2522,-478.25 2522,-478.25 2516,-478.25 2510,-472.25 2510,-466.25 2510,-466.25 2510,-454.25 2510,-454.25 2510,-448.25 2516,-442.25 2522,-442.25 2522,-442.25 2745.75,-442.25 2745.75,-442.25 2751.75,-442.25 2757.75,-448.25 2757.75,-454.25 2757.75,-454.25 2757.75,-466.25 2757.75,-466.25 2757.75,-472.25 2751.75,-478.25 2745.75,-478.25"/>
<text text-anchor="middle" x="2633.88" y="-463.5" font-family="sans" font-size="10.00">TrimGalore</text>
<text text-anchor="middle" x="2633.88" y="-450.75" font-family="sans" font-size="10.00">sample: CUTnTag_SPT5_TimeCourse_2&#45;4h_rep2</text>
</g>
<!-- 2&#45;&gt;0 -->
<g id="edge2" class="edge">
<title>2&#45;&gt;0</title>
<path fill="none" stroke="grey" stroke-width="2" d="M2600.32,-441.32C2562.1,-418.17 2504.88,-374.04 2504.88,-317.25 2504.88,-317.25 2504.88,-317.25 2504.88,-166.12 2504.88,-88 1907.16,-35.01 1745.03,-22.07"/>
<polygon fill="grey" stroke="grey" stroke-width="2" points="1745.67,-18.61 1735.43,-21.32 1745.12,-25.59 1745.67,-18.61"/>
</g>
<!-- 4 -->
<g id="node5" class="node">
<title>4</title>
<path fill="none" stroke="#d87d56" stroke-width="2" d="M2794,-406.25C2794,-406.25 2733.75,-406.25 2733.75,-406.25 2727.75,-406.25 2721.75,-400.25 2721.75,-394.25 2721.75,-394.25 2721.75,-382.25 2721.75,-382.25 2721.75,-376.25 2727.75,-370.25 2733.75,-370.25 2733.75,-370.25 2794,-370.25 2794,-370.25 2800,-370.25 2806,-376.25 2806,-382.25 2806,-382.25 2806,-394.25 2806,-394.25 2806,-400.25 2800,-406.25 2794,-406.25"/>
<text text-anchor="middle" x="2763.88" y="-385.12" font-family="sans" font-size="10.00">map_to_Dmel</text>
</g>
<!-- 2&#45;&gt;4 -->
<g id="edge29" class="edge">
<title>2&#45;&gt;4</title>
<path fill="none" stroke="grey" stroke-width="2" d="M2667.02,-441.4C2682.91,-432.85 2702.17,-422.47 2719.33,-413.24"/>
<polygon fill="grey" stroke="grey" stroke-width="2" points="2720.98,-416.32 2728.13,-408.5 2717.67,-410.16 2720.98,-416.32"/>
</g>
<!-- 3&#45;&gt;0 -->
<g id="edge3" class="edge">
<title>3&#45;&gt;0</title>
<path fill="none" stroke="grey" stroke-width="2" d="M152.24,-369.61C142.87,-343.04 126.88,-290.99 126.88,-245.25 126.88,-245.25 126.88,-245.25 126.88,-166.12 126.88,-121.49 125.67,-98.1 161.88,-72 224.56,-26.81 1426.81,-20.03 1664.32,-19.13"/>
<polygon fill="grey" stroke="grey" stroke-width="2" points="1664.03,-22.63 1674.02,-19.09 1664,-15.63 1664.03,-22.63"/>
</g>
<!-- 5 -->
<g id="node6" class="node">
<title>5</title>
<path fill="none" stroke="#56c9d8" stroke-width="2" d="M354.38,-334.25C354.38,-334.25 281.38,-334.25 281.38,-334.25 275.38,-334.25 269.38,-328.25 269.38,-322.25 269.38,-322.25 269.38,-310.25 269.38,-310.25 269.38,-304.25 275.38,-298.25 281.38,-298.25 281.38,-298.25 354.38,-298.25 354.38,-298.25 360.38,-298.25 366.38,-304.25 366.38,-310.25 366.38,-310.25 366.38,-322.25 366.38,-322.25 366.38,-328.25 360.38,-334.25 354.38,-334.25"/>
<text text-anchor="middle" x="317.88" y="-313.12" font-family="sans" font-size="10.00">mark_duplicates</text>
</g>
<!-- 3&#45;&gt;5 -->
<g id="edge30" class="edge">
<title>3&#45;&gt;5</title>
<path fill="none" stroke="grey" stroke-width="2" d="M199.41,-369.4C219.42,-360.59 243.81,-349.86 265.25,-340.42"/>
<polygon fill="grey" stroke="grey" stroke-width="2" points="266.63,-343.64 274.37,-336.4 263.81,-337.23 266.63,-343.64"/>
</g>
<!-- 4&#45;&gt;0 -->
<g id="edge4" class="edge">
<title>4&#45;&gt;0</title>
<path fill="none" stroke="grey" stroke-width="2" d="M2767.99,-369.43C2776.87,-326.38 2793.29,-215.07 2744.88,-144 2703.69,-83.54 2667.64,-90.53 2596.88,-72 2432.62,-29 1897.1,-20.78 1745.31,-19.31"/>
<polygon fill="grey" stroke="grey" stroke-width="2" points="1745.7,-15.81 1735.66,-19.22 1745.63,-22.81 1745.7,-15.81"/>
</g>
<!-- 6 -->
<g id="node7" class="node">
<title>6</title>
<path fill="none" stroke="#56c9d8" stroke-width="2" d="M3004.38,-334.25C3004.38,-334.25 2931.38,-334.25 2931.38,-334.25 2925.38,-334.25 2919.38,-328.25 2919.38,-322.25 2919.38,-322.25 2919.38,-310.25 2919.38,-310.25 2919.38,-304.25 2925.38,-298.25 2931.38,-298.25 2931.38,-298.25 3004.38,-298.25 3004.38,-298.25 3010.38,-298.25 3016.38,-304.25 3016.38,-310.25 3016.38,-310.25 3016.38,-322.25 3016.38,-322.25 3016.38,-328.25 3010.38,-334.25 3004.38,-334.25"/>
<text text-anchor="middle" x="2967.88" y="-313.12" font-family="sans" font-size="10.00">mark_duplicates</text>
</g>
<!-- 4&#45;&gt;6 -->
<g id="edge31" class="edge">
<title>4&#45;&gt;6</title>
<path fill="none" stroke="grey" stroke-width="2" d="M2806.64,-372.58C2835.65,-362.62 2874.44,-349.31 2906.7,-338.24"/>
<polygon fill="grey" stroke="grey" stroke-width="2" points="2907.53,-341.66 2915.85,-335.1 2905.25,-335.04 2907.53,-341.66"/>
</g>
<!-- 5&#45;&gt;0 -->
<g id="edge5" class="edge">
<title>5&#45;&gt;0</title>
<path fill="none" stroke="grey" stroke-width="2" d="M294.28,-297.34C239.98,-254.11 115.88,-142.4 183.88,-72 236.77,-17.23 1427.75,-18.12 1664.26,-18.84"/>
<polygon fill="grey" stroke="grey" stroke-width="2" points="1663.9,-22.34 1673.91,-18.87 1663.92,-15.34 1663.9,-22.34"/>
</g>
<!-- 7 -->
<g id="node8" class="node">
<title>7</title>
<path fill="none" stroke="#567bd8" stroke-width="2" d="M338.62,-262.25C338.62,-262.25 297.12,-262.25 297.12,-262.25 291.12,-262.25 285.12,-256.25 285.12,-250.25 285.12,-250.25 285.12,-238.25 285.12,-238.25 285.12,-232.25 291.12,-226.25 297.12,-226.25 297.12,-226.25 338.62,-226.25 338.62,-226.25 344.62,-226.25 350.62,-232.25 350.62,-238.25 350.62,-238.25 350.62,-250.25 350.62,-250.25 350.62,-256.25 344.62,-262.25 338.62,-262.25"/>
<text text-anchor="middle" x="317.88" y="-241.12" font-family="sans" font-size="10.00">filter_bam</text>
</g>
<!-- 5&#45;&gt;7 -->
<g id="edge32" class="edge">
<title>5&#45;&gt;7</title>
<path fill="none" stroke="grey" stroke-width="2" d="M317.88,-297.59C317.88,-291 317.88,-283.33 317.88,-275.92"/>
<polygon fill="grey" stroke="grey" stroke-width="2" points="321.38,-276.18 317.88,-266.18 314.38,-276.18 321.38,-276.18"/>
</g>
<!-- 21 -->
<g id="node22" class="node">
<title>21</title>
<path fill="none" stroke="#d8c356" stroke-width="2" d="M667.38,-185.12C667.38,-185.12 588.38,-185.12 588.38,-185.12 582.38,-185.12 576.38,-179.12 576.38,-173.12 576.38,-173.12 576.38,-161.12 576.38,-161.12 576.38,-155.12 582.38,-149.12 588.38,-149.12 588.38,-149.12 667.38,-149.12 667.38,-149.12 673.38,-149.12 679.38,-155.12 679.38,-161.12 679.38,-161.12 679.38,-173.12 679.38,-173.12 679.38,-179.12 673.38,-185.12 667.38,-185.12"/>
<text text-anchor="middle" x="627.88" y="-164" font-family="sans" font-size="10.00">samtools_flagstat</text>
</g>
<!-- 5&#45;&gt;21 -->
<g id="edge40" class="edge">
<title>5&#45;&gt;21</title>
<path fill="none" stroke="grey" stroke-width="2" d="M355.58,-297.36C411.51,-270.81 516.53,-220.97 578.53,-191.55"/>
<polygon fill="grey" stroke="grey" stroke-width="2" points="579.68,-194.87 587.22,-187.42 576.68,-188.55 579.68,-194.87"/>
</g>
<!-- 23 -->
<g id="node24" class="node">
<title>23</title>
<path fill="none" stroke="#d8a456" stroke-width="2" d="M868.5,-185.12C868.5,-185.12 709.25,-185.12 709.25,-185.12 703.25,-185.12 697.25,-179.12 697.25,-173.12 697.25,-173.12 697.25,-161.12 697.25,-161.12 697.25,-155.12 703.25,-149.12 709.25,-149.12 709.25,-149.12 868.5,-149.12 868.5,-149.12 874.5,-149.12 880.5,-155.12 880.5,-161.12 880.5,-161.12 880.5,-173.12 880.5,-173.12 880.5,-179.12 874.5,-185.12 868.5,-185.12"/>
<text text-anchor="middle" x="788.88" y="-164" font-family="sans" font-size="10.00">CollectAlignmentSummaryMetrics</text>
</g>
<!-- 5&#45;&gt;23 -->
<g id="edge42" class="edge">
<title>5&#45;&gt;23</title>
<path fill="none" stroke="grey" stroke-width="2" d="M366.95,-299.92C451.03,-273.66 622.87,-219.98 719.29,-189.86"/>
<polygon fill="grey" stroke="grey" stroke-width="2" points="720.13,-193.26 728.63,-186.94 718.05,-186.58 720.13,-193.26"/>
</g>
<!-- 6&#45;&gt;0 -->
<g id="edge6" class="edge">
<title>6&#45;&gt;0</title>
<path fill="none" stroke="grey" stroke-width="2" d="M3017.28,-308.19C3118.41,-291.54 3334.19,-243.52 3268.88,-144 3224.75,-76.77 3181.29,-89.83 3102.88,-72 2967.67,-41.26 1961.33,-23.19 1745.54,-19.65"/>
<polygon fill="grey" stroke="grey" stroke-width="2" points="1745.84,-16.15 1735.79,-19.49 1745.73,-23.15 1745.84,-16.15"/>
</g>
<!-- 8 -->
<g id="node9" class="node">
<title>8</title>
<path fill="none" stroke="#567bd8" stroke-width="2" d="M2877.62,-262.25C2877.62,-262.25 2836.12,-262.25 2836.12,-262.25 2830.12,-262.25 2824.12,-256.25 2824.12,-250.25 2824.12,-250.25 2824.12,-238.25 2824.12,-238.25 2824.12,-232.25 2830.12,-226.25 2836.12,-226.25 2836.12,-226.25 2877.62,-226.25 2877.62,-226.25 2883.62,-226.25 2889.62,-232.25 2889.62,-238.25 2889.62,-238.25 2889.62,-250.25 2889.62,-250.25 2889.62,-256.25 2883.62,-262.25 2877.62,-262.25"/>
<text text-anchor="middle" x="2856.88" y="-241.12" font-family="sans" font-size="10.00">filter_bam</text>
</g>
<!-- 6&#45;&gt;8 -->
<g id="edge33" class="edge">
<title>6&#45;&gt;8</title>
<path fill="none" stroke="grey" stroke-width="2" d="M2939.58,-297.4C2926.27,-289.01 2910.19,-278.87 2895.76,-269.77"/>
<polygon fill="grey" stroke="grey" stroke-width="2" points="2898.01,-267.05 2887.68,-264.68 2894.27,-272.97 2898.01,-267.05"/>
</g>
<!-- 22 -->
<g id="node23" class="node">
<title>22</title>
<path fill="none" stroke="#d8c356" stroke-width="2" d="M3007.38,-185.12C3007.38,-185.12 2928.38,-185.12 2928.38,-185.12 2922.38,-185.12 2916.38,-179.12 2916.38,-173.12 2916.38,-173.12 2916.38,-161.12 2916.38,-161.12 2916.38,-155.12 2922.38,-149.12 2928.38,-149.12 2928.38,-149.12 3007.38,-149.12 3007.38,-149.12 3013.38,-149.12 3019.38,-155.12 3019.38,-161.12 3019.38,-161.12 3019.38,-173.12 3019.38,-173.12 3019.38,-179.12 3013.38,-185.12 3007.38,-185.12"/>
<text text-anchor="middle" x="2967.88" y="-164" font-family="sans" font-size="10.00">samtools_flagstat</text>
</g>
<!-- 6&#45;&gt;22 -->
<g id="edge41" class="edge">
<title>6&#45;&gt;22</title>
<path fill="none" stroke="grey" stroke-width="2" d="M2967.88,-297.5C2967.88,-273.09 2967.88,-228.78 2967.88,-198.91"/>
<polygon fill="grey" stroke="grey" stroke-width="2" points="2971.38,-198.96 2967.88,-188.96 2964.38,-198.96 2971.38,-198.96"/>
</g>
<!-- 24 -->
<g id="node25" class="node">
<title>24</title>
<path fill="none" stroke="#d8a456" stroke-width="2" d="M3247.5,-185.12C3247.5,-185.12 3088.25,-185.12 3088.25,-185.12 3082.25,-185.12 3076.25,-179.12 3076.25,-173.12 3076.25,-173.12 3076.25,-161.12 3076.25,-161.12 3076.25,-155.12 3082.25,-149.12 3088.25,-149.12 3088.25,-149.12 3247.5,-149.12 3247.5,-149.12 3253.5,-149.12 3259.5,-155.12 3259.5,-161.12 3259.5,-161.12 3259.5,-173.12 3259.5,-173.12 3259.5,-179.12 3253.5,-185.12 3247.5,-185.12"/>
<text text-anchor="middle" x="3167.88" y="-164" font-family="sans" font-size="10.00">CollectAlignmentSummaryMetrics</text>
</g>
<!-- 6&#45;&gt;24 -->
<g id="edge43" class="edge">
<title>6&#45;&gt;24</title>
<path fill="none" stroke="grey" stroke-width="2" d="M2992,-297.5C3027.21,-271.6 3092.87,-223.3 3133.24,-193.6"/>
<polygon fill="grey" stroke="grey" stroke-width="2" points="3135.25,-196.47 3141.23,-187.73 3131.1,-190.83 3135.25,-196.47"/>
</g>
<!-- 7&#45;&gt;0 -->
<g id="edge7" class="edge">
<title>7&#45;&gt;0</title>
<path fill="none" stroke="grey" stroke-width="2" d="M289.62,-225.32C278.12,-216.33 266.09,-204.35 259.88,-190.25 251.58,-171.44 248.35,-161.02 259.88,-144 284.03,-108.33 310.11,-124.57 349.88,-108 386.99,-92.53 393.68,-80.99 432.88,-72 675.22,-16.42 1474.06,-17.6 1664.06,-18.7"/>
<polygon fill="grey" stroke="grey" stroke-width="2" points="1663.87,-22.2 1673.89,-18.76 1663.91,-15.2 1663.87,-22.2"/>
</g>
<!-- 9 -->
<g id="node10" class="node">
<title>9</title>
<path fill="none" stroke="#56a2d8" stroke-width="2" d="M329.25,-108C329.25,-108 204.5,-108 204.5,-108 198.5,-108 192.5,-102 192.5,-96 192.5,-96 192.5,-84 192.5,-84 192.5,-78 198.5,-72 204.5,-72 204.5,-72 329.25,-72 329.25,-72 335.25,-72 341.25,-78 341.25,-84 341.25,-84 341.25,-96 341.25,-96 341.25,-102 335.25,-108 329.25,-108"/>
<text text-anchor="middle" x="266.88" y="-86.88" font-family="sans" font-size="10.00">coverage_RPKM_correction</text>
</g>
<!-- 7&#45;&gt;9 -->
<g id="edge34" class="edge">
<title>7&#45;&gt;9</title>
<path fill="none" stroke="grey" stroke-width="2" d="M284.35,-233.26C263.81,-225.22 239.18,-211.65 226.88,-190.25 216.63,-172.43 220.35,-163.49 226.88,-144 229.86,-135.08 235.01,-126.47 240.63,-118.87"/>
<polygon fill="grey" stroke="grey" stroke-width="2" points="243.24,-121.2 246.82,-111.23 237.8,-116.8 243.24,-121.2"/>
</g>
<!-- 17 -->
<g id="node18" class="node">
<title>17</title>
<path fill="none" stroke="#56d87b" stroke-width="2" d="M354.38,-185.12C354.38,-185.12 281.38,-185.12 281.38,-185.12 275.38,-185.12 269.38,-179.12 269.38,-173.12 269.38,-173.12 269.38,-161.12 269.38,-161.12 269.38,-155.12 275.38,-149.12 281.38,-149.12 281.38,-149.12 354.38,-149.12 354.38,-149.12 360.38,-149.12 366.38,-155.12 366.38,-161.12 366.38,-161.12 366.38,-173.12 366.38,-173.12 366.38,-179.12 360.38,-185.12 354.38,-185.12"/>
<text text-anchor="middle" x="317.88" y="-164" font-family="sans" font-size="10.00">fragment_length</text>
</g>
<!-- 7&#45;&gt;17 -->
<g id="edge36" class="edge">
<title>7&#45;&gt;17</title>
<path fill="none" stroke="grey" stroke-width="2" d="M317.88,-225.45C317.88,-217.55 317.88,-208.03 317.88,-199.03"/>
<polygon fill="grey" stroke="grey" stroke-width="2" points="321.38,-199.09 317.88,-189.09 314.38,-199.09 321.38,-199.09"/>
</g>
<!-- 19 -->
<g id="node20" class="node">
<title>19</title>
<path fill="none" stroke="#9fd856" stroke-width="2" d="M441.12,-185.12C441.12,-185.12 396.62,-185.12 396.62,-185.12 390.62,-185.12 384.62,-179.12 384.62,-173.12 384.62,-173.12 384.62,-161.12 384.62,-161.12 384.62,-155.12 390.62,-149.12 396.62,-149.12 396.62,-149.12 441.12,-149.12 441.12,-149.12 447.12,-149.12 453.12,-155.12 453.12,-161.12 453.12,-161.12 453.12,-173.12 453.12,-173.12 453.12,-179.12 447.12,-185.12 441.12,-185.12"/>
<text text-anchor="middle" x="418.88" y="-164" font-family="sans" font-size="10.00">insert_size</text>
</g>
<!-- 7&#45;&gt;19 -->
<g id="edge38" class="edge">
<title>7&#45;&gt;19</title>
<path fill="none" stroke="grey" stroke-width="2" d="M342.07,-225.26C354.81,-215.78 370.65,-203.99 384.63,-193.59"/>
<polygon fill="grey" stroke="grey" stroke-width="2" points="386.52,-196.56 392.45,-187.78 382.34,-190.94 386.52,-196.56"/>
</g>
<!-- 25 -->
<g id="node26" class="node">
<title>25</title>
<path fill="none" stroke="#56d8c9" stroke-width="2" d="M546.5,-185.12C546.5,-185.12 483.25,-185.12 483.25,-185.12 477.25,-185.12 471.25,-179.12 471.25,-173.12 471.25,-173.12 471.25,-161.12 471.25,-161.12 471.25,-155.12 477.25,-149.12 483.25,-149.12 483.25,-149.12 546.5,-149.12 546.5,-149.12 552.5,-149.12 558.5,-155.12 558.5,-161.12 558.5,-161.12 558.5,-173.12 558.5,-173.12 558.5,-179.12 552.5,-185.12 546.5,-185.12"/>
<text text-anchor="middle" x="514.88" y="-164" font-family="sans" font-size="10.00">plotFingerprint</text>
</g>
<!-- 7&#45;&gt;25 -->
<g id="edge44" class="edge">
<title>7&#45;&gt;25</title>
<path fill="none" stroke="grey" stroke-width="2" d="M351.49,-231.34C378.31,-221.73 417.09,-207.62 460.4,-190.75"/>
<polygon fill="grey" stroke="grey" stroke-width="2" points="461.56,-194.05 469.6,-187.14 459.01,-187.53 461.56,-194.05"/>
</g>
<!-- 8&#45;&gt;0 -->
<g id="edge8" class="edge">
<title>8&#45;&gt;0</title>
<path fill="none" stroke="grey" stroke-width="2" d="M2890.32,-243.83C2930.67,-242.5 2997.05,-233.36 3028.88,-190.25 3061.66,-145.84 3037.55,-101.47 2990.88,-72 2937.03,-38 1959.07,-22.52 1745.75,-19.54"/>
<polygon fill="grey" stroke="grey" stroke-width="2" points="1745.89,-16.05 1735.85,-19.41 1745.8,-23.04 1745.89,-16.05"/>
</g>
<!-- 10 -->
<g id="node11" class="node">
<title>10</title>
<path fill="none" stroke="#56a2d8" stroke-width="2" d="M2950.25,-108C2950.25,-108 2825.5,-108 2825.5,-108 2819.5,-108 2813.5,-102 2813.5,-96 2813.5,-96 2813.5,-84 2813.5,-84 2813.5,-78 2819.5,-72 2825.5,-72 2825.5,-72 2950.25,-72 2950.25,-72 2956.25,-72 2962.25,-78 2962.25,-84 2962.25,-84 2962.25,-96 2962.25,-96 2962.25,-102 2956.25,-108 2950.25,-108"/>
<text text-anchor="middle" x="2887.88" y="-86.88" font-family="sans" font-size="10.00">coverage_RPKM_correction</text>
</g>
<!-- 8&#45;&gt;10 -->
<g id="edge35" class="edge">
<title>8&#45;&gt;10</title>
<path fill="none" stroke="grey" stroke-width="2" d="M2861.02,-225.62C2863.41,-215.32 2866.41,-202.07 2868.88,-190.25 2873.66,-167.34 2878.62,-141.35 2882.27,-121.72"/>
<polygon fill="grey" stroke="grey" stroke-width="2" points="2885.7,-122.41 2884.07,-111.94 2878.82,-121.14 2885.7,-122.41"/>
</g>
<!-- 18 -->
<g id="node19" class="node">
<title>18</title>
<path fill="none" stroke="#56d87b" stroke-width="2" d="M2723.38,-185.12C2723.38,-185.12 2650.38,-185.12 2650.38,-185.12 2644.38,-185.12 2638.38,-179.12 2638.38,-173.12 2638.38,-173.12 2638.38,-161.12 2638.38,-161.12 2638.38,-155.12 2644.38,-149.12 2650.38,-149.12 2650.38,-149.12 2723.38,-149.12 2723.38,-149.12 2729.38,-149.12 2735.38,-155.12 2735.38,-161.12 2735.38,-161.12 2735.38,-173.12 2735.38,-173.12 2735.38,-179.12 2729.38,-185.12 2723.38,-185.12"/>
<text text-anchor="middle" x="2686.88" y="-164" font-family="sans" font-size="10.00">fragment_length</text>
</g>
<!-- 8&#45;&gt;18 -->
<g id="edge37" class="edge">
<title>8&#45;&gt;18</title>
<path fill="none" stroke="grey" stroke-width="2" d="M2823.29,-228.41C2799.35,-217.83 2766.7,-203.4 2739.34,-191.31"/>
<polygon fill="grey" stroke="grey" stroke-width="2" points="2740.92,-188.18 2730.36,-187.34 2738.09,-194.58 2740.92,-188.18"/>
</g>
<!-- 20 -->
<g id="node21" class="node">
<title>20</title>
<path fill="none" stroke="#9fd856" stroke-width="2" d="M2848.12,-185.12C2848.12,-185.12 2803.62,-185.12 2803.62,-185.12 2797.62,-185.12 2791.62,-179.12 2791.62,-173.12 2791.62,-173.12 2791.62,-161.12 2791.62,-161.12 2791.62,-155.12 2797.62,-149.12 2803.62,-149.12 2803.62,-149.12 2848.12,-149.12 2848.12,-149.12 2854.12,-149.12 2860.12,-155.12 2860.12,-161.12 2860.12,-161.12 2860.12,-173.12 2860.12,-173.12 2860.12,-179.12 2854.12,-185.12 2848.12,-185.12"/>
<text text-anchor="middle" x="2825.88" y="-164" font-family="sans" font-size="10.00">insert_size</text>
</g>
<!-- 8&#45;&gt;20 -->
<g id="edge39" class="edge">
<title>8&#45;&gt;20</title>
<path fill="none" stroke="grey" stroke-width="2" d="M2849.53,-225.45C2846.16,-217.27 2842.06,-207.35 2838.24,-198.08"/>
<polygon fill="grey" stroke="grey" stroke-width="2" points="2841.48,-196.77 2834.43,-188.86 2835.01,-199.44 2841.48,-196.77"/>
</g>
<!-- 26 -->
<g id="node27" class="node">
<title>26</title>
<path fill="none" stroke="#56d8c9" stroke-width="2" d="M2608.5,-185.12C2608.5,-185.12 2545.25,-185.12 2545.25,-185.12 2539.25,-185.12 2533.25,-179.12 2533.25,-173.12 2533.25,-173.12 2533.25,-161.12 2533.25,-161.12 2533.25,-155.12 2539.25,-149.12 2545.25,-149.12 2545.25,-149.12 2608.5,-149.12 2608.5,-149.12 2614.5,-149.12 2620.5,-155.12 2620.5,-161.12 2620.5,-161.12 2620.5,-173.12 2620.5,-173.12 2620.5,-179.12 2614.5,-185.12 2608.5,-185.12"/>
<text text-anchor="middle" x="2576.88" y="-164" font-family="sans" font-size="10.00">plotFingerprint</text>
</g>
<!-- 8&#45;&gt;26 -->
<g id="edge45" class="edge">
<title>8&#45;&gt;26</title>
<path fill="none" stroke="grey" stroke-width="2" d="M2823.32,-237.23C2780.87,-229.22 2705.43,-213.7 2630.09,-189.95"/>
<polygon fill="grey" stroke="grey" stroke-width="2" points="2631.47,-186.72 2620.88,-187 2629.33,-193.39 2631.47,-186.72"/>
</g>
<!-- 9&#45;&gt;0 -->
<g id="edge9" class="edge">
<title>9&#45;&gt;0</title>
<path fill="none" stroke="grey" stroke-width="2" d="M342.13,-73.69C346.43,-73.05 350.7,-72.48 354.88,-72 617.97,-41.6 1467.44,-23.59 1664.01,-19.77"/>
<polygon fill="grey" stroke="grey" stroke-width="2" points="1664.06,-23.27 1673.99,-19.58 1663.92,-16.27 1664.06,-23.27"/>
</g>
<!-- 10&#45;&gt;0 -->
<g id="edge10" class="edge">
<title>10&#45;&gt;0</title>
<path fill="none" stroke="grey" stroke-width="2" d="M2812.62,-73.73C2808.32,-73.09 2804.05,-72.5 2799.88,-72 2390.27,-22.78 1889.27,-18.91 1745.3,-18.88"/>
<polygon fill="grey" stroke="grey" stroke-width="2" points="1745.52,-15.38 1735.53,-18.89 1745.53,-22.38 1745.52,-15.38"/>
</g>
<!-- 11 -->
<g id="node12" class="node">
<title>11</title>
<path fill="none" stroke="#c6d856" stroke-width="2" stroke-dasharray="5,2" d="M1134.75,-190.25C1134.75,-190.25 911,-190.25 911,-190.25 905,-190.25 899,-184.25 899,-178.25 899,-178.25 899,-156 899,-156 899,-150 905,-144 911,-144 911,-144 1134.75,-144 1134.75,-144 1140.75,-144 1146.75,-150 1146.75,-156 1146.75,-156 1146.75,-178.25 1146.75,-178.25 1146.75,-184.25 1140.75,-190.25 1134.75,-190.25"/>
<text text-anchor="middle" x="1022.88" y="-176.75" font-family="sans" font-size="10.00">run_fastqc</text>
<text text-anchor="middle" x="1022.88" y="-164" font-family="sans" font-size="10.00">end: 1</text>
<text text-anchor="middle" x="1022.88" y="-151.25" font-family="sans" font-size="10.00">sample: CUTnTag_SPT5_TimeCourse_2&#45;4h_rep1</text>
</g>
<!-- 11&#45;&gt;0 -->
<g id="edge11" class="edge">
<title>11&#45;&gt;0</title>
<path fill="none" stroke="grey" stroke-width="2" d="M1128.03,-143.04C1215.49,-123.88 1343.24,-95.99 1454.88,-72 1528.78,-56.11 1615.05,-37.9 1664.49,-27.49"/>
<polygon fill="grey" stroke="grey" stroke-width="2" points="1665.09,-30.94 1674.16,-25.45 1663.65,-24.09 1665.09,-30.94"/>
</g>
<!-- 27 -->
<g id="node28" class="node">
<title>27</title>
<path fill="none" stroke="#56d8a2" stroke-width="2" d="M1731.25,-108C1731.25,-108 1678.5,-108 1678.5,-108 1672.5,-108 1666.5,-102 1666.5,-96 1666.5,-96 1666.5,-84 1666.5,-84 1666.5,-78 1672.5,-72 1678.5,-72 1678.5,-72 1731.25,-72 1731.25,-72 1737.25,-72 1743.25,-78 1743.25,-84 1743.25,-84 1743.25,-96 1743.25,-96 1743.25,-102 1737.25,-108 1731.25,-108"/>
<text text-anchor="middle" x="1704.88" y="-86.88" font-family="sans" font-size="10.00">run_multiQC</text>
</g>
<!-- 11&#45;&gt;27 -->
<g id="edge46" class="edge">
<title>11&#45;&gt;27</title>
<path fill="none" stroke="grey" stroke-width="2" d="M1147.44,-145.14C1150.27,-144.75 1153.09,-144.37 1155.88,-144 1337.91,-120.1 1555.22,-102.27 1652.86,-94.83"/>
<polygon fill="grey" stroke="grey" stroke-width="2" points="1653.1,-98.32 1662.81,-94.07 1652.58,-91.34 1653.1,-98.32"/>
</g>
<!-- 12 -->
<g id="node13" class="node">
<title>12</title>
<path fill="none" stroke="#c6d856" stroke-width="2" stroke-dasharray="5,2" d="M1400.75,-190.25C1400.75,-190.25 1177,-190.25 1177,-190.25 1171,-190.25 1165,-184.25 1165,-178.25 1165,-178.25 1165,-156 1165,-156 1165,-150 1171,-144 1177,-144 1177,-144 1400.75,-144 1400.75,-144 1406.75,-144 1412.75,-150 1412.75,-156 1412.75,-156 1412.75,-178.25 1412.75,-178.25 1412.75,-184.25 1406.75,-190.25 1400.75,-190.25"/>
<text text-anchor="middle" x="1288.88" y="-176.75" font-family="sans" font-size="10.00">run_fastqc</text>
<text text-anchor="middle" x="1288.88" y="-164" font-family="sans" font-size="10.00">end: 2</text>
<text text-anchor="middle" x="1288.88" y="-151.25" font-family="sans" font-size="10.00">sample: CUTnTag_SPT5_TimeCourse_2&#45;4h_rep1</text>
</g>
<!-- 12&#45;&gt;0 -->
<g id="edge12" class="edge">
<title>12&#45;&gt;0</title>
<path fill="none" stroke="grey" stroke-width="2" d="M1353.88,-143.14C1440.97,-112.34 1592.89,-58.61 1664.86,-33.15"/>
<polygon fill="grey" stroke="grey" stroke-width="2" points="1665.82,-36.53 1674.08,-29.89 1663.49,-29.93 1665.82,-36.53"/>
</g>
<!-- 12&#45;&gt;27 -->
<g id="edge47" class="edge">
<title>12&#45;&gt;27</title>
<path fill="none" stroke="grey" stroke-width="2" d="M1413.69,-143.59C1493.79,-129.12 1593.59,-111.1 1653.11,-100.35"/>
<polygon fill="grey" stroke="grey" stroke-width="2" points="1653.7,-103.8 1662.92,-98.58 1652.46,-96.91 1653.7,-103.8"/>
</g>
<!-- 13 -->
<g id="node14" class="node">
<title>13</title>
<path fill="none" stroke="#c6d856" stroke-width="2" stroke-dasharray="5,2" d="M1666.75,-190.25C1666.75,-190.25 1443,-190.25 1443,-190.25 1437,-190.25 1431,-184.25 1431,-178.25 1431,-178.25 1431,-156 1431,-156 1431,-150 1437,-144 1443,-144 1443,-144 1666.75,-144 1666.75,-144 1672.75,-144 1678.75,-150 1678.75,-156 1678.75,-156 1678.75,-178.25 1678.75,-178.25 1678.75,-184.25 1672.75,-190.25 1666.75,-190.25"/>
<text text-anchor="middle" x="1554.88" y="-176.75" font-family="sans" font-size="10.00">run_fastqc</text>
<text text-anchor="middle" x="1554.88" y="-164" font-family="sans" font-size="10.00">end: 1</text>
<text text-anchor="middle" x="1554.88" y="-151.25" font-family="sans" font-size="10.00">sample: CUTnTag_SPT5_TimeCourse_2&#45;4h_rep2</text>
</g>
<!-- 13&#45;&gt;0 -->
<g id="edge13" class="edge">
<title>13&#45;&gt;0</title>
<path fill="none" stroke="grey" stroke-width="2" d="M1578.31,-143.14C1605.26,-116.71 1649.42,-73.39 1677.81,-45.55"/>
<polygon fill="grey" stroke="grey" stroke-width="2" points="1679.93,-48.37 1684.62,-38.87 1675.03,-43.37 1679.93,-48.37"/>
</g>
<!-- 13&#45;&gt;27 -->
<g id="edge48" class="edge">
<title>13&#45;&gt;27</title>
<path fill="none" stroke="grey" stroke-width="2" d="M1600.69,-143.18C1618.79,-134.12 1639.56,-123.71 1657.78,-114.59"/>
<polygon fill="grey" stroke="grey" stroke-width="2" points="1659.25,-117.77 1666.62,-110.16 1656.11,-111.51 1659.25,-117.77"/>
</g>
<!-- 14 -->
<g id="node15" class="node">
<title>14</title>
<path fill="none" stroke="#c6d856" stroke-width="2" stroke-dasharray="5,2" d="M1932.75,-190.25C1932.75,-190.25 1709,-190.25 1709,-190.25 1703,-190.25 1697,-184.25 1697,-178.25 1697,-178.25 1697,-156 1697,-156 1697,-150 1703,-144 1709,-144 1709,-144 1932.75,-144 1932.75,-144 1938.75,-144 1944.75,-150 1944.75,-156 1944.75,-156 1944.75,-178.25 1944.75,-178.25 1944.75,-184.25 1938.75,-190.25 1932.75,-190.25"/>
<text text-anchor="middle" x="1820.88" y="-176.75" font-family="sans" font-size="10.00">run_fastqc</text>
<text text-anchor="middle" x="1820.88" y="-164" font-family="sans" font-size="10.00">end: 2</text>
<text text-anchor="middle" x="1820.88" y="-151.25" font-family="sans" font-size="10.00">sample: CUTnTag_SPT5_TimeCourse_2&#45;4h_rep2</text>
</g>
<!-- 14&#45;&gt;0 -->
<g id="edge14" class="edge">
<title>14&#45;&gt;0</title>
<path fill="none" stroke="grey" stroke-width="2" d="M1805,-143.24C1791.37,-123.9 1770.96,-95.65 1751.88,-72 1745.03,-63.52 1737.3,-54.56 1730.11,-46.47"/>
<polygon fill="grey" stroke="grey" stroke-width="2" points="1732.71,-44.14 1723.42,-39.04 1727.51,-48.82 1732.71,-44.14"/>
</g>
<!-- 14&#45;&gt;27 -->
<g id="edge49" class="edge">
<title>14&#45;&gt;27</title>
<path fill="none" stroke="grey" stroke-width="2" d="M1785.44,-143.18C1771.98,-134.46 1756.6,-124.5 1742.91,-115.63"/>
<polygon fill="grey" stroke="grey" stroke-width="2" points="1745.2,-112.95 1734.91,-110.45 1741.4,-118.82 1745.2,-112.95"/>
</g>
<!-- 15 -->
<g id="node16" class="node">
<title>15</title>
<path fill="none" stroke="#d85656" stroke-width="2" d="M2198.75,-185.12C2198.75,-185.12 1975,-185.12 1975,-185.12 1969,-185.12 1963,-179.12 1963,-173.12 1963,-173.12 1963,-161.12 1963,-161.12 1963,-155.12 1969,-149.12 1975,-149.12 1975,-149.12 2198.75,-149.12 2198.75,-149.12 2204.75,-149.12 2210.75,-155.12 2210.75,-161.12 2210.75,-161.12 2210.75,-173.12 2210.75,-173.12 2210.75,-179.12 2204.75,-185.12 2198.75,-185.12"/>
<text text-anchor="middle" x="2086.88" y="-170.38" font-family="sans" font-size="10.00">fastq_screen</text>
<text text-anchor="middle" x="2086.88" y="-157.62" font-family="sans" font-size="10.00">sample: CUTnTag_SPT5_TimeCourse_2&#45;4h_rep1</text>
</g>
<!-- 15&#45;&gt;0 -->
<g id="edge15" class="edge">
<title>15&#45;&gt;0</title>
<path fill="none" stroke="grey" stroke-width="2" d="M2040.42,-148.23C1964.64,-119.05 1815.75,-61.7 1744.59,-34.3"/>
<polygon fill="grey" stroke="grey" stroke-width="2" points="1746.06,-31.11 1735.47,-30.78 1743.54,-37.64 1746.06,-31.11"/>
</g>
<!-- 15&#45;&gt;27 -->
<g id="edge50" class="edge">
<title>15&#45;&gt;27</title>
<path fill="none" stroke="grey" stroke-width="2" d="M1995.38,-148.13C1920.73,-133.45 1817.95,-113.24 1756.77,-101.21"/>
<polygon fill="grey" stroke="grey" stroke-width="2" points="1757.46,-97.78 1746.98,-99.28 1756.11,-104.64 1757.46,-97.78"/>
</g>
<!-- 16 -->
<g id="node17" class="node">
<title>16</title>
<path fill="none" stroke="#d85656" stroke-width="2" d="M2464.75,-185.12C2464.75,-185.12 2241,-185.12 2241,-185.12 2235,-185.12 2229,-179.12 2229,-173.12 2229,-173.12 2229,-161.12 2229,-161.12 2229,-155.12 2235,-149.12 2241,-149.12 2241,-149.12 2464.75,-149.12 2464.75,-149.12 2470.75,-149.12 2476.75,-155.12 2476.75,-161.12 2476.75,-161.12 2476.75,-173.12 2476.75,-173.12 2476.75,-179.12 2470.75,-185.12 2464.75,-185.12"/>
<text text-anchor="middle" x="2352.88" y="-170.38" font-family="sans" font-size="10.00">fastq_screen</text>
<text text-anchor="middle" x="2352.88" y="-157.62" font-family="sans" font-size="10.00">sample: CUTnTag_SPT5_TimeCourse_2&#45;4h_rep2</text>
</g>
<!-- 16&#45;&gt;0 -->
<g id="edge16" class="edge">
<title>16&#45;&gt;0</title>
<path fill="none" stroke="grey" stroke-width="2" d="M2273.74,-148.16C2134.52,-116.55 1850.55,-52.08 1745.3,-28.18"/>
<polygon fill="grey" stroke="grey" stroke-width="2" points="1746.28,-24.81 1735.76,-26.01 1744.73,-31.64 1746.28,-24.81"/>
</g>
<!-- 16&#45;&gt;27 -->
<g id="edge51" class="edge">
<title>16&#45;&gt;27</title>
<path fill="none" stroke="grey" stroke-width="2" d="M2248.78,-148.17C2239.02,-146.68 2229.27,-145.26 2219.88,-144 2051.13,-121.3 1850.12,-103.18 1757,-95.28"/>
<polygon fill="grey" stroke="grey" stroke-width="2" points="1757.33,-91.8 1747.08,-94.45 1756.75,-98.77 1757.33,-91.8"/>
</g>
<!-- 17&#45;&gt;0 -->
<g id="edge17" class="edge">
<title>17&#45;&gt;0</title>
<path fill="none" stroke="grey" stroke-width="2" d="M350.37,-148.31C393.23,-125.83 471.7,-88.15 543.88,-72 763.85,-22.78 1484.21,-19.1 1663.96,-18.97"/>
<polygon fill="grey" stroke="grey" stroke-width="2" points="1663.86,-22.47 1673.86,-18.96 1663.86,-15.47 1663.86,-22.47"/>
</g>
<!-- 17&#45;&gt;27 -->
<g id="edge52" class="edge">
<title>17&#45;&gt;27</title>
<path fill="none" stroke="grey" stroke-width="2" d="M360.17,-148.2C365.38,-146.53 370.7,-145.06 375.88,-144 626.4,-92.66 1438.33,-90.48 1652.62,-90.83"/>
<polygon fill="grey" stroke="grey" stroke-width="2" points="1652.54,-94.33 1662.54,-90.85 1652.55,-87.33 1652.54,-94.33"/>
</g>
<!-- 18&#45;&gt;0 -->
<g id="edge18" class="edge">
<title>18&#45;&gt;0</title>
<path fill="none" stroke="grey" stroke-width="2" d="M2668.16,-148.38C2643.2,-125.98 2596.6,-88.38 2548.88,-72 2397.55,-20.06 1892.16,-18.14 1745.25,-18.72"/>
<polygon fill="grey" stroke="grey" stroke-width="2" points="1745.57,-15.22 1735.59,-18.77 1745.6,-22.22 1745.57,-15.22"/>
</g>
<!-- 18&#45;&gt;27 -->
<g id="edge53" class="edge">
<title>18&#45;&gt;27</title>
<path fill="none" stroke="grey" stroke-width="2" d="M2645,-148.18C2639.97,-146.53 2634.85,-145.08 2629.88,-144 2461.43,-107.44 1926.7,-94.95 1757.05,-91.85"/>
<polygon fill="grey" stroke="grey" stroke-width="2" points="1757.17,-88.35 1747.11,-91.67 1757.05,-95.35 1757.17,-88.35"/>
</g>
<!-- 19&#45;&gt;0 -->
<g id="edge19" class="edge">
<title>19&#45;&gt;0</title>
<path fill="none" stroke="grey" stroke-width="2" d="M452.46,-148.26C455.61,-146.76 458.79,-145.32 461.88,-144 552.65,-105.33 575,-90.71 671.88,-72 867.17,-34.28 1497.97,-22.16 1664.34,-19.57"/>
<polygon fill="grey" stroke="grey" stroke-width="2" points="1664.28,-23.07 1674.22,-19.42 1664.17,-16.07 1664.28,-23.07"/>
</g>
<!-- 19&#45;&gt;27 -->
<g id="edge54" class="edge">
<title>19&#45;&gt;27</title>
<path fill="none" stroke="grey" stroke-width="2" d="M449.71,-148.29C453.7,-146.57 457.82,-145.07 461.88,-144 578.06,-113.23 1431.84,-95.9 1652.79,-91.9"/>
<polygon fill="grey" stroke="grey" stroke-width="2" points="1652.56,-95.41 1662.5,-91.73 1652.44,-88.41 1652.56,-95.41"/>
</g>
<!-- 20&#45;&gt;0 -->
<g id="edge20" class="edge">
<title>20&#45;&gt;0</title>
<path fill="none" stroke="grey" stroke-width="2" d="M2819.45,-148.14C2810.43,-125.84 2791.68,-88.74 2761.88,-72 2672.11,-21.57 1929.19,-18.82 1745.72,-18.92"/>
<polygon fill="grey" stroke="grey" stroke-width="2" points="1745.8,-15.41 1735.8,-18.92 1745.81,-22.41 1745.8,-15.41"/>
</g>
<!-- 20&#45;&gt;27 -->
<g id="edge55" class="edge">
<title>20&#45;&gt;27</title>
<path fill="none" stroke="grey" stroke-width="2" d="M2790.75,-154.75C2776.64,-150.66 2760.13,-146.44 2744.88,-144 2551.34,-113.01 1939.59,-96.5 1756.89,-92.17"/>
<polygon fill="grey" stroke="grey" stroke-width="2" points="1757.1,-88.67 1747.02,-91.94 1756.93,-95.67 1757.1,-88.67"/>
</g>
<!-- 21&#45;&gt;0 -->
<g id="edge21" class="edge">
<title>21&#45;&gt;0</title>
<path fill="none" stroke="grey" stroke-width="2" d="M674.14,-148.2C678.75,-146.68 683.38,-145.24 687.88,-144 853.96,-98.03 898.11,-95.19 1068.88,-72 1292.72,-41.61 1563.41,-26.01 1664.36,-20.92"/>
<polygon fill="grey" stroke="grey" stroke-width="2" points="1664.34,-24.42 1674.16,-20.43 1663.99,-17.43 1664.34,-24.42"/>
</g>
<!-- 21&#45;&gt;27 -->
<g id="edge56" class="edge">
<title>21&#45;&gt;27</title>
<path fill="none" stroke="grey" stroke-width="2" d="M672,-148.17C677.28,-146.52 682.65,-145.07 687.88,-144 875.22,-105.5 1472.27,-94.22 1652.72,-91.65"/>
<polygon fill="grey" stroke="grey" stroke-width="2" points="1652.74,-95.15 1662.69,-91.51 1652.65,-88.15 1652.74,-95.15"/>
</g>
<!-- 22&#45;&gt;0 -->
<g id="edge22" class="edge">
<title>22&#45;&gt;0</title>
<path fill="none" stroke="grey" stroke-width="2" d="M2975.18,-148.19C2982.48,-126.99 2990.11,-92.06 2970.88,-72 2927.48,-26.75 1957.22,-20.06 1745.46,-19.14"/>
<polygon fill="grey" stroke="grey" stroke-width="2" points="1745.66,-15.64 1735.65,-19.1 1745.63,-22.64 1745.66,-15.64"/>
</g>
<!-- 22&#45;&gt;27 -->
<g id="edge57" class="edge">
<title>22&#45;&gt;27</title>
<path fill="none" stroke="grey" stroke-width="2" d="M2915.52,-152.64C2900.55,-149.27 2884.15,-146.04 2868.88,-144 2649.33,-114.7 1953.68,-96.75 1757.08,-92.17"/>
<polygon fill="grey" stroke="grey" stroke-width="2" points="1757.17,-88.67 1747.09,-91.94 1757.01,-95.67 1757.17,-88.67"/>
</g>
<!-- 23&#45;&gt;0 -->
<g id="edge23" class="edge">
<title>23&#45;&gt;0</title>
<path fill="none" stroke="grey" stroke-width="2" d="M869.58,-148.18C876.44,-146.74 883.28,-145.33 889.88,-144 1064.4,-108.95 1107.94,-99.13 1283.88,-72 1423.13,-50.53 1589.31,-31.56 1664.44,-23.33"/>
<polygon fill="grey" stroke="grey" stroke-width="2" points="1664.4,-26.86 1673.96,-22.3 1663.64,-19.9 1664.4,-26.86"/>
</g>
<!-- 23&#45;&gt;27 -->
<g id="edge58" class="edge">
<title>23&#45;&gt;27</title>
<path fill="none" stroke="grey" stroke-width="2" d="M865.03,-148.16C873.38,-146.58 881.79,-145.14 889.88,-144 1175.99,-103.59 1523.04,-93.93 1652.7,-91.67"/>
<polygon fill="grey" stroke="grey" stroke-width="2" points="1652.67,-95.17 1662.61,-91.51 1652.56,-88.17 1652.67,-95.17"/>
</g>
<!-- 24&#45;&gt;0 -->
<g id="edge24" class="edge">
<title>24&#45;&gt;0</title>
<path fill="none" stroke="grey" stroke-width="2" d="M3154.44,-148.26C3136.29,-125.72 3101.6,-87.99 3061.88,-72 2937.21,-21.83 1958.26,-18.99 1745.57,-18.96"/>
<polygon fill="grey" stroke="grey" stroke-width="2" points="1745.71,-15.46 1735.71,-18.96 1745.71,-22.46 1745.71,-15.46"/>
</g>
<!-- 24&#45;&gt;27 -->
<g id="edge59" class="edge">
<title>24&#45;&gt;27</title>
<path fill="none" stroke="grey" stroke-width="2" d="M3075.36,-149.84C3059.88,-147.57 3043.95,-145.5 3028.88,-144 2535.56,-95.04 1934.59,-90.95 1756.77,-90.88"/>
<polygon fill="grey" stroke="grey" stroke-width="2" points="1757.01,-87.38 1747.01,-90.88 1757.01,-94.38 1757.01,-87.38"/>
</g>
<!-- 25&#45;&gt;0 -->
<g id="edge25" class="edge">
<title>25&#45;&gt;0</title>
<path fill="none" stroke="grey" stroke-width="2" d="M555.54,-148.19C559.35,-146.7 563.17,-145.28 566.88,-144 683.04,-103.84 712.58,-91.83 833.88,-72 1150.55,-20.22 1539.46,-17.84 1664.28,-18.56"/>
<polygon fill="grey" stroke="grey" stroke-width="2" points="1664.14,-22.06 1674.16,-18.63 1664.19,-15.06 1664.14,-22.06"/>
</g>
<!-- 25&#45;&gt;27 -->
<g id="edge60" class="edge">
<title>25&#45;&gt;27</title>
<path fill="none" stroke="grey" stroke-width="2" d="M552.7,-148.22C557.39,-146.54 562.19,-145.07 566.88,-144 777.65,-95.89 1458.33,-91.3 1652.64,-90.98"/>
<polygon fill="grey" stroke="grey" stroke-width="2" points="1652.49,-94.48 1662.49,-90.97 1652.48,-87.48 1652.49,-94.48"/>
</g>
<!-- 26&#45;&gt;0 -->
<g id="edge26" class="edge">
<title>26&#45;&gt;0</title>
<path fill="none" stroke="grey" stroke-width="2" d="M2571.51,-148.26C2563.81,-126.09 2547.33,-89.12 2518.88,-72 2452.25,-31.9 1900.85,-21.6 1745.48,-19.48"/>
<polygon fill="grey" stroke="grey" stroke-width="2" points="1745.59,-15.98 1735.55,-19.35 1745.5,-22.98 1745.59,-15.98"/>
</g>
<!-- 26&#45;&gt;27 -->
<g id="edge61" class="edge">
<title>26&#45;&gt;27</title>
<path fill="none" stroke="grey" stroke-width="2" d="M2532.28,-153.67C2517.61,-150.01 2501.14,-146.36 2485.88,-144 2213.74,-102 1883.14,-93.28 1757.09,-91.47"/>
<polygon fill="grey" stroke="grey" stroke-width="2" points="1757.21,-87.97 1747.17,-91.34 1757.12,-94.97 1757.21,-87.97"/>
</g>
<!-- 27&#45;&gt;0 -->
<g id="edge27" class="edge">
<title>27&#45;&gt;0</title>
<path fill="none" stroke="grey" stroke-width="2" d="M1704.88,-71.34C1704.88,-64.75 1704.88,-57.08 1704.88,-49.67"/>
<polygon fill="grey" stroke="grey" stroke-width="2" points="1708.38,-49.93 1704.88,-39.93 1701.38,-49.93 1708.38,-49.93"/>
</g>
</g>
</svg>
