<?xml version="1.0" encoding="UTF-8" standalone="no"?>
<!DOCTYPE svg PUBLIC "-//W3C//DTD SVG 1.1//EN"
 "http://www.w3.org/Graphics/SVG/1.1/DTD/svg11.dtd">
<!-- Generated by graphviz version 11.0.0 (20240519.1550)
 -->
<!-- Title: snakemake_dag Pages: 1 -->
<svg width="1235pt" height="260pt"
 viewBox="0.00 0.00 1234.50 260.00" xmlns="http://www.w3.org/2000/svg" xmlns:xlink="http://www.w3.org/1999/xlink">
<g id="graph0" class="graph" transform="scale(1 1) rotate(0) translate(4 256)">
<title>snakemake_dag</title>
<polygon fill="white" stroke="none" points="-4,4 -4,-256 1230.5,-256 1230.5,4 -4,4"/>
<!-- 0 -->
<g id="node1" class="node">
<title>0</title>
<path fill="none" stroke="#d85656" stroke-width="2" d="M572.12,-36C572.12,-36 542.12,-36 542.12,-36 536.12,-36 530.12,-30 530.12,-24 530.12,-24 530.12,-12 530.12,-12 530.12,-6 536.12,0 542.12,0 542.12,0 572.12,0 572.12,0 578.12,0 584.12,-6 584.12,-12 584.12,-12 584.12,-24 584.12,-24 584.12,-30 578.12,-36 572.12,-36"/>
<text text-anchor="middle" x="557.12" y="-14.88" font-family="sans" font-size="10.00">all</text>
</g>
<!-- 1 -->
<g id="node2" class="node">
<title>1</title>
<path fill="none" stroke="#56c1d8" stroke-width="2" d="M96.25,-252C96.25,-252 12,-252 12,-252 6,-252 0,-246 0,-240 0,-240 0,-228 0,-228 0,-222 6,-216 12,-216 12,-216 96.25,-216 96.25,-216 102.25,-216 108.25,-222 108.25,-228 108.25,-228 108.25,-240 108.25,-240 108.25,-246 102.25,-252 96.25,-252"/>
<text text-anchor="middle" x="54.12" y="-237.25" font-family="sans" font-size="10.00">RSEM_expression</text>
<text text-anchor="middle" x="54.12" y="-224.5" font-family="sans" font-size="10.00">sample: Dark_rep1</text>
</g>
<!-- 1&#45;&gt;0 -->
<g id="edge1" class="edge">
<title>1&#45;&gt;0</title>
<path fill="none" stroke="grey" stroke-width="2" d="M52.37,-215.24C50.13,-181.62 50.68,-108.81 92.12,-72 123.62,-44.03 409.23,-26.59 516.59,-20.98"/>
<polygon fill="grey" stroke="grey" stroke-width="2" points="516.52,-24.49 526.33,-20.48 516.16,-17.5 516.52,-24.49"/>
</g>
<!-- 5 -->
<g id="node6" class="node">
<title>5</title>
<path fill="none" stroke="#88d856" stroke-width="2" d="M174.38,-180C174.38,-180 111.88,-180 111.88,-180 105.88,-180 99.88,-174 99.88,-168 99.88,-168 99.88,-156 99.88,-156 99.88,-150 105.88,-144 111.88,-144 111.88,-144 174.38,-144 174.38,-144 180.38,-144 186.38,-150 186.38,-156 186.38,-156 186.38,-168 186.38,-168 186.38,-174 180.38,-180 174.38,-180"/>
<text text-anchor="middle" x="143.12" y="-158.88" font-family="sans" font-size="10.00">format_counts</text>
</g>
<!-- 1&#45;&gt;5 -->
<g id="edge15" class="edge">
<title>1&#45;&gt;5</title>
<path fill="none" stroke="grey" stroke-width="2" d="M76.58,-215.34C86.83,-207.27 99.17,-197.57 110.43,-188.72"/>
<polygon fill="grey" stroke="grey" stroke-width="2" points="112.29,-191.71 117.98,-182.77 107.96,-186.2 112.29,-191.71"/>
</g>
<!-- 2 -->
<g id="node3" class="node">
<title>2</title>
<path fill="none" stroke="#56c1d8" stroke-width="2" d="M270.25,-252C270.25,-252 186,-252 186,-252 180,-252 174,-246 174,-240 174,-240 174,-228 174,-228 174,-222 180,-216 186,-216 186,-216 270.25,-216 270.25,-216 276.25,-216 282.25,-222 282.25,-228 282.25,-228 282.25,-240 282.25,-240 282.25,-246 276.25,-252 270.25,-252"/>
<text text-anchor="middle" x="228.12" y="-237.25" font-family="sans" font-size="10.00">RSEM_expression</text>
<text text-anchor="middle" x="228.12" y="-224.5" font-family="sans" font-size="10.00">sample: Dark_rep2</text>
</g>
<!-- 2&#45;&gt;0 -->
<g id="edge2" class="edge">
<title>2&#45;&gt;0</title>
<path fill="none" stroke="grey" stroke-width="2" d="M173.12,-226.62C143.56,-220.07 109.51,-206.82 91.12,-180 61.73,-137.11 92.31,-100 136.12,-72 198.62,-32.05 423.31,-22.16 516.34,-19.75"/>
<polygon fill="grey" stroke="grey" stroke-width="2" points="516.39,-23.25 526.31,-19.52 516.23,-16.25 516.39,-23.25"/>
</g>
<!-- 6 -->
<g id="node7" class="node">
<title>6</title>
<path fill="none" stroke="#88d856" stroke-width="2" d="M281.38,-180C281.38,-180 218.88,-180 218.88,-180 212.88,-180 206.88,-174 206.88,-168 206.88,-168 206.88,-156 206.88,-156 206.88,-150 212.88,-144 218.88,-144 218.88,-144 281.38,-144 281.38,-144 287.38,-144 293.38,-150 293.38,-156 293.38,-156 293.38,-168 293.38,-168 293.38,-174 287.38,-180 281.38,-180"/>
<text text-anchor="middle" x="250.12" y="-158.88" font-family="sans" font-size="10.00">format_counts</text>
</g>
<!-- 2&#45;&gt;6 -->
<g id="edge16" class="edge">
<title>2&#45;&gt;6</title>
<path fill="none" stroke="grey" stroke-width="2" d="M233.68,-215.34C235.8,-208.59 238.28,-200.69 240.66,-193.11"/>
<polygon fill="grey" stroke="grey" stroke-width="2" points="243.93,-194.38 243.59,-183.79 237.25,-192.28 243.93,-194.38"/>
</g>
<!-- 3 -->
<g id="node4" class="node">
<title>3</title>
<path fill="none" stroke="#56c1d8" stroke-width="2" d="M503.5,-252C503.5,-252 396.75,-252 396.75,-252 390.75,-252 384.75,-246 384.75,-240 384.75,-240 384.75,-228 384.75,-228 384.75,-222 390.75,-216 396.75,-216 396.75,-216 503.5,-216 503.5,-216 509.5,-216 515.5,-222 515.5,-228 515.5,-228 515.5,-240 515.5,-240 515.5,-246 509.5,-252 503.5,-252"/>
<text text-anchor="middle" x="450.12" y="-237.25" font-family="sans" font-size="10.00">RSEM_expression</text>
<text text-anchor="middle" x="450.12" y="-224.5" font-family="sans" font-size="10.00">sample: BlueLight_rep1</text>
</g>
<!-- 3&#45;&gt;0 -->
<g id="edge3" class="edge">
<title>3&#45;&gt;0</title>
<path fill="none" stroke="grey" stroke-width="2" d="M516.2,-225.1C544.46,-218.08 574.87,-204.86 592.12,-180 619.77,-140.17 595.46,-82.49 575.88,-48.07"/>
<polygon fill="grey" stroke="grey" stroke-width="2" points="578.92,-46.33 570.79,-39.53 572.9,-49.92 578.92,-46.33"/>
</g>
<!-- 7 -->
<g id="node8" class="node">
<title>7</title>
<path fill="none" stroke="#88d856" stroke-width="2" d="M464.38,-180C464.38,-180 401.88,-180 401.88,-180 395.88,-180 389.88,-174 389.88,-168 389.88,-168 389.88,-156 389.88,-156 389.88,-150 395.88,-144 401.88,-144 401.88,-144 464.38,-144 464.38,-144 470.38,-144 476.38,-150 476.38,-156 476.38,-156 476.38,-168 476.38,-168 476.38,-174 470.38,-180 464.38,-180"/>
<text text-anchor="middle" x="433.12" y="-158.88" font-family="sans" font-size="10.00">format_counts</text>
</g>
<!-- 3&#45;&gt;7 -->
<g id="edge17" class="edge">
<title>3&#45;&gt;7</title>
<path fill="none" stroke="grey" stroke-width="2" d="M445.84,-215.34C444.22,-208.67 442.33,-200.89 440.51,-193.39"/>
<polygon fill="grey" stroke="grey" stroke-width="2" points="443.95,-192.73 438.19,-183.84 437.15,-194.39 443.95,-192.73"/>
</g>
<!-- 4 -->
<g id="node5" class="node">
<title>4</title>
<path fill="none" stroke="#56c1d8" stroke-width="2" d="M688.5,-252C688.5,-252 581.75,-252 581.75,-252 575.75,-252 569.75,-246 569.75,-240 569.75,-240 569.75,-228 569.75,-228 569.75,-222 575.75,-216 581.75,-216 581.75,-216 688.5,-216 688.5,-216 694.5,-216 700.5,-222 700.5,-228 700.5,-228 700.5,-240 700.5,-240 700.5,-246 694.5,-252 688.5,-252"/>
<text text-anchor="middle" x="635.12" y="-237.25" font-family="sans" font-size="10.00">RSEM_expression</text>
<text text-anchor="middle" x="635.12" y="-224.5" font-family="sans" font-size="10.00">sample: BlueLight_rep2</text>
</g>
<!-- 4&#45;&gt;0 -->
<g id="edge4" class="edge">
<title>4&#45;&gt;0</title>
<path fill="none" stroke="grey" stroke-width="2" d="M639.02,-215.29C644.88,-184.22 652.85,-118.74 628.12,-72 620.89,-58.33 608.39,-47.22 595.87,-38.77"/>
<polygon fill="grey" stroke="grey" stroke-width="2" points="597.92,-35.92 587.57,-33.63 594.23,-41.87 597.92,-35.92"/>
</g>
<!-- 8 -->
<g id="node9" class="node">
<title>8</title>
<path fill="none" stroke="#88d856" stroke-width="2" d="M571.38,-180C571.38,-180 508.88,-180 508.88,-180 502.88,-180 496.88,-174 496.88,-168 496.88,-168 496.88,-156 496.88,-156 496.88,-150 502.88,-144 508.88,-144 508.88,-144 571.38,-144 571.38,-144 577.38,-144 583.38,-150 583.38,-156 583.38,-156 583.38,-168 583.38,-168 583.38,-174 577.38,-180 571.38,-180"/>
<text text-anchor="middle" x="540.12" y="-158.88" font-family="sans" font-size="10.00">format_counts</text>
</g>
<!-- 4&#45;&gt;8 -->
<g id="edge18" class="edge">
<title>4&#45;&gt;8</title>
<path fill="none" stroke="grey" stroke-width="2" d="M611.15,-215.34C600.1,-207.19 586.77,-197.37 574.66,-188.45"/>
<polygon fill="grey" stroke="grey" stroke-width="2" points="576.98,-185.81 566.86,-182.7 572.83,-191.45 576.98,-185.81"/>
</g>
<!-- 5&#45;&gt;0 -->
<g id="edge5" class="edge">
<title>5&#45;&gt;0</title>
<path fill="none" stroke="grey" stroke-width="2" d="M139.83,-143.24C137.2,-123.04 136.58,-90.49 155.12,-72 205.26,-22.01 424.78,-17.86 516.56,-18.37"/>
<polygon fill="grey" stroke="grey" stroke-width="2" points="516.34,-21.87 526.37,-18.45 516.4,-14.87 516.34,-21.87"/>
</g>
<!-- 9 -->
<g id="node10" class="node">
<title>9</title>
<path fill="none" stroke="#d8bc56" stroke-width="2" d="M498,-108C498,-108 364.25,-108 364.25,-108 358.25,-108 352.25,-102 352.25,-96 352.25,-96 352.25,-84 352.25,-84 352.25,-78 358.25,-72 364.25,-72 364.25,-72 498,-72 498,-72 504,-72 510,-78 510,-84 510,-84 510,-96 510,-96 510,-102 504,-108 498,-108"/>
<text text-anchor="middle" x="431.12" y="-93.25" font-family="sans" font-size="10.00">run_DESeq</text>
<text text-anchor="middle" x="431.12" y="-80.5" font-family="sans" font-size="10.00">contrast: SPT5longLEXY_3&#45;4h</text>
</g>
<!-- 5&#45;&gt;9 -->
<g id="edge19" class="edge">
<title>5&#45;&gt;9</title>
<path fill="none" stroke="grey" stroke-width="2" d="M187.17,-147.06C190.86,-145.99 194.55,-144.96 198.12,-144 244.26,-131.64 296.03,-119.68 339.03,-110.26"/>
<polygon fill="grey" stroke="grey" stroke-width="2" points="339.51,-113.73 348.53,-108.19 338.02,-106.89 339.51,-113.73"/>
</g>
<!-- 10 -->
<g id="node11" class="node">
<title>10</title>
<path fill="none" stroke="#d8bc56" stroke-width="2" d="M321.75,-108C321.75,-108 186.5,-108 186.5,-108 180.5,-108 174.5,-102 174.5,-96 174.5,-96 174.5,-84 174.5,-84 174.5,-78 180.5,-72 186.5,-72 186.5,-72 321.75,-72 321.75,-72 327.75,-72 333.75,-78 333.75,-84 333.75,-84 333.75,-96 333.75,-96 333.75,-102 327.75,-108 321.75,-108"/>
<text text-anchor="middle" x="254.12" y="-93.25" font-family="sans" font-size="10.00">run_DESeq</text>
<text text-anchor="middle" x="254.12" y="-80.5" font-family="sans" font-size="10.00">contrast: SPT5longLEXY_Dark</text>
</g>
<!-- 5&#45;&gt;10 -->
<g id="edge23" class="edge">
<title>5&#45;&gt;10</title>
<path fill="none" stroke="grey" stroke-width="2" d="M171.42,-143.15C184.73,-134.76 200.81,-124.62 215.24,-115.52"/>
<polygon fill="grey" stroke="grey" stroke-width="2" points="216.73,-118.72 223.32,-110.43 212.99,-112.8 216.73,-118.72"/>
</g>
<!-- 6&#45;&gt;0 -->
<g id="edge6" class="edge">
<title>6&#45;&gt;0</title>
<path fill="none" stroke="grey" stroke-width="2" d="M205.99,-144.34C190.18,-135.98 174.07,-124.12 165.12,-108 157.36,-94.01 154.6,-84.05 165.12,-72 188.06,-45.76 421.08,-27.81 516.6,-21.5"/>
<polygon fill="grey" stroke="grey" stroke-width="2" points="516.62,-25.01 526.38,-20.87 516.17,-18.02 516.62,-25.01"/>
</g>
<!-- 6&#45;&gt;9 -->
<g id="edge20" class="edge">
<title>6&#45;&gt;9</title>
<path fill="none" stroke="grey" stroke-width="2" d="M293.94,-144.05C317.69,-134.87 347.36,-123.4 373.02,-113.47"/>
<polygon fill="grey" stroke="grey" stroke-width="2" points="373.98,-116.85 382.05,-109.98 371.46,-110.32 373.98,-116.85"/>
</g>
<!-- 6&#45;&gt;10 -->
<g id="edge24" class="edge">
<title>6&#45;&gt;10</title>
<path fill="none" stroke="grey" stroke-width="2" d="M251.13,-143.34C251.51,-136.75 251.95,-129.08 252.37,-121.67"/>
<polygon fill="grey" stroke="grey" stroke-width="2" points="255.85,-122.11 252.93,-111.92 248.86,-121.71 255.85,-122.11"/>
</g>
<!-- 7&#45;&gt;0 -->
<g id="edge7" class="edge">
<title>7&#45;&gt;0</title>
<path fill="none" stroke="grey" stroke-width="2" d="M472.85,-143.21C488.89,-134.46 506.54,-122.62 519.12,-108 533.68,-91.1 543.36,-67.79 549.31,-49.26"/>
<polygon fill="grey" stroke="grey" stroke-width="2" points="552.66,-50.27 552.13,-39.68 545.95,-48.28 552.66,-50.27"/>
</g>
<!-- 7&#45;&gt;9 -->
<g id="edge21" class="edge">
<title>7&#45;&gt;9</title>
<path fill="none" stroke="grey" stroke-width="2" d="M432.62,-143.34C432.43,-136.75 432.21,-129.08 432,-121.67"/>
<polygon fill="grey" stroke="grey" stroke-width="2" points="435.51,-121.82 431.72,-111.93 428.51,-122.02 435.51,-121.82"/>
</g>
<!-- 7&#45;&gt;10 -->
<g id="edge25" class="edge">
<title>7&#45;&gt;10</title>
<path fill="none" stroke="grey" stroke-width="2" d="M388.88,-143.7C365.66,-134.62 336.92,-123.38 311.96,-113.62"/>
<polygon fill="grey" stroke="grey" stroke-width="2" points="313.45,-110.44 302.86,-110.06 310.9,-116.96 313.45,-110.44"/>
</g>
<!-- 8&#45;&gt;0 -->
<g id="edge8" class="edge">
<title>8&#45;&gt;0</title>
<path fill="none" stroke="grey" stroke-width="2" d="M544.87,-143.47C547.45,-133.21 550.45,-119.96 552.12,-108 554.83,-88.75 556.08,-66.96 556.66,-49.76"/>
<polygon fill="grey" stroke="grey" stroke-width="2" points="560.15,-49.93 556.92,-39.84 553.16,-49.75 560.15,-49.93"/>
</g>
<!-- 8&#45;&gt;9 -->
<g id="edge22" class="edge">
<title>8&#45;&gt;9</title>
<path fill="none" stroke="grey" stroke-width="2" d="M512.34,-143.15C499.4,-134.84 483.79,-124.82 469.73,-115.79"/>
<polygon fill="grey" stroke="grey" stroke-width="2" points="471.71,-112.91 461.41,-110.45 467.93,-118.8 471.71,-112.91"/>
</g>
<!-- 8&#45;&gt;10 -->
<g id="edge26" class="edge">
<title>8&#45;&gt;10</title>
<path fill="none" stroke="grey" stroke-width="2" d="M496.08,-147.07C492.38,-146 488.7,-144.96 485.12,-144 440.02,-131.87 389.49,-120.08 347.22,-110.71"/>
<polygon fill="grey" stroke="grey" stroke-width="2" points="348.14,-107.33 337.62,-108.59 346.64,-114.16 348.14,-107.33"/>
</g>
<!-- 9&#45;&gt;0 -->
<g id="edge9" class="edge">
<title>9&#45;&gt;0</title>
<path fill="none" stroke="grey" stroke-width="2" d="M463.25,-71.15C479.91,-61.9 500.41,-50.51 518,-40.74"/>
<polygon fill="grey" stroke="grey" stroke-width="2" points="519.65,-43.82 526.7,-35.9 516.25,-37.7 519.65,-43.82"/>
</g>
<!-- 10&#45;&gt;0 -->
<g id="edge10" class="edge">
<title>10&#45;&gt;0</title>
<path fill="none" stroke="grey" stroke-width="2" d="M331.76,-71.06C390.78,-57.43 469.59,-39.22 516.67,-28.35"/>
<polygon fill="grey" stroke="grey" stroke-width="2" points="517.44,-31.76 526.4,-26.1 515.87,-24.94 517.44,-31.76"/>
</g>
<!-- 11 -->
<g id="node12" class="node">
<title>11</title>
<path fill="none" stroke="#56d88a" stroke-width="2" d="M783.62,-108C783.62,-108 692.62,-108 692.62,-108 686.62,-108 680.62,-102 680.62,-96 680.62,-96 680.62,-84 680.62,-84 680.62,-78 686.62,-72 692.62,-72 692.62,-72 783.62,-72 783.62,-72 789.62,-72 795.62,-78 795.62,-84 795.62,-84 795.62,-96 795.62,-96 795.62,-102 789.62,-108 783.62,-108"/>
<text text-anchor="middle" x="738.12" y="-93.25" font-family="sans" font-size="10.00">run_intron_retention</text>
<text text-anchor="middle" x="738.12" y="-80.5" font-family="sans" font-size="10.00">sample: Dark_rep1</text>
</g>
<!-- 11&#45;&gt;0 -->
<g id="edge11" class="edge">
<title>11&#45;&gt;0</title>
<path fill="none" stroke="grey" stroke-width="2" d="M691.98,-71.15C662.74,-59.84 625.28,-45.36 597.27,-34.52"/>
<polygon fill="grey" stroke="grey" stroke-width="2" points="598.54,-31.26 587.95,-30.92 596.01,-37.79 598.54,-31.26"/>
</g>
<!-- 12 -->
<g id="node13" class="node">
<title>12</title>
<path fill="none" stroke="#56d88a" stroke-width="2" d="M916.62,-108C916.62,-108 825.62,-108 825.62,-108 819.62,-108 813.62,-102 813.62,-96 813.62,-96 813.62,-84 813.62,-84 813.62,-78 819.62,-72 825.62,-72 825.62,-72 916.62,-72 916.62,-72 922.62,-72 928.62,-78 928.62,-84 928.62,-84 928.62,-96 928.62,-96 928.62,-102 922.62,-108 916.62,-108"/>
<text text-anchor="middle" x="871.12" y="-93.25" font-family="sans" font-size="10.00">run_intron_retention</text>
<text text-anchor="middle" x="871.12" y="-80.5" font-family="sans" font-size="10.00">sample: Dark_rep2</text>
</g>
<!-- 12&#45;&gt;0 -->
<g id="edge12" class="edge">
<title>12&#45;&gt;0</title>
<path fill="none" stroke="grey" stroke-width="2" d="M812.85,-73.85C810.24,-73.22 807.66,-72.6 805.12,-72 732.31,-54.85 646.89,-37.12 597.69,-27.13"/>
<polygon fill="grey" stroke="grey" stroke-width="2" points="598.57,-23.74 588.07,-25.18 597.18,-30.6 598.57,-23.74"/>
</g>
<!-- 13 -->
<g id="node14" class="node">
<title>13</title>
<path fill="none" stroke="#56d88a" stroke-width="2" d="M1065.5,-108C1065.5,-108 958.75,-108 958.75,-108 952.75,-108 946.75,-102 946.75,-96 946.75,-96 946.75,-84 946.75,-84 946.75,-78 952.75,-72 958.75,-72 958.75,-72 1065.5,-72 1065.5,-72 1071.5,-72 1077.5,-78 1077.5,-84 1077.5,-84 1077.5,-96 1077.5,-96 1077.5,-102 1071.5,-108 1065.5,-108"/>
<text text-anchor="middle" x="1012.12" y="-93.25" font-family="sans" font-size="10.00">run_intron_retention</text>
<text text-anchor="middle" x="1012.12" y="-80.5" font-family="sans" font-size="10.00">sample: BlueLight_rep1</text>
</g>
<!-- 13&#45;&gt;0 -->
<g id="edge13" class="edge">
<title>13&#45;&gt;0</title>
<path fill="none" stroke="grey" stroke-width="2" d="M946.02,-73.51C943.36,-72.98 940.72,-72.48 938.12,-72 814.98,-49.33 667.84,-31.44 597.91,-23.48"/>
<polygon fill="grey" stroke="grey" stroke-width="2" points="598.32,-20.01 587.99,-22.37 597.54,-26.97 598.32,-20.01"/>
</g>
<!-- 14 -->
<g id="node15" class="node">
<title>14</title>
<path fill="none" stroke="#56d88a" stroke-width="2" d="M1214.5,-108C1214.5,-108 1107.75,-108 1107.75,-108 1101.75,-108 1095.75,-102 1095.75,-96 1095.75,-96 1095.75,-84 1095.75,-84 1095.75,-78 1101.75,-72 1107.75,-72 1107.75,-72 1214.5,-72 1214.5,-72 1220.5,-72 1226.5,-78 1226.5,-84 1226.5,-84 1226.5,-96 1226.5,-96 1226.5,-102 1220.5,-108 1214.5,-108"/>
<text text-anchor="middle" x="1161.12" y="-93.25" font-family="sans" font-size="10.00">run_intron_retention</text>
<text text-anchor="middle" x="1161.12" y="-80.5" font-family="sans" font-size="10.00">sample: BlueLight_rep2</text>
</g>
<!-- 14&#45;&gt;0 -->
<g id="edge14" class="edge">
<title>14&#45;&gt;0</title>
<path fill="none" stroke="grey" stroke-width="2" d="M1094.96,-73.54C1091.98,-72.99 1089.02,-72.47 1086.12,-72 905.42,-42.58 687.16,-26.93 598.03,-21.38"/>
<polygon fill="grey" stroke="grey" stroke-width="2" points="598.32,-17.89 588.12,-20.77 597.89,-24.88 598.32,-17.89"/>
</g>
</g>
</svg>
