<?xml version="1.0" encoding="UTF-8" standalone="no"?>
<!DOCTYPE svg PUBLIC "-//W3C//DTD SVG 1.1//EN"
 "http://www.w3.org/Graphics/SVG/1.1/DTD/svg11.dtd">
<!-- Generated by graphviz version 11.0.0 (20240519.1550)
 -->
<!-- Title: snakemake_dag Pages: 1 -->
<svg width="1815pt" height="450pt"
 viewBox="0.00 0.00 1814.55 450.00" xmlns="http://www.w3.org/2000/svg" xmlns:xlink="http://www.w3.org/1999/xlink">
<g id="graph0" class="graph" transform="scale(1 1) rotate(0) translate(4 446)">
<title>snakemake_dag</title>
<polygon fill="white" stroke="none" points="-4,4 -4,-446 1810.55,-446 1810.55,4 -4,4"/>
<!-- 0 -->
<g id="node1" class="node">
<title>0</title>
<path fill="none" stroke="#56d86b" stroke-width="2" d="M958.12,-36C958.12,-36 928.12,-36 928.12,-36 922.12,-36 916.12,-30 916.12,-24 916.12,-24 916.12,-12 916.12,-12 916.12,-6 922.12,0 928.12,0 928.12,0 958.12,0 958.12,0 964.12,0 970.12,-6 970.12,-12 970.12,-12 970.12,-24 970.12,-24 970.12,-30 964.12,-36 958.12,-36"/>
<text text-anchor="middle" x="943.12" y="-14.88" font-family="sans" font-size="10.00">all</text>
</g>
<!-- 1 -->
<g id="node2" class="node">
<title>1</title>
<path fill="none" stroke="#d89556" stroke-width="2" d="M138.25,-442C138.25,-442 12,-442 12,-442 6,-442 0,-436 0,-430 0,-430 0,-395 0,-395 0,-389 6,-383 12,-383 12,-383 138.25,-383 138.25,-383 144.25,-383 150.25,-389 150.25,-395 150.25,-395 150.25,-430 150.25,-430 150.25,-436 144.25,-442 138.25,-442"/>
<text text-anchor="middle" x="75.12" y="-428.5" font-family="sans" font-size="10.00">subset_bam_by_insert_size</text>
<text text-anchor="middle" x="75.12" y="-415.75" font-family="sans" font-size="10.00">insert_size: 300</text>
<text text-anchor="middle" x="75.12" y="-403" font-family="sans" font-size="10.00">sample: BlueLight_rep1</text>
<text text-anchor="middle" x="75.12" y="-390.25" font-family="sans" font-size="10.00">species: Dmel</text>
</g>
<!-- 1&#45;&gt;0 -->
<g id="edge1" class="edge">
<title>1&#45;&gt;0</title>
<path fill="none" stroke="grey" stroke-width="2" d="M59.76,-382.1C45.39,-351.83 26.12,-302.9 26.12,-258 26.12,-258 26.12,-258 26.12,-172.5 26.12,-114 58.87,-98.29 111.12,-72 182.26,-36.2 746.02,-22.78 902.79,-19.72"/>
<polygon fill="grey" stroke="grey" stroke-width="2" points="902.49,-23.23 912.42,-19.54 902.35,-16.23 902.49,-23.23"/>
</g>
<!-- 9 -->
<g id="node10" class="node">
<title>9</title>
<path fill="none" stroke="#56d8b9" stroke-width="2" d="M183.75,-347C183.75,-347 66.5,-347 66.5,-347 60.5,-347 54.5,-341 54.5,-335 54.5,-335 54.5,-323 54.5,-323 54.5,-317 60.5,-311 66.5,-311 66.5,-311 183.75,-311 183.75,-311 189.75,-311 195.75,-317 195.75,-323 195.75,-323 195.75,-335 195.75,-335 195.75,-341 189.75,-347 183.75,-347"/>
<text text-anchor="middle" x="125.12" y="-325.88" font-family="sans" font-size="10.00">MACS2_for_IDR_all_reads</text>
</g>
<!-- 1&#45;&gt;9 -->
<g id="edge33" class="edge">
<title>1&#45;&gt;9</title>
<path fill="none" stroke="grey" stroke-width="2" d="M93.18,-382.08C97.86,-374.45 102.89,-366.24 107.55,-358.65"/>
<polygon fill="grey" stroke="grey" stroke-width="2" points="110.4,-360.69 112.65,-350.34 104.43,-357.03 110.4,-360.69"/>
</g>
<!-- 2 -->
<g id="node3" class="node">
<title>2</title>
<path fill="none" stroke="#d89556" stroke-width="2" d="M655.25,-442C655.25,-442 529,-442 529,-442 523,-442 517,-436 517,-430 517,-430 517,-395 517,-395 517,-389 523,-383 529,-383 529,-383 655.25,-383 655.25,-383 661.25,-383 667.25,-389 667.25,-395 667.25,-395 667.25,-430 667.25,-430 667.25,-436 661.25,-442 655.25,-442"/>
<text text-anchor="middle" x="592.12" y="-428.5" font-family="sans" font-size="10.00">subset_bam_by_insert_size</text>
<text text-anchor="middle" x="592.12" y="-415.75" font-family="sans" font-size="10.00">insert_size: 300</text>
<text text-anchor="middle" x="592.12" y="-403" font-family="sans" font-size="10.00">sample: BlueLight_rep1</text>
<text text-anchor="middle" x="592.12" y="-390.25" font-family="sans" font-size="10.00">species: Dvir</text>
</g>
<!-- 2&#45;&gt;0 -->
<g id="edge2" class="edge">
<title>2&#45;&gt;0</title>
<path fill="none" stroke="grey" stroke-width="2" d="M560.43,-382.1C551.01,-371.83 541.52,-359.68 535.12,-347 516.91,-310.88 516.12,-298.45 516.12,-258 516.12,-258 516.12,-258 516.12,-172.5 516.12,-122.61 525.65,-101.17 566.12,-72 619.32,-33.67 816.47,-22.92 902.52,-20.02"/>
<polygon fill="grey" stroke="grey" stroke-width="2" points="902.42,-23.53 912.31,-19.71 902.21,-16.53 902.42,-23.53"/>
</g>
<!-- 10 -->
<g id="node11" class="node">
<title>10</title>
<path fill="none" stroke="#56d8b9" stroke-width="2" d="M673.75,-347C673.75,-347 556.5,-347 556.5,-347 550.5,-347 544.5,-341 544.5,-335 544.5,-335 544.5,-323 544.5,-323 544.5,-317 550.5,-311 556.5,-311 556.5,-311 673.75,-311 673.75,-311 679.75,-311 685.75,-317 685.75,-323 685.75,-323 685.75,-335 685.75,-335 685.75,-341 679.75,-347 673.75,-347"/>
<text text-anchor="middle" x="615.12" y="-325.88" font-family="sans" font-size="10.00">MACS2_for_IDR_all_reads</text>
</g>
<!-- 2&#45;&gt;10 -->
<g id="edge34" class="edge">
<title>2&#45;&gt;10</title>
<path fill="none" stroke="grey" stroke-width="2" d="M600.43,-382.08C602.43,-374.99 604.57,-367.4 606.58,-360.27"/>
<polygon fill="grey" stroke="grey" stroke-width="2" points="609.94,-361.25 609.29,-350.67 603.21,-359.35 609.94,-361.25"/>
</g>
<!-- 3 -->
<g id="node4" class="node">
<title>3</title>
<path fill="none" stroke="#d89556" stroke-width="2" d="M366.25,-442C366.25,-442 240,-442 240,-442 234,-442 228,-436 228,-430 228,-430 228,-395 228,-395 228,-389 234,-383 240,-383 240,-383 366.25,-383 366.25,-383 372.25,-383 378.25,-389 378.25,-395 378.25,-395 378.25,-430 378.25,-430 378.25,-436 372.25,-442 366.25,-442"/>
<text text-anchor="middle" x="303.12" y="-428.5" font-family="sans" font-size="10.00">subset_bam_by_insert_size</text>
<text text-anchor="middle" x="303.12" y="-415.75" font-family="sans" font-size="10.00">insert_size: 300</text>
<text text-anchor="middle" x="303.12" y="-403" font-family="sans" font-size="10.00">sample: BlueLight_rep2</text>
<text text-anchor="middle" x="303.12" y="-390.25" font-family="sans" font-size="10.00">species: Dmel</text>
</g>
<!-- 3&#45;&gt;0 -->
<g id="edge3" class="edge">
<title>3&#45;&gt;0</title>
<path fill="none" stroke="grey" stroke-width="2" d="M283.9,-382.33C259.48,-343.37 218.66,-271.31 203.12,-203 188.2,-137.36 217.64,-99.39 279.12,-72 391.63,-21.89 776.55,-18.48 902.72,-18.74"/>
<polygon fill="grey" stroke="grey" stroke-width="2" points="902.42,-22.24 912.43,-18.77 902.44,-15.24 902.42,-22.24"/>
</g>
<!-- 11 -->
<g id="node12" class="node">
<title>11</title>
<path fill="none" stroke="#56d8b9" stroke-width="2" d="M420.75,-347C420.75,-347 303.5,-347 303.5,-347 297.5,-347 291.5,-341 291.5,-335 291.5,-335 291.5,-323 291.5,-323 291.5,-317 297.5,-311 303.5,-311 303.5,-311 420.75,-311 420.75,-311 426.75,-311 432.75,-317 432.75,-323 432.75,-323 432.75,-335 432.75,-335 432.75,-341 426.75,-347 420.75,-347"/>
<text text-anchor="middle" x="362.12" y="-325.88" font-family="sans" font-size="10.00">MACS2_for_IDR_all_reads</text>
</g>
<!-- 3&#45;&gt;11 -->
<g id="edge35" class="edge">
<title>3&#45;&gt;11</title>
<path fill="none" stroke="grey" stroke-width="2" d="M324.43,-382.08C330.08,-374.27 336.17,-365.85 341.77,-358.12"/>
<polygon fill="grey" stroke="grey" stroke-width="2" points="344.46,-360.36 347.49,-350.21 338.79,-356.26 344.46,-360.36"/>
</g>
<!-- 4 -->
<g id="node5" class="node">
<title>4</title>
<path fill="none" stroke="#d89556" stroke-width="2" d="M855.25,-442C855.25,-442 729,-442 729,-442 723,-442 717,-436 717,-430 717,-430 717,-395 717,-395 717,-389 723,-383 729,-383 729,-383 855.25,-383 855.25,-383 861.25,-383 867.25,-389 867.25,-395 867.25,-395 867.25,-430 867.25,-430 867.25,-436 861.25,-442 855.25,-442"/>
<text text-anchor="middle" x="792.12" y="-428.5" font-family="sans" font-size="10.00">subset_bam_by_insert_size</text>
<text text-anchor="middle" x="792.12" y="-415.75" font-family="sans" font-size="10.00">insert_size: 300</text>
<text text-anchor="middle" x="792.12" y="-403" font-family="sans" font-size="10.00">sample: BlueLight_rep2</text>
<text text-anchor="middle" x="792.12" y="-390.25" font-family="sans" font-size="10.00">species: Dvir</text>
</g>
<!-- 4&#45;&gt;0 -->
<g id="edge4" class="edge">
<title>4&#45;&gt;0</title>
<path fill="none" stroke="grey" stroke-width="2" d="M771.61,-382.02C764.29,-371.15 756.12,-358.66 749.12,-347 721.09,-300.28 725.28,-281.45 691.12,-239 675.71,-219.84 659.4,-225.34 649.12,-203 638.17,-179.18 638.61,-168.02 649.12,-144 691.34,-47.58 832.52,-25.42 902.75,-20.41"/>
<polygon fill="grey" stroke="grey" stroke-width="2" points="902.61,-23.93 912.38,-19.82 902.18,-16.94 902.61,-23.93"/>
</g>
<!-- 12 -->
<g id="node13" class="node">
<title>12</title>
<path fill="none" stroke="#56d8b9" stroke-width="2" d="M887.75,-347C887.75,-347 770.5,-347 770.5,-347 764.5,-347 758.5,-341 758.5,-335 758.5,-335 758.5,-323 758.5,-323 758.5,-317 764.5,-311 770.5,-311 770.5,-311 887.75,-311 887.75,-311 893.75,-311 899.75,-317 899.75,-323 899.75,-323 899.75,-335 899.75,-335 899.75,-341 893.75,-347 887.75,-347"/>
<text text-anchor="middle" x="829.12" y="-325.88" font-family="sans" font-size="10.00">MACS2_for_IDR_all_reads</text>
</g>
<!-- 4&#45;&gt;12 -->
<g id="edge36" class="edge">
<title>4&#45;&gt;12</title>
<path fill="none" stroke="grey" stroke-width="2" d="M805.48,-382.08C808.82,-374.72 812.41,-366.82 815.75,-359.46"/>
<polygon fill="grey" stroke="grey" stroke-width="2" points="818.86,-361.07 819.81,-350.52 812.49,-358.17 818.86,-361.07"/>
</g>
<!-- 5 -->
<g id="node6" class="node">
<title>5</title>
<path fill="none" stroke="#d89556" stroke-width="2" d="M1040.25,-442C1040.25,-442 914,-442 914,-442 908,-442 902,-436 902,-430 902,-430 902,-395 902,-395 902,-389 908,-383 914,-383 914,-383 1040.25,-383 1040.25,-383 1046.25,-383 1052.25,-389 1052.25,-395 1052.25,-395 1052.25,-430 1052.25,-430 1052.25,-436 1046.25,-442 1040.25,-442"/>
<text text-anchor="middle" x="977.12" y="-428.5" font-family="sans" font-size="10.00">subset_bam_by_insert_size</text>
<text text-anchor="middle" x="977.12" y="-415.75" font-family="sans" font-size="10.00">insert_size: 300</text>
<text text-anchor="middle" x="977.12" y="-403" font-family="sans" font-size="10.00">sample: Dark_rep1</text>
<text text-anchor="middle" x="977.12" y="-390.25" font-family="sans" font-size="10.00">species: Dmel</text>
</g>
<!-- 5&#45;&gt;0 -->
<g id="edge5" class="edge">
<title>5&#45;&gt;0</title>
<path fill="none" stroke="grey" stroke-width="2" d="M972.54,-382.16C968.13,-351.32 962.12,-301.38 962.12,-258 962.12,-258 962.12,-258 962.12,-172.5 962.12,-129.46 954.68,-80.14 949.11,-49.28"/>
<polygon fill="grey" stroke="grey" stroke-width="2" points="952.62,-49.03 947.34,-39.85 945.74,-50.32 952.62,-49.03"/>
</g>
<!-- 13 -->
<g id="node14" class="node">
<title>13</title>
<path fill="none" stroke="#56d8b9" stroke-width="2" d="M1119.75,-347C1119.75,-347 1002.5,-347 1002.5,-347 996.5,-347 990.5,-341 990.5,-335 990.5,-335 990.5,-323 990.5,-323 990.5,-317 996.5,-311 1002.5,-311 1002.5,-311 1119.75,-311 1119.75,-311 1125.75,-311 1131.75,-317 1131.75,-323 1131.75,-323 1131.75,-335 1131.75,-335 1131.75,-341 1125.75,-347 1119.75,-347"/>
<text text-anchor="middle" x="1061.12" y="-325.88" font-family="sans" font-size="10.00">MACS2_for_IDR_all_reads</text>
</g>
<!-- 5&#45;&gt;13 -->
<g id="edge37" class="edge">
<title>5&#45;&gt;13</title>
<path fill="none" stroke="grey" stroke-width="2" d="M1007.45,-382.08C1015.96,-373.82 1025.17,-364.89 1033.51,-356.79"/>
<polygon fill="grey" stroke="grey" stroke-width="2" points="1035.91,-359.34 1040.65,-349.87 1031.03,-354.32 1035.91,-359.34"/>
</g>
<!-- 6 -->
<g id="node7" class="node">
<title>6</title>
<path fill="none" stroke="#d89556" stroke-width="2" d="M1486.25,-442C1486.25,-442 1360,-442 1360,-442 1354,-442 1348,-436 1348,-430 1348,-430 1348,-395 1348,-395 1348,-389 1354,-383 1360,-383 1360,-383 1486.25,-383 1486.25,-383 1492.25,-383 1498.25,-389 1498.25,-395 1498.25,-395 1498.25,-430 1498.25,-430 1498.25,-436 1492.25,-442 1486.25,-442"/>
<text text-anchor="middle" x="1423.12" y="-428.5" font-family="sans" font-size="10.00">subset_bam_by_insert_size</text>
<text text-anchor="middle" x="1423.12" y="-415.75" font-family="sans" font-size="10.00">insert_size: 300</text>
<text text-anchor="middle" x="1423.12" y="-403" font-family="sans" font-size="10.00">sample: Dark_rep1</text>
<text text-anchor="middle" x="1423.12" y="-390.25" font-family="sans" font-size="10.00">species: Dvir</text>
</g>
<!-- 6&#45;&gt;0 -->
<g id="edge6" class="edge">
<title>6&#45;&gt;0</title>
<path fill="none" stroke="grey" stroke-width="2" d="M1418.54,-382.16C1414.13,-351.32 1408.12,-301.38 1408.12,-258 1408.12,-258 1408.12,-258 1408.12,-172.5 1408.12,-115.69 1378.41,-100.26 1329.12,-72 1270.84,-38.59 1070.64,-25.12 983.82,-20.76"/>
<polygon fill="grey" stroke="grey" stroke-width="2" points="984.08,-17.27 973.92,-20.28 983.74,-24.26 984.08,-17.27"/>
</g>
<!-- 14 -->
<g id="node15" class="node">
<title>14</title>
<path fill="none" stroke="#56d8b9" stroke-width="2" d="M1565.75,-347C1565.75,-347 1448.5,-347 1448.5,-347 1442.5,-347 1436.5,-341 1436.5,-335 1436.5,-335 1436.5,-323 1436.5,-323 1436.5,-317 1442.5,-311 1448.5,-311 1448.5,-311 1565.75,-311 1565.75,-311 1571.75,-311 1577.75,-317 1577.75,-323 1577.75,-323 1577.75,-335 1577.75,-335 1577.75,-341 1571.75,-347 1565.75,-347"/>
<text text-anchor="middle" x="1507.12" y="-325.88" font-family="sans" font-size="10.00">MACS2_for_IDR_all_reads</text>
</g>
<!-- 6&#45;&gt;14 -->
<g id="edge38" class="edge">
<title>6&#45;&gt;14</title>
<path fill="none" stroke="grey" stroke-width="2" d="M1453.45,-382.08C1461.96,-373.82 1471.17,-364.89 1479.51,-356.79"/>
<polygon fill="grey" stroke="grey" stroke-width="2" points="1481.91,-359.34 1486.65,-349.87 1477.03,-354.32 1481.91,-359.34"/>
</g>
<!-- 7 -->
<g id="node8" class="node">
<title>7</title>
<path fill="none" stroke="#d89556" stroke-width="2" d="M1270.25,-442C1270.25,-442 1144,-442 1144,-442 1138,-442 1132,-436 1132,-430 1132,-430 1132,-395 1132,-395 1132,-389 1138,-383 1144,-383 1144,-383 1270.25,-383 1270.25,-383 1276.25,-383 1282.25,-389 1282.25,-395 1282.25,-395 1282.25,-430 1282.25,-430 1282.25,-436 1276.25,-442 1270.25,-442"/>
<text text-anchor="middle" x="1207.12" y="-428.5" font-family="sans" font-size="10.00">subset_bam_by_insert_size</text>
<text text-anchor="middle" x="1207.12" y="-415.75" font-family="sans" font-size="10.00">insert_size: 300</text>
<text text-anchor="middle" x="1207.12" y="-403" font-family="sans" font-size="10.00">sample: Dark_rep2</text>
<text text-anchor="middle" x="1207.12" y="-390.25" font-family="sans" font-size="10.00">species: Dmel</text>
</g>
<!-- 7&#45;&gt;0 -->
<g id="edge7" class="edge">
<title>7&#45;&gt;0</title>
<path fill="none" stroke="grey" stroke-width="2" d="M1199.78,-382.29C1189.74,-346.24 1169.23,-284.18 1137.12,-239 1123.08,-219.23 1110.67,-222.41 1096.12,-203 1057.61,-151.6 1078.52,-119.34 1035.12,-72 1020.68,-56.25 1000.46,-43.89 982.64,-35.09"/>
<polygon fill="grey" stroke="grey" stroke-width="2" points="984.37,-32.03 973.83,-30.97 981.41,-38.38 984.37,-32.03"/>
</g>
<!-- 15 -->
<g id="node16" class="node">
<title>15</title>
<path fill="none" stroke="#56d8b9" stroke-width="2" d="M1334.75,-347C1334.75,-347 1217.5,-347 1217.5,-347 1211.5,-347 1205.5,-341 1205.5,-335 1205.5,-335 1205.5,-323 1205.5,-323 1205.5,-317 1211.5,-311 1217.5,-311 1217.5,-311 1334.75,-311 1334.75,-311 1340.75,-311 1346.75,-317 1346.75,-323 1346.75,-323 1346.75,-335 1346.75,-335 1346.75,-341 1340.75,-347 1334.75,-347"/>
<text text-anchor="middle" x="1276.12" y="-325.88" font-family="sans" font-size="10.00">MACS2_for_IDR_all_reads</text>
</g>
<!-- 7&#45;&gt;15 -->
<g id="edge39" class="edge">
<title>7&#45;&gt;15</title>
<path fill="none" stroke="grey" stroke-width="2" d="M1232.04,-382.08C1238.8,-374.09 1246.1,-365.47 1252.77,-357.58"/>
<polygon fill="grey" stroke="grey" stroke-width="2" points="1255.34,-359.96 1259.13,-350.07 1250,-355.44 1255.34,-359.96"/>
</g>
<!-- 8 -->
<g id="node9" class="node">
<title>8</title>
<path fill="none" stroke="#d89556" stroke-width="2" d="M1727.25,-442C1727.25,-442 1601,-442 1601,-442 1595,-442 1589,-436 1589,-430 1589,-430 1589,-395 1589,-395 1589,-389 1595,-383 1601,-383 1601,-383 1727.25,-383 1727.25,-383 1733.25,-383 1739.25,-389 1739.25,-395 1739.25,-395 1739.25,-430 1739.25,-430 1739.25,-436 1733.25,-442 1727.25,-442"/>
<text text-anchor="middle" x="1664.12" y="-428.5" font-family="sans" font-size="10.00">subset_bam_by_insert_size</text>
<text text-anchor="middle" x="1664.12" y="-415.75" font-family="sans" font-size="10.00">insert_size: 300</text>
<text text-anchor="middle" x="1664.12" y="-403" font-family="sans" font-size="10.00">sample: Dark_rep2</text>
<text text-anchor="middle" x="1664.12" y="-390.25" font-family="sans" font-size="10.00">species: Dvir</text>
</g>
<!-- 8&#45;&gt;0 -->
<g id="edge8" class="edge">
<title>8&#45;&gt;0</title>
<path fill="none" stroke="grey" stroke-width="2" d="M1654.51,-382.03C1641.84,-346 1617.12,-284.22 1583.12,-239 1568.55,-219.62 1556.67,-222.41 1542.12,-203 1503.61,-151.6 1533.52,-109.14 1481.12,-72 1440.76,-43.39 1101.85,-25.95 983.62,-20.69"/>
<polygon fill="grey" stroke="grey" stroke-width="2" points="984.13,-17.21 973.99,-20.27 983.83,-24.21 984.13,-17.21"/>
</g>
<!-- 16 -->
<g id="node17" class="node">
<title>16</title>
<path fill="none" stroke="#56d8b9" stroke-width="2" d="M1780.75,-347C1780.75,-347 1663.5,-347 1663.5,-347 1657.5,-347 1651.5,-341 1651.5,-335 1651.5,-335 1651.5,-323 1651.5,-323 1651.5,-317 1657.5,-311 1663.5,-311 1663.5,-311 1780.75,-311 1780.75,-311 1786.75,-311 1792.75,-317 1792.75,-323 1792.75,-323 1792.75,-335 1792.75,-335 1792.75,-341 1786.75,-347 1780.75,-347"/>
<text text-anchor="middle" x="1722.12" y="-325.88" font-family="sans" font-size="10.00">MACS2_for_IDR_all_reads</text>
</g>
<!-- 8&#45;&gt;16 -->
<g id="edge40" class="edge">
<title>8&#45;&gt;16</title>
<path fill="none" stroke="grey" stroke-width="2" d="M1685.06,-382.08C1690.62,-374.27 1696.61,-365.85 1702.12,-358.12"/>
<polygon fill="grey" stroke="grey" stroke-width="2" points="1704.78,-360.4 1707.73,-350.23 1699.08,-356.34 1704.78,-360.4"/>
</g>
<!-- 9&#45;&gt;0 -->
<g id="edge9" class="edge">
<title>9&#45;&gt;0</title>
<path fill="none" stroke="grey" stroke-width="2" d="M108.26,-310.45C100.18,-300.8 91.35,-288.15 87.12,-275 63.88,-202.68 109.14,-98.2 143.12,-72 203.59,-25.39 747.91,-19.74 902.41,-19.08"/>
<polygon fill="grey" stroke="grey" stroke-width="2" points="902.29,-22.58 912.28,-19.05 902.27,-15.58 902.29,-22.58"/>
</g>
<!-- 17 -->
<g id="node18" class="node">
<title>17</title>
<path fill="none" stroke="#5663d8" stroke-width="2" d="M184.12,-275C184.12,-275 108.12,-275 108.12,-275 102.12,-275 96.12,-269 96.12,-263 96.12,-263 96.12,-251 96.12,-251 96.12,-245 102.12,-239 108.12,-239 108.12,-239 184.12,-239 184.12,-239 190.12,-239 196.12,-245 196.12,-251 196.12,-251 196.12,-263 196.12,-263 196.12,-269 190.12,-275 184.12,-275"/>
<text text-anchor="middle" x="146.12" y="-253.88" font-family="sans" font-size="10.00">expand_summits</text>
</g>
<!-- 9&#45;&gt;17 -->
<g id="edge41" class="edge">
<title>9&#45;&gt;17</title>
<path fill="none" stroke="grey" stroke-width="2" d="M130.42,-310.34C132.45,-303.59 134.82,-295.69 137.09,-288.11"/>
<polygon fill="grey" stroke="grey" stroke-width="2" points="140.36,-289.39 139.88,-278.8 133.66,-287.37 140.36,-289.39"/>
</g>
<!-- 10&#45;&gt;0 -->
<g id="edge10" class="edge">
<title>10&#45;&gt;0</title>
<path fill="none" stroke="grey" stroke-width="2" d="M596.08,-310.28C587.28,-300.78 577.76,-288.3 573.12,-275 552.77,-216.55 533.67,-135.38 596.12,-72 638.16,-29.34 820.21,-20.94 902.49,-19.35"/>
<polygon fill="grey" stroke="grey" stroke-width="2" points="902.29,-22.85 912.23,-19.19 902.18,-15.85 902.29,-22.85"/>
</g>
<!-- 18 -->
<g id="node19" class="node">
<title>18</title>
<path fill="none" stroke="#5663d8" stroke-width="2" d="M670.12,-275C670.12,-275 594.12,-275 594.12,-275 588.12,-275 582.12,-269 582.12,-263 582.12,-263 582.12,-251 582.12,-251 582.12,-245 588.12,-239 594.12,-239 594.12,-239 670.12,-239 670.12,-239 676.12,-239 682.12,-245 682.12,-251 682.12,-251 682.12,-263 682.12,-263 682.12,-269 676.12,-275 670.12,-275"/>
<text text-anchor="middle" x="632.12" y="-253.88" font-family="sans" font-size="10.00">expand_summits</text>
</g>
<!-- 10&#45;&gt;18 -->
<g id="edge42" class="edge">
<title>10&#45;&gt;18</title>
<path fill="none" stroke="grey" stroke-width="2" d="M619.41,-310.34C621.03,-303.67 622.92,-295.89 624.74,-288.39"/>
<polygon fill="grey" stroke="grey" stroke-width="2" points="628.1,-289.39 627.06,-278.84 621.3,-287.73 628.1,-289.39"/>
</g>
<!-- 11&#45;&gt;0 -->
<g id="edge11" class="edge">
<title>11&#45;&gt;0</title>
<path fill="none" stroke="grey" stroke-width="2" d="M386.97,-310.02C398.57,-300.63 411.83,-288.32 421.12,-275 476.72,-195.34 425.11,-131.2 502.12,-72 564.17,-24.3 805.08,-18.92 902.2,-18.74"/>
<polygon fill="grey" stroke="grey" stroke-width="2" points="902.16,-22.24 912.16,-18.74 902.16,-15.24 902.16,-22.24"/>
</g>
<!-- 19 -->
<g id="node20" class="node">
<title>19</title>
<path fill="none" stroke="#5663d8" stroke-width="2" d="M400.12,-275C400.12,-275 324.12,-275 324.12,-275 318.12,-275 312.12,-269 312.12,-263 312.12,-263 312.12,-251 312.12,-251 312.12,-245 318.12,-239 324.12,-239 324.12,-239 400.12,-239 400.12,-239 406.12,-239 412.12,-245 412.12,-251 412.12,-251 412.12,-263 412.12,-263 412.12,-269 406.12,-275 400.12,-275"/>
<text text-anchor="middle" x="362.12" y="-253.88" font-family="sans" font-size="10.00">expand_summits</text>
</g>
<!-- 11&#45;&gt;19 -->
<g id="edge43" class="edge">
<title>11&#45;&gt;19</title>
<path fill="none" stroke="grey" stroke-width="2" d="M362.12,-310.34C362.12,-303.75 362.12,-296.08 362.12,-288.67"/>
<polygon fill="grey" stroke="grey" stroke-width="2" points="365.63,-288.93 362.13,-278.93 358.63,-288.93 365.63,-288.93"/>
</g>
<!-- 12&#45;&gt;0 -->
<g id="edge12" class="edge">
<title>12&#45;&gt;0</title>
<path fill="none" stroke="grey" stroke-width="2" d="M855.58,-310.18C867.25,-301 880.12,-288.82 888.12,-275 930.53,-201.84 940.35,-99.84 942.55,-49.54"/>
<polygon fill="grey" stroke="grey" stroke-width="2" points="946.04,-49.93 942.88,-39.81 939.04,-49.68 946.04,-49.93"/>
</g>
<!-- 20 -->
<g id="node21" class="node">
<title>20</title>
<path fill="none" stroke="#5663d8" stroke-width="2" d="M867.12,-275C867.12,-275 791.12,-275 791.12,-275 785.12,-275 779.12,-269 779.12,-263 779.12,-263 779.12,-251 779.12,-251 779.12,-245 785.12,-239 791.12,-239 791.12,-239 867.12,-239 867.12,-239 873.12,-239 879.12,-245 879.12,-251 879.12,-251 879.12,-263 879.12,-263 879.12,-269 873.12,-275 867.12,-275"/>
<text text-anchor="middle" x="829.12" y="-253.88" font-family="sans" font-size="10.00">expand_summits</text>
</g>
<!-- 12&#45;&gt;20 -->
<g id="edge44" class="edge">
<title>12&#45;&gt;20</title>
<path fill="none" stroke="grey" stroke-width="2" d="M829.12,-310.34C829.12,-303.75 829.12,-296.08 829.12,-288.67"/>
<polygon fill="grey" stroke="grey" stroke-width="2" points="832.63,-288.93 829.13,-278.93 825.63,-288.93 832.63,-288.93"/>
</g>
<!-- 13&#45;&gt;0 -->
<g id="edge13" class="edge">
<title>13&#45;&gt;0</title>
<path fill="none" stroke="grey" stroke-width="2" d="M1043.66,-310.29C1035.04,-300.61 1025.22,-287.96 1019.12,-275 979.89,-191.54 1010.57,-157.55 976.12,-72 972.79,-63.72 968.19,-55.28 963.48,-47.65"/>
<polygon fill="grey" stroke="grey" stroke-width="2" points="966.45,-45.79 958.05,-39.33 960.58,-49.62 966.45,-45.79"/>
</g>
<!-- 21 -->
<g id="node22" class="node">
<title>21</title>
<path fill="none" stroke="#5663d8" stroke-width="2" d="M1116.12,-275C1116.12,-275 1040.12,-275 1040.12,-275 1034.12,-275 1028.12,-269 1028.12,-263 1028.12,-263 1028.12,-251 1028.12,-251 1028.12,-245 1034.12,-239 1040.12,-239 1040.12,-239 1116.12,-239 1116.12,-239 1122.12,-239 1128.12,-245 1128.12,-251 1128.12,-251 1128.12,-263 1128.12,-263 1128.12,-269 1122.12,-275 1116.12,-275"/>
<text text-anchor="middle" x="1078.12" y="-253.88" font-family="sans" font-size="10.00">expand_summits</text>
</g>
<!-- 13&#45;&gt;21 -->
<g id="edge45" class="edge">
<title>13&#45;&gt;21</title>
<path fill="none" stroke="grey" stroke-width="2" d="M1065.41,-310.34C1067.03,-303.67 1068.92,-295.89 1070.74,-288.39"/>
<polygon fill="grey" stroke="grey" stroke-width="2" points="1074.1,-289.39 1073.06,-278.84 1067.3,-287.73 1074.1,-289.39"/>
</g>
<!-- 14&#45;&gt;0 -->
<g id="edge14" class="edge">
<title>14&#45;&gt;0</title>
<path fill="none" stroke="grey" stroke-width="2" d="M1489.66,-310.29C1481.04,-300.61 1471.22,-287.96 1465.12,-275 1425.89,-191.54 1490.47,-133.92 1422.12,-72 1389.87,-42.78 1093.62,-26.05 983.82,-20.8"/>
<polygon fill="grey" stroke="grey" stroke-width="2" points="984.26,-17.32 974.11,-20.35 983.93,-24.31 984.26,-17.32"/>
</g>
<!-- 22 -->
<g id="node23" class="node">
<title>22</title>
<path fill="none" stroke="#5663d8" stroke-width="2" d="M1562.12,-275C1562.12,-275 1486.12,-275 1486.12,-275 1480.12,-275 1474.12,-269 1474.12,-263 1474.12,-263 1474.12,-251 1474.12,-251 1474.12,-245 1480.12,-239 1486.12,-239 1486.12,-239 1562.12,-239 1562.12,-239 1568.12,-239 1574.12,-245 1574.12,-251 1574.12,-251 1574.12,-263 1574.12,-263 1574.12,-269 1568.12,-275 1562.12,-275"/>
<text text-anchor="middle" x="1524.12" y="-253.88" font-family="sans" font-size="10.00">expand_summits</text>
</g>
<!-- 14&#45;&gt;22 -->
<g id="edge46" class="edge">
<title>14&#45;&gt;22</title>
<path fill="none" stroke="grey" stroke-width="2" d="M1511.41,-310.34C1513.03,-303.67 1514.92,-295.89 1516.74,-288.39"/>
<polygon fill="grey" stroke="grey" stroke-width="2" points="1520.1,-289.39 1519.06,-278.84 1513.3,-287.73 1520.1,-289.39"/>
</g>
<!-- 15&#45;&gt;0 -->
<g id="edge15" class="edge">
<title>15&#45;&gt;0</title>
<path fill="none" stroke="grey" stroke-width="2" d="M1304.86,-310.16C1316.55,-301.2 1328.79,-289.21 1335.12,-275 1372.47,-191.24 1371.11,-127.53 1298.12,-72 1249.39,-34.92 1066.21,-23.53 983.77,-20.25"/>
<polygon fill="grey" stroke="grey" stroke-width="2" points="984.13,-16.76 974.01,-19.88 983.87,-23.75 984.13,-16.76"/>
</g>
<!-- 23 -->
<g id="node24" class="node">
<title>23</title>
<path fill="none" stroke="#5663d8" stroke-width="2" d="M1314.12,-275C1314.12,-275 1238.12,-275 1238.12,-275 1232.12,-275 1226.12,-269 1226.12,-263 1226.12,-263 1226.12,-251 1226.12,-251 1226.12,-245 1232.12,-239 1238.12,-239 1238.12,-239 1314.12,-239 1314.12,-239 1320.12,-239 1326.12,-245 1326.12,-251 1326.12,-251 1326.12,-263 1326.12,-263 1326.12,-269 1320.12,-275 1314.12,-275"/>
<text text-anchor="middle" x="1276.12" y="-253.88" font-family="sans" font-size="10.00">expand_summits</text>
</g>
<!-- 15&#45;&gt;23 -->
<g id="edge47" class="edge">
<title>15&#45;&gt;23</title>
<path fill="none" stroke="grey" stroke-width="2" d="M1276.12,-310.34C1276.12,-303.75 1276.12,-296.08 1276.12,-288.67"/>
<polygon fill="grey" stroke="grey" stroke-width="2" points="1279.63,-288.93 1276.13,-278.93 1272.63,-288.93 1279.63,-288.93"/>
</g>
<!-- 16&#45;&gt;0 -->
<g id="edge16" class="edge">
<title>16&#45;&gt;0</title>
<path fill="none" stroke="grey" stroke-width="2" d="M1750.86,-310.16C1762.55,-301.2 1774.79,-289.21 1781.12,-275 1818.44,-191.31 1820.27,-124.44 1745.12,-72 1682.37,-28.2 1138.21,-20.55 983.81,-19.25"/>
<polygon fill="grey" stroke="grey" stroke-width="2" points="983.98,-15.76 973.95,-19.18 983.92,-22.76 983.98,-15.76"/>
</g>
<!-- 24 -->
<g id="node25" class="node">
<title>24</title>
<path fill="none" stroke="#5663d8" stroke-width="2" d="M1760.12,-275C1760.12,-275 1684.12,-275 1684.12,-275 1678.12,-275 1672.12,-269 1672.12,-263 1672.12,-263 1672.12,-251 1672.12,-251 1672.12,-245 1678.12,-239 1684.12,-239 1684.12,-239 1760.12,-239 1760.12,-239 1766.12,-239 1772.12,-245 1772.12,-251 1772.12,-251 1772.12,-263 1772.12,-263 1772.12,-269 1766.12,-275 1760.12,-275"/>
<text text-anchor="middle" x="1722.12" y="-253.88" font-family="sans" font-size="10.00">expand_summits</text>
</g>
<!-- 16&#45;&gt;24 -->
<g id="edge48" class="edge">
<title>16&#45;&gt;24</title>
<path fill="none" stroke="grey" stroke-width="2" d="M1722.12,-310.34C1722.12,-303.75 1722.12,-296.08 1722.12,-288.67"/>
<polygon fill="grey" stroke="grey" stroke-width="2" points="1725.63,-288.93 1722.13,-278.93 1718.63,-288.93 1725.63,-288.93"/>
</g>
<!-- 17&#45;&gt;0 -->
<g id="edge17" class="edge">
<title>17&#45;&gt;0</title>
<path fill="none" stroke="grey" stroke-width="2" d="M142,-238.11C134.6,-201 123.9,-115.48 170.12,-72 223.75,-21.57 750.82,-18.63 902.49,-18.84"/>
<polygon fill="grey" stroke="grey" stroke-width="2" points="902.14,-22.34 912.15,-18.86 902.15,-15.34 902.14,-22.34"/>
</g>
<!-- 25 -->
<g id="node26" class="node">
<title>25</title>
<path fill="none" stroke="#d8d356" stroke-width="2" d="M399.62,-203C399.62,-203 224.62,-203 224.62,-203 218.62,-203 212.62,-197 212.62,-191 212.62,-191 212.62,-156 212.62,-156 212.62,-150 218.62,-144 224.62,-144 224.62,-144 399.62,-144 399.62,-144 405.62,-144 411.62,-150 411.62,-156 411.62,-156 411.62,-191 411.62,-191 411.62,-197 405.62,-203 399.62,-203"/>
<text text-anchor="middle" x="312.12" y="-189.5" font-family="sans" font-size="10.00">IDR_replicates</text>
<text text-anchor="middle" x="312.12" y="-176.75" font-family="sans" font-size="10.00">antibody: Antibody</text>
<text text-anchor="middle" x="312.12" y="-164" font-family="sans" font-size="10.00">condition: BlueLight</text>
<text text-anchor="middle" x="312.12" y="-151.25" font-family="sans" font-size="10.00">line: SPT5longLEXY_3&#45;4h_1hdepletion</text>
</g>
<!-- 17&#45;&gt;25 -->
<g id="edge49" class="edge">
<title>17&#45;&gt;25</title>
<path fill="none" stroke="grey" stroke-width="2" d="M182.55,-238.11C199.63,-229.73 220.59,-219.44 240.63,-209.6"/>
<polygon fill="grey" stroke="grey" stroke-width="2" points="242.14,-212.76 249.58,-205.21 239.06,-206.47 242.14,-212.76"/>
</g>
<!-- 18&#45;&gt;0 -->
<g id="edge18" class="edge">
<title>18&#45;&gt;0</title>
<path fill="none" stroke="grey" stroke-width="2" d="M623.06,-238.03C606.25,-201.87 575.5,-119.74 616.12,-72 652.46,-29.3 823.12,-20.9 902.43,-19.32"/>
<polygon fill="grey" stroke="grey" stroke-width="2" points="902.26,-22.82 912.2,-19.16 902.15,-15.82 902.26,-22.82"/>
</g>
<!-- 27 -->
<g id="node28" class="node">
<title>27</title>
<path fill="none" stroke="#d8d356" stroke-width="2" d="M845.62,-203C845.62,-203 670.62,-203 670.62,-203 664.62,-203 658.62,-197 658.62,-191 658.62,-191 658.62,-156 658.62,-156 658.62,-150 664.62,-144 670.62,-144 670.62,-144 845.62,-144 845.62,-144 851.62,-144 857.62,-150 857.62,-156 857.62,-156 857.62,-191 857.62,-191 857.62,-197 851.62,-203 845.62,-203"/>
<text text-anchor="middle" x="758.12" y="-189.5" font-family="sans" font-size="10.00">IDR_replicates</text>
<text text-anchor="middle" x="758.12" y="-176.75" font-family="sans" font-size="10.00">antibody: Antibody</text>
<text text-anchor="middle" x="758.12" y="-164" font-family="sans" font-size="10.00">condition: BlueLight</text>
<text text-anchor="middle" x="758.12" y="-151.25" font-family="sans" font-size="10.00">line: SPT5longLEXY_3&#45;4h_1hdepletion</text>
</g>
<!-- 18&#45;&gt;27 -->
<g id="edge53" class="edge">
<title>18&#45;&gt;27</title>
<path fill="none" stroke="grey" stroke-width="2" d="M659.78,-238.11C672.25,-230.05 687.46,-220.21 702.15,-210.7"/>
<polygon fill="grey" stroke="grey" stroke-width="2" points="703.68,-213.89 710.17,-205.52 699.87,-208.01 703.68,-213.89"/>
</g>
<!-- 19&#45;&gt;0 -->
<g id="edge19" class="edge">
<title>19&#45;&gt;0</title>
<path fill="none" stroke="grey" stroke-width="2" d="M386.86,-238.16C398.33,-228.8 411.34,-216.49 420.12,-203 453.64,-151.53 416.31,-110.55 464.12,-72 498.01,-44.69 793.24,-26.76 902.61,-21.01"/>
<polygon fill="grey" stroke="grey" stroke-width="2" points="902.46,-24.52 912.26,-20.51 902.1,-17.53 902.46,-24.52"/>
</g>
<!-- 19&#45;&gt;25 -->
<g id="edge50" class="edge">
<title>19&#45;&gt;25</title>
<path fill="none" stroke="grey" stroke-width="2" d="M351.28,-238.32C346.96,-231.28 341.81,-222.89 336.68,-214.53"/>
<polygon fill="grey" stroke="grey" stroke-width="2" points="339.83,-212.96 331.61,-206.27 333.86,-216.62 339.83,-212.96"/>
</g>
<!-- 20&#45;&gt;0 -->
<g id="edge20" class="edge">
<title>20&#45;&gt;0</title>
<path fill="none" stroke="grey" stroke-width="2" d="M843.5,-238.17C850.99,-228.25 859.86,-215.43 866.12,-203 893.76,-148.15 883.94,-127.56 910.12,-72 914.04,-63.7 918.97,-55.09 923.82,-47.29"/>
<polygon fill="grey" stroke="grey" stroke-width="2" points="926.62,-49.41 929.1,-39.11 920.74,-45.61 926.62,-49.41"/>
</g>
<!-- 20&#45;&gt;27 -->
<g id="edge54" class="edge">
<title>20&#45;&gt;27</title>
<path fill="none" stroke="grey" stroke-width="2" d="M813.72,-238.32C807.32,-230.97 799.62,-222.13 792.02,-213.4"/>
<polygon fill="grey" stroke="grey" stroke-width="2" points="794.75,-211.21 785.54,-205.97 789.47,-215.81 794.75,-211.21"/>
</g>
<!-- 21&#45;&gt;0 -->
<g id="edge21" class="edge">
<title>21&#45;&gt;0</title>
<path fill="none" stroke="grey" stroke-width="2" d="M1072.54,-238.03C1058.91,-194.5 1024.32,-85.92 1014.12,-72 1005.43,-60.12 993.31,-49.72 981.54,-41.35"/>
<polygon fill="grey" stroke="grey" stroke-width="2" points="983.72,-38.59 973.46,-35.93 979.82,-44.41 983.72,-38.59"/>
</g>
<!-- 26 -->
<g id="node27" class="node">
<title>26</title>
<path fill="none" stroke="#d8d356" stroke-width="2" d="M1291.62,-203C1291.62,-203 1116.62,-203 1116.62,-203 1110.62,-203 1104.62,-197 1104.62,-191 1104.62,-191 1104.62,-156 1104.62,-156 1104.62,-150 1110.62,-144 1116.62,-144 1116.62,-144 1291.62,-144 1291.62,-144 1297.62,-144 1303.62,-150 1303.62,-156 1303.62,-156 1303.62,-191 1303.62,-191 1303.62,-197 1297.62,-203 1291.62,-203"/>
<text text-anchor="middle" x="1204.12" y="-189.5" font-family="sans" font-size="10.00">IDR_replicates</text>
<text text-anchor="middle" x="1204.12" y="-176.75" font-family="sans" font-size="10.00">antibody: Antibody</text>
<text text-anchor="middle" x="1204.12" y="-164" font-family="sans" font-size="10.00">condition: Dark</text>
<text text-anchor="middle" x="1204.12" y="-151.25" font-family="sans" font-size="10.00">line: SPT5longLEXY_3&#45;4h_1hdepletion</text>
</g>
<!-- 21&#45;&gt;26 -->
<g id="edge51" class="edge">
<title>21&#45;&gt;26</title>
<path fill="none" stroke="grey" stroke-width="2" d="M1105.78,-238.11C1118.25,-230.05 1133.46,-220.21 1148.15,-210.7"/>
<polygon fill="grey" stroke="grey" stroke-width="2" points="1149.68,-213.89 1156.17,-205.52 1145.87,-208.01 1149.68,-213.89"/>
</g>
<!-- 22&#45;&gt;0 -->
<g id="edge22" class="edge">
<title>22&#45;&gt;0</title>
<path fill="none" stroke="grey" stroke-width="2" d="M1518.54,-238.3C1504.23,-193.25 1466.96,-77.4 1460.12,-72 1422.98,-42.63 1099.07,-25.79 983.71,-20.68"/>
<polygon fill="grey" stroke="grey" stroke-width="2" points="984.18,-17.19 974.04,-20.26 983.88,-24.19 984.18,-17.19"/>
</g>
<!-- 28 -->
<g id="node29" class="node">
<title>28</title>
<path fill="none" stroke="#d8d356" stroke-width="2" d="M1737.62,-203C1737.62,-203 1562.62,-203 1562.62,-203 1556.62,-203 1550.62,-197 1550.62,-191 1550.62,-191 1550.62,-156 1550.62,-156 1550.62,-150 1556.62,-144 1562.62,-144 1562.62,-144 1737.62,-144 1737.62,-144 1743.62,-144 1749.62,-150 1749.62,-156 1749.62,-156 1749.62,-191 1749.62,-191 1749.62,-197 1743.62,-203 1737.62,-203"/>
<text text-anchor="middle" x="1650.12" y="-189.5" font-family="sans" font-size="10.00">IDR_replicates</text>
<text text-anchor="middle" x="1650.12" y="-176.75" font-family="sans" font-size="10.00">antibody: Antibody</text>
<text text-anchor="middle" x="1650.12" y="-164" font-family="sans" font-size="10.00">condition: Dark</text>
<text text-anchor="middle" x="1650.12" y="-151.25" font-family="sans" font-size="10.00">line: SPT5longLEXY_3&#45;4h_1hdepletion</text>
</g>
<!-- 22&#45;&gt;28 -->
<g id="edge55" class="edge">
<title>22&#45;&gt;28</title>
<path fill="none" stroke="grey" stroke-width="2" d="M1551.78,-238.11C1564.25,-230.05 1579.46,-220.21 1594.15,-210.7"/>
<polygon fill="grey" stroke="grey" stroke-width="2" points="1595.68,-213.89 1602.17,-205.52 1591.87,-208.01 1595.68,-213.89"/>
</g>
<!-- 23&#45;&gt;0 -->
<g id="edge23" class="edge">
<title>23&#45;&gt;0</title>
<path fill="none" stroke="grey" stroke-width="2" d="M1292.55,-238.37C1300.42,-228.71 1309.02,-216.06 1313.12,-203 1331.73,-143.85 1317.23,-105.62 1265.12,-72 1219.2,-42.37 1059.63,-27.3 983.78,-21.67"/>
<polygon fill="grey" stroke="grey" stroke-width="2" points="984.31,-18.2 974.09,-20.98 983.81,-25.18 984.31,-18.2"/>
</g>
<!-- 23&#45;&gt;26 -->
<g id="edge52" class="edge">
<title>23&#45;&gt;26</title>
<path fill="none" stroke="grey" stroke-width="2" d="M1260.5,-238.32C1254.01,-230.97 1246.2,-222.13 1238.49,-213.4"/>
<polygon fill="grey" stroke="grey" stroke-width="2" points="1241.16,-211.13 1231.91,-205.95 1235.91,-215.77 1241.16,-211.13"/>
</g>
<!-- 24&#45;&gt;0 -->
<g id="edge24" class="edge">
<title>24&#45;&gt;0</title>
<path fill="none" stroke="grey" stroke-width="2" d="M1738.55,-238.37C1746.42,-228.71 1755.02,-216.06 1759.12,-203 1777.73,-143.85 1764.76,-103.12 1711.12,-72 1648,-35.37 1133.47,-22.66 983.81,-19.72"/>
<polygon fill="grey" stroke="grey" stroke-width="2" points="983.98,-16.23 973.91,-19.53 983.85,-23.22 983.98,-16.23"/>
</g>
<!-- 24&#45;&gt;28 -->
<g id="edge56" class="edge">
<title>24&#45;&gt;28</title>
<path fill="none" stroke="grey" stroke-width="2" d="M1706.5,-238.32C1700.01,-230.97 1692.2,-222.13 1684.49,-213.4"/>
<polygon fill="grey" stroke="grey" stroke-width="2" points="1687.16,-211.13 1677.91,-205.95 1681.91,-215.77 1687.16,-211.13"/>
</g>
<!-- 25&#45;&gt;0 -->
<g id="edge25" class="edge">
<title>25&#45;&gt;0</title>
<path fill="none" stroke="grey" stroke-width="2" d="M294.88,-143.34C284.2,-121.07 275.55,-91.06 293.12,-72 334.44,-27.18 766.22,-20.26 902.3,-19.19"/>
<polygon fill="grey" stroke="grey" stroke-width="2" points="902.24,-22.69 912.21,-19.13 902.19,-15.7 902.24,-22.69"/>
</g>
<!-- 29 -->
<g id="node30" class="node">
<title>29</title>
<path fill="none" stroke="#ced856" stroke-width="2" d="M399.62,-108C399.62,-108 314.62,-108 314.62,-108 308.62,-108 302.62,-102 302.62,-96 302.62,-96 302.62,-84 302.62,-84 302.62,-78 308.62,-72 314.62,-72 314.62,-72 399.62,-72 399.62,-72 405.62,-72 411.62,-78 411.62,-84 411.62,-84 411.62,-96 411.62,-96 411.62,-102 405.62,-108 399.62,-108"/>
<text text-anchor="middle" x="357.12" y="-86.88" font-family="sans" font-size="10.00">expand_IDR_peaks</text>
</g>
<!-- 25&#45;&gt;29 -->
<g id="edge57" class="edge">
<title>25&#45;&gt;29</title>
<path fill="none" stroke="grey" stroke-width="2" d="M328.37,-143.08C332.53,-135.54 337.01,-127.43 341.16,-119.92"/>
<polygon fill="grey" stroke="grey" stroke-width="2" points="344.09,-121.86 345.86,-111.41 337.96,-118.47 344.09,-121.86"/>
</g>
<!-- 26&#45;&gt;0 -->
<g id="edge26" class="edge">
<title>26&#45;&gt;0</title>
<path fill="none" stroke="grey" stroke-width="2" d="M1173.37,-143.02C1146.05,-117.28 1107.78,-82.45 1090.12,-72 1056.42,-52.05 1013.97,-37.75 983.37,-29.07"/>
<polygon fill="grey" stroke="grey" stroke-width="2" points="984.53,-25.75 973.96,-26.49 982.68,-32.51 984.53,-25.75"/>
</g>
<!-- 30 -->
<g id="node31" class="node">
<title>30</title>
<path fill="none" stroke="#ced856" stroke-width="2" d="M1243.62,-108C1243.62,-108 1158.62,-108 1158.62,-108 1152.62,-108 1146.62,-102 1146.62,-96 1146.62,-96 1146.62,-84 1146.62,-84 1146.62,-78 1152.62,-72 1158.62,-72 1158.62,-72 1243.62,-72 1243.62,-72 1249.62,-72 1255.62,-78 1255.62,-84 1255.62,-84 1255.62,-96 1255.62,-96 1255.62,-102 1249.62,-108 1243.62,-108"/>
<text text-anchor="middle" x="1201.12" y="-86.88" font-family="sans" font-size="10.00">expand_IDR_peaks</text>
</g>
<!-- 26&#45;&gt;30 -->
<g id="edge58" class="edge">
<title>26&#45;&gt;30</title>
<path fill="none" stroke="grey" stroke-width="2" d="M1203.04,-143.08C1202.78,-136.07 1202.51,-128.59 1202.25,-121.54"/>
<polygon fill="grey" stroke="grey" stroke-width="2" points="1205.76,-121.65 1201.89,-111.78 1198.76,-121.91 1205.76,-121.65"/>
</g>
<!-- 27&#45;&gt;0 -->
<g id="edge27" class="edge">
<title>27&#45;&gt;0</title>
<path fill="none" stroke="grey" stroke-width="2" d="M741.41,-143.24C731.45,-121.5 723.48,-92.23 739.12,-72 758.94,-46.38 848.87,-30.85 902.49,-23.71"/>
<polygon fill="grey" stroke="grey" stroke-width="2" points="902.8,-27.2 912.28,-22.46 901.91,-20.25 902.8,-27.2"/>
</g>
<!-- 31 -->
<g id="node32" class="node">
<title>31</title>
<path fill="none" stroke="#ced856" stroke-width="2" d="M845.62,-108C845.62,-108 760.62,-108 760.62,-108 754.62,-108 748.62,-102 748.62,-96 748.62,-96 748.62,-84 748.62,-84 748.62,-78 754.62,-72 760.62,-72 760.62,-72 845.62,-72 845.62,-72 851.62,-72 857.62,-78 857.62,-84 857.62,-84 857.62,-96 857.62,-96 857.62,-102 851.62,-108 845.62,-108"/>
<text text-anchor="middle" x="803.12" y="-86.88" font-family="sans" font-size="10.00">expand_IDR_peaks</text>
</g>
<!-- 27&#45;&gt;31 -->
<g id="edge59" class="edge">
<title>27&#45;&gt;31</title>
<path fill="none" stroke="grey" stroke-width="2" d="M774.37,-143.08C778.53,-135.54 783.01,-127.43 787.16,-119.92"/>
<polygon fill="grey" stroke="grey" stroke-width="2" points="790.09,-121.86 791.86,-111.41 783.96,-118.47 790.09,-121.86"/>
</g>
<!-- 28&#45;&gt;0 -->
<g id="edge28" class="edge">
<title>28&#45;&gt;0</title>
<path fill="none" stroke="grey" stroke-width="2" d="M1621.22,-143.21C1594.21,-116.58 1555.28,-80.23 1536.12,-72 1436.33,-29.12 1100.68,-20.92 983.73,-19.36"/>
<polygon fill="grey" stroke="grey" stroke-width="2" points="983.96,-15.87 973.92,-19.25 983.88,-22.87 983.96,-15.87"/>
</g>
<!-- 32 -->
<g id="node33" class="node">
<title>32</title>
<path fill="none" stroke="#ced856" stroke-width="2" d="M1689.62,-108C1689.62,-108 1604.62,-108 1604.62,-108 1598.62,-108 1592.62,-102 1592.62,-96 1592.62,-96 1592.62,-84 1592.62,-84 1592.62,-78 1598.62,-72 1604.62,-72 1604.62,-72 1689.62,-72 1689.62,-72 1695.62,-72 1701.62,-78 1701.62,-84 1701.62,-84 1701.62,-96 1701.62,-96 1701.62,-102 1695.62,-108 1689.62,-108"/>
<text text-anchor="middle" x="1647.12" y="-86.88" font-family="sans" font-size="10.00">expand_IDR_peaks</text>
</g>
<!-- 28&#45;&gt;32 -->
<g id="edge60" class="edge">
<title>28&#45;&gt;32</title>
<path fill="none" stroke="grey" stroke-width="2" d="M1649.04,-143.08C1648.78,-136.07 1648.51,-128.59 1648.25,-121.54"/>
<polygon fill="grey" stroke="grey" stroke-width="2" points="1651.76,-121.65 1647.89,-111.78 1644.76,-121.91 1651.76,-121.65"/>
</g>
<!-- 29&#45;&gt;0 -->
<g id="edge29" class="edge">
<title>29&#45;&gt;0</title>
<path fill="none" stroke="grey" stroke-width="2" d="M412.34,-74.68C416.99,-73.69 421.63,-72.78 426.12,-72 601.85,-41.5 814.46,-26.5 902.21,-21.25"/>
<polygon fill="grey" stroke="grey" stroke-width="2" points="902.4,-24.75 912.17,-20.67 901.99,-17.76 902.4,-24.75"/>
</g>
<!-- 30&#45;&gt;0 -->
<g id="edge30" class="edge">
<title>30&#45;&gt;0</title>
<path fill="none" stroke="grey" stroke-width="2" d="M1145.78,-73.98C1096.96,-60.74 1026.99,-41.75 983.35,-29.91"/>
<polygon fill="grey" stroke="grey" stroke-width="2" points="984.46,-26.59 973.89,-27.35 982.62,-33.34 984.46,-26.59"/>
</g>
<!-- 31&#45;&gt;0 -->
<g id="edge31" class="edge">
<title>31&#45;&gt;0</title>
<path fill="none" stroke="grey" stroke-width="2" d="M838.82,-71.15C858.73,-61.2 883.56,-48.78 903.99,-38.57"/>
<polygon fill="grey" stroke="grey" stroke-width="2" points="905.36,-41.79 912.74,-34.19 902.23,-35.53 905.36,-41.79"/>
</g>
<!-- 32&#45;&gt;0 -->
<g id="edge32" class="edge">
<title>32&#45;&gt;0</title>
<path fill="none" stroke="grey" stroke-width="2" d="M1591.86,-74.91C1586.56,-73.82 1581.26,-72.82 1576.12,-72 1354.39,-36.38 1084.88,-23.89 983.91,-20.27"/>
<polygon fill="grey" stroke="grey" stroke-width="2" points="984.21,-16.78 974.1,-19.94 983.97,-23.78 984.21,-16.78"/>
</g>
</g>
</svg>
