<?xml version="1.0" encoding="UTF-8" standalone="no"?>
<!DOCTYPE svg PUBLIC "-//W3C//DTD SVG 1.1//EN"
 "http://www.w3.org/Graphics/SVG/1.1/DTD/svg11.dtd">
<!-- Generated by graphviz version 11.0.0 (20240519.1550)
 -->
<!-- Title: snakemake_dag Pages: 1 -->
<svg width="4272pt" height="569pt"
 viewBox="0.00 0.00 4272.38 568.50" xmlns="http://www.w3.org/2000/svg" xmlns:xlink="http://www.w3.org/1999/xlink">
<g id="graph0" class="graph" transform="scale(1 1) rotate(0) translate(4 564.5)">
<title>snakemake_dag</title>
<polygon fill="white" stroke="none" points="-4,4 -4,-564.5 4268.38,-564.5 4268.38,4 -4,4"/>
<!-- 0 -->
<g id="node1" class="node">
<title>0</title>
<path fill="none" stroke="#68d856" stroke-width="2" d="M2096,-36C2096,-36 2066,-36 2066,-36 2060,-36 2054,-30 2054,-24 2054,-24 2054,-12 2054,-12 2054,-6 2060,0 2066,0 2066,0 2096,0 2096,0 2102,0 2108,-6 2108,-12 2108,-12 2108,-24 2108,-24 2108,-30 2102,-36 2096,-36"/>
<text text-anchor="middle" x="2081" y="-14.88" font-family="sans" font-size="10.00">all</text>
</g>
<!-- 1 -->
<g id="node2" class="node">
<title>1</title>
<path fill="none" stroke="#56d8d0" stroke-width="2" d="M145.12,-560.5C145.12,-560.5 60.88,-560.5 60.88,-560.5 54.88,-560.5 48.88,-554.5 48.88,-548.5 48.88,-548.5 48.88,-536.5 48.88,-536.5 48.88,-530.5 54.88,-524.5 60.88,-524.5 60.88,-524.5 145.12,-524.5 145.12,-524.5 151.12,-524.5 157.12,-530.5 157.12,-536.5 157.12,-536.5 157.12,-548.5 157.12,-548.5 157.12,-554.5 151.12,-560.5 145.12,-560.5"/>
<text text-anchor="middle" x="103" y="-545.75" font-family="sans" font-size="10.00">TrimGalore</text>
<text text-anchor="middle" x="103" y="-533" font-family="sans" font-size="10.00">sample: Dark_rep1</text>
</g>
<!-- 1&#45;&gt;0 -->
<g id="edge1" class="edge">
<title>1&#45;&gt;0</title>
<path fill="none" stroke="grey" stroke-width="2" d="M114.24,-523.91C129.8,-497.83 156,-446.87 156,-399.5 156,-399.5 156,-399.5 156,-176.38 156,-126.85 154.71,-100.8 195,-72 272.63,-16.5 1772.21,-18.13 2040.19,-18.86"/>
<polygon fill="grey" stroke="grey" stroke-width="2" points="2040,-22.36 2050.01,-18.89 2040.03,-15.36 2040,-22.36"/>
</g>
<!-- 5 -->
<g id="node6" class="node">
<title>5</title>
<path fill="none" stroke="#56d88a" stroke-width="2" d="M99.88,-488.5C99.88,-488.5 56.12,-488.5 56.12,-488.5 50.12,-488.5 44.12,-482.5 44.12,-476.5 44.12,-476.5 44.12,-464.5 44.12,-464.5 44.12,-458.5 50.12,-452.5 56.12,-452.5 56.12,-452.5 99.88,-452.5 99.88,-452.5 105.88,-452.5 111.88,-458.5 111.88,-464.5 111.88,-464.5 111.88,-476.5 111.88,-476.5 111.88,-482.5 105.88,-488.5 99.88,-488.5"/>
<text text-anchor="middle" x="78" y="-467.38" font-family="sans" font-size="10.00">STAR_map</text>
</g>
<!-- 1&#45;&gt;5 -->
<g id="edge49" class="edge">
<title>1&#45;&gt;5</title>
<path fill="none" stroke="grey" stroke-width="2" d="M96.69,-523.84C94.28,-517.09 91.46,-509.19 88.75,-501.61"/>
<polygon fill="grey" stroke="grey" stroke-width="2" points="92.07,-500.49 85.41,-492.25 85.48,-502.85 92.07,-500.49"/>
</g>
<!-- 2 -->
<g id="node3" class="node">
<title>2</title>
<path fill="none" stroke="#56d8d0" stroke-width="2" d="M289.12,-560.5C289.12,-560.5 204.88,-560.5 204.88,-560.5 198.88,-560.5 192.88,-554.5 192.88,-548.5 192.88,-548.5 192.88,-536.5 192.88,-536.5 192.88,-530.5 198.88,-524.5 204.88,-524.5 204.88,-524.5 289.12,-524.5 289.12,-524.5 295.12,-524.5 301.12,-530.5 301.12,-536.5 301.12,-536.5 301.12,-548.5 301.12,-548.5 301.12,-554.5 295.12,-560.5 289.12,-560.5"/>
<text text-anchor="middle" x="247" y="-545.75" font-family="sans" font-size="10.00">TrimGalore</text>
<text text-anchor="middle" x="247" y="-533" font-family="sans" font-size="10.00">sample: Dark_rep2</text>
</g>
<!-- 2&#45;&gt;0 -->
<g id="edge2" class="edge">
<title>2&#45;&gt;0</title>
<path fill="none" stroke="grey" stroke-width="2" d="M233.32,-523.76C226.3,-513.86 218.16,-501.04 213,-488.5 197.61,-451.1 194,-439.95 194,-399.5 194,-399.5 194,-399.5 194,-176.38 194,-126.7 193.47,-100.73 234,-72 310.2,-17.97 1777.09,-18.39 2040.63,-18.9"/>
<polygon fill="grey" stroke="grey" stroke-width="2" points="2040.23,-22.4 2050.24,-18.92 2040.25,-15.4 2040.23,-22.4"/>
</g>
<!-- 6 -->
<g id="node7" class="node">
<title>6</title>
<path fill="none" stroke="#56d88a" stroke-width="2" d="M277.88,-488.5C277.88,-488.5 234.12,-488.5 234.12,-488.5 228.12,-488.5 222.12,-482.5 222.12,-476.5 222.12,-476.5 222.12,-464.5 222.12,-464.5 222.12,-458.5 228.12,-452.5 234.12,-452.5 234.12,-452.5 277.88,-452.5 277.88,-452.5 283.88,-452.5 289.88,-458.5 289.88,-464.5 289.88,-464.5 289.88,-476.5 289.88,-476.5 289.88,-482.5 283.88,-488.5 277.88,-488.5"/>
<text text-anchor="middle" x="256" y="-467.38" font-family="sans" font-size="10.00">STAR_map</text>
</g>
<!-- 2&#45;&gt;6 -->
<g id="edge50" class="edge">
<title>2&#45;&gt;6</title>
<path fill="none" stroke="grey" stroke-width="2" d="M249.27,-523.84C250.12,-517.25 251.1,-509.58 252.06,-502.17"/>
<polygon fill="grey" stroke="grey" stroke-width="2" points="255.51,-502.77 253.31,-492.4 248.57,-501.88 255.51,-502.77"/>
</g>
<!-- 3 -->
<g id="node4" class="node">
<title>3</title>
<path fill="none" stroke="#56d8d0" stroke-width="2" d="M4049.38,-560.5C4049.38,-560.5 3942.62,-560.5 3942.62,-560.5 3936.62,-560.5 3930.62,-554.5 3930.62,-548.5 3930.62,-548.5 3930.62,-536.5 3930.62,-536.5 3930.62,-530.5 3936.62,-524.5 3942.62,-524.5 3942.62,-524.5 4049.38,-524.5 4049.38,-524.5 4055.38,-524.5 4061.38,-530.5 4061.38,-536.5 4061.38,-536.5 4061.38,-548.5 4061.38,-548.5 4061.38,-554.5 4055.38,-560.5 4049.38,-560.5"/>
<text text-anchor="middle" x="3996" y="-545.75" font-family="sans" font-size="10.00">TrimGalore</text>
<text text-anchor="middle" x="3996" y="-533" font-family="sans" font-size="10.00">sample: BlueLight_rep1</text>
</g>
<!-- 3&#45;&gt;0 -->
<g id="edge3" class="edge">
<title>3&#45;&gt;0</title>
<path fill="none" stroke="grey" stroke-width="2" d="M4004.48,-523.58C4016.22,-497.08 4036,-445.6 4036,-399.5 4036,-399.5 4036,-399.5 4036,-176.38 4036,-122.64 4021.22,-99.39 3975,-72 3892.51,-23.12 2388.71,-19.31 2121.45,-19.02"/>
<polygon fill="grey" stroke="grey" stroke-width="2" points="2121.67,-15.52 2111.67,-19.01 2121.67,-22.52 2121.67,-15.52"/>
</g>
<!-- 7 -->
<g id="node8" class="node">
<title>7</title>
<path fill="none" stroke="#56d88a" stroke-width="2" d="M3995.88,-488.5C3995.88,-488.5 3952.12,-488.5 3952.12,-488.5 3946.12,-488.5 3940.12,-482.5 3940.12,-476.5 3940.12,-476.5 3940.12,-464.5 3940.12,-464.5 3940.12,-458.5 3946.12,-452.5 3952.12,-452.5 3952.12,-452.5 3995.88,-452.5 3995.88,-452.5 4001.88,-452.5 4007.88,-458.5 4007.88,-464.5 4007.88,-464.5 4007.88,-476.5 4007.88,-476.5 4007.88,-482.5 4001.88,-488.5 3995.88,-488.5"/>
<text text-anchor="middle" x="3974" y="-467.38" font-family="sans" font-size="10.00">STAR_map</text>
</g>
<!-- 3&#45;&gt;7 -->
<g id="edge51" class="edge">
<title>3&#45;&gt;7</title>
<path fill="none" stroke="grey" stroke-width="2" d="M3990.45,-523.84C3988.33,-517.09 3985.85,-509.19 3983.46,-501.61"/>
<polygon fill="grey" stroke="grey" stroke-width="2" points="3986.87,-500.78 3980.53,-492.29 3980.19,-502.88 3986.87,-500.78"/>
</g>
<!-- 4 -->
<g id="node5" class="node">
<title>4</title>
<path fill="none" stroke="#56d8d0" stroke-width="2" d="M4252.38,-560.5C4252.38,-560.5 4145.62,-560.5 4145.62,-560.5 4139.62,-560.5 4133.62,-554.5 4133.62,-548.5 4133.62,-548.5 4133.62,-536.5 4133.62,-536.5 4133.62,-530.5 4139.62,-524.5 4145.62,-524.5 4145.62,-524.5 4252.38,-524.5 4252.38,-524.5 4258.38,-524.5 4264.38,-530.5 4264.38,-536.5 4264.38,-536.5 4264.38,-548.5 4264.38,-548.5 4264.38,-554.5 4258.38,-560.5 4252.38,-560.5"/>
<text text-anchor="middle" x="4199" y="-545.75" font-family="sans" font-size="10.00">TrimGalore</text>
<text text-anchor="middle" x="4199" y="-533" font-family="sans" font-size="10.00">sample: BlueLight_rep2</text>
</g>
<!-- 4&#45;&gt;0 -->
<g id="edge4" class="edge">
<title>4&#45;&gt;0</title>
<path fill="none" stroke="grey" stroke-width="2" d="M4205.42,-523.84C4214.5,-497.25 4230,-445.17 4230,-399.5 4230,-399.5 4230,-399.5 4230,-176.38 4230,-121.49 4211.73,-99.09 4164,-72 4071.86,-19.71 2403.72,-18.74 2121.42,-18.95"/>
<polygon fill="grey" stroke="grey" stroke-width="2" points="2121.7,-15.45 2111.71,-18.96 2121.71,-22.45 2121.7,-15.45"/>
</g>
<!-- 8 -->
<g id="node9" class="node">
<title>8</title>
<path fill="none" stroke="#56d88a" stroke-width="2" d="M4189.88,-488.5C4189.88,-488.5 4146.12,-488.5 4146.12,-488.5 4140.12,-488.5 4134.12,-482.5 4134.12,-476.5 4134.12,-476.5 4134.12,-464.5 4134.12,-464.5 4134.12,-458.5 4140.12,-452.5 4146.12,-452.5 4146.12,-452.5 4189.88,-452.5 4189.88,-452.5 4195.88,-452.5 4201.88,-458.5 4201.88,-464.5 4201.88,-464.5 4201.88,-476.5 4201.88,-476.5 4201.88,-482.5 4195.88,-488.5 4189.88,-488.5"/>
<text text-anchor="middle" x="4168" y="-467.38" font-family="sans" font-size="10.00">STAR_map</text>
</g>
<!-- 4&#45;&gt;8 -->
<g id="edge52" class="edge">
<title>4&#45;&gt;8</title>
<path fill="none" stroke="grey" stroke-width="2" d="M4191.18,-523.84C4188.12,-516.93 4184.52,-508.81 4181.09,-501.06"/>
<polygon fill="grey" stroke="grey" stroke-width="2" points="4184.4,-499.9 4177.15,-492.17 4178,-502.73 4184.4,-499.9"/>
</g>
<!-- 5&#45;&gt;0 -->
<g id="edge5" class="edge">
<title>5&#45;&gt;0</title>
<path fill="none" stroke="grey" stroke-width="2" d="M60.3,-451.5C37.29,-426.11 0,-377.29 0,-327.5 0,-327.5 0,-327.5 0,-176.38 0,-125.32 5.37,-100.11 48,-72 134.19,-15.17 1760.38,-17.95 2040.18,-18.85"/>
<polygon fill="grey" stroke="grey" stroke-width="2" points="2040.15,-22.35 2050.16,-18.88 2040.17,-15.35 2040.15,-22.35"/>
</g>
<!-- 9 -->
<g id="node10" class="node">
<title>9</title>
<path fill="none" stroke="#d85656" stroke-width="2" d="M100.62,-416.5C100.62,-416.5 55.38,-416.5 55.38,-416.5 49.38,-416.5 43.38,-410.5 43.38,-404.5 43.38,-404.5 43.38,-392.5 43.38,-392.5 43.38,-386.5 49.38,-380.5 55.38,-380.5 55.38,-380.5 100.62,-380.5 100.62,-380.5 106.62,-380.5 112.62,-386.5 112.62,-392.5 112.62,-392.5 112.62,-404.5 112.62,-404.5 112.62,-410.5 106.62,-416.5 100.62,-416.5"/>
<text text-anchor="middle" x="78" y="-395.38" font-family="sans" font-size="10.00">clean_bam</text>
</g>
<!-- 5&#45;&gt;9 -->
<g id="edge53" class="edge">
<title>5&#45;&gt;9</title>
<path fill="none" stroke="grey" stroke-width="2" d="M78,-451.84C78,-445.25 78,-437.58 78,-430.17"/>
<polygon fill="grey" stroke="grey" stroke-width="2" points="81.5,-430.43 78,-420.43 74.5,-430.43 81.5,-430.43"/>
</g>
<!-- 6&#45;&gt;0 -->
<g id="edge6" class="edge">
<title>6&#45;&gt;0</title>
<path fill="none" stroke="grey" stroke-width="2" d="M251.03,-451.73C244,-425 232,-372.75 232,-327.5 232,-327.5 232,-327.5 232,-176.38 232,-126.03 234.47,-100.45 276,-72 351.2,-20.49 1779.71,-18.83 2040.36,-18.96"/>
<polygon fill="grey" stroke="grey" stroke-width="2" points="2040.19,-22.46 2050.19,-18.96 2040.19,-15.46 2040.19,-22.46"/>
</g>
<!-- 10 -->
<g id="node11" class="node">
<title>10</title>
<path fill="none" stroke="#d85656" stroke-width="2" d="M317.62,-416.5C317.62,-416.5 272.38,-416.5 272.38,-416.5 266.38,-416.5 260.38,-410.5 260.38,-404.5 260.38,-404.5 260.38,-392.5 260.38,-392.5 260.38,-386.5 266.38,-380.5 272.38,-380.5 272.38,-380.5 317.62,-380.5 317.62,-380.5 323.62,-380.5 329.62,-386.5 329.62,-392.5 329.62,-392.5 329.62,-404.5 329.62,-404.5 329.62,-410.5 323.62,-416.5 317.62,-416.5"/>
<text text-anchor="middle" x="295" y="-395.38" font-family="sans" font-size="10.00">clean_bam</text>
</g>
<!-- 6&#45;&gt;10 -->
<g id="edge54" class="edge">
<title>6&#45;&gt;10</title>
<path fill="none" stroke="grey" stroke-width="2" d="M265.84,-451.84C269.74,-444.84 274.32,-436.62 278.69,-428.78"/>
<polygon fill="grey" stroke="grey" stroke-width="2" points="281.74,-430.49 283.55,-420.05 275.63,-427.08 281.74,-430.49"/>
</g>
<!-- 7&#45;&gt;0 -->
<g id="edge7" class="edge">
<title>7&#45;&gt;0</title>
<path fill="none" stroke="grey" stroke-width="2" d="M3978.97,-451.73C3986,-425 3998,-372.75 3998,-327.5 3998,-327.5 3998,-327.5 3998,-176.38 3998,-122.64 3983.22,-99.4 3937,-72 3856.26,-24.13 2385.64,-19.49 2121.47,-19.05"/>
<polygon fill="grey" stroke="grey" stroke-width="2" points="2121.83,-15.55 2111.82,-19.03 2121.82,-22.55 2121.83,-15.55"/>
</g>
<!-- 11 -->
<g id="node12" class="node">
<title>11</title>
<path fill="none" stroke="#d85656" stroke-width="2" d="M3957.62,-416.5C3957.62,-416.5 3912.38,-416.5 3912.38,-416.5 3906.38,-416.5 3900.38,-410.5 3900.38,-404.5 3900.38,-404.5 3900.38,-392.5 3900.38,-392.5 3900.38,-386.5 3906.38,-380.5 3912.38,-380.5 3912.38,-380.5 3957.62,-380.5 3957.62,-380.5 3963.62,-380.5 3969.62,-386.5 3969.62,-392.5 3969.62,-392.5 3969.62,-404.5 3969.62,-404.5 3969.62,-410.5 3963.62,-416.5 3957.62,-416.5"/>
<text text-anchor="middle" x="3935" y="-395.38" font-family="sans" font-size="10.00">clean_bam</text>
</g>
<!-- 7&#45;&gt;11 -->
<g id="edge55" class="edge">
<title>7&#45;&gt;11</title>
<path fill="none" stroke="grey" stroke-width="2" d="M3964.16,-451.84C3960.26,-444.84 3955.68,-436.62 3951.31,-428.78"/>
<polygon fill="grey" stroke="grey" stroke-width="2" points="3954.37,-427.08 3946.45,-420.05 3948.26,-430.49 3954.37,-427.08"/>
</g>
<!-- 8&#45;&gt;0 -->
<g id="edge8" class="edge">
<title>8&#45;&gt;0</title>
<path fill="none" stroke="grey" stroke-width="2" d="M4172.97,-451.73C4180,-425 4192,-372.75 4192,-327.5 4192,-327.5 4192,-327.5 4192,-176.38 4192,-120.77 4171.63,-98.97 4123,-72 4032.27,-21.69 2400.71,-19.07 2121.49,-18.99"/>
<polygon fill="grey" stroke="grey" stroke-width="2" points="2121.9,-15.49 2111.9,-18.99 2121.9,-22.49 2121.9,-15.49"/>
</g>
<!-- 12 -->
<g id="node13" class="node">
<title>12</title>
<path fill="none" stroke="#d85656" stroke-width="2" d="M4151.62,-416.5C4151.62,-416.5 4106.38,-416.5 4106.38,-416.5 4100.38,-416.5 4094.38,-410.5 4094.38,-404.5 4094.38,-404.5 4094.38,-392.5 4094.38,-392.5 4094.38,-386.5 4100.38,-380.5 4106.38,-380.5 4106.38,-380.5 4151.62,-380.5 4151.62,-380.5 4157.62,-380.5 4163.62,-386.5 4163.62,-392.5 4163.62,-392.5 4163.62,-404.5 4163.62,-404.5 4163.62,-410.5 4157.62,-416.5 4151.62,-416.5"/>
<text text-anchor="middle" x="4129" y="-395.38" font-family="sans" font-size="10.00">clean_bam</text>
</g>
<!-- 8&#45;&gt;12 -->
<g id="edge56" class="edge">
<title>8&#45;&gt;12</title>
<path fill="none" stroke="grey" stroke-width="2" d="M4158.16,-451.84C4154.26,-444.84 4149.68,-436.62 4145.31,-428.78"/>
<polygon fill="grey" stroke="grey" stroke-width="2" points="4148.37,-427.08 4140.45,-420.05 4142.26,-430.49 4148.37,-427.08"/>
</g>
<!-- 9&#45;&gt;0 -->
<g id="edge9" class="edge">
<title>9&#45;&gt;0</title>
<path fill="none" stroke="grey" stroke-width="2" d="M69.52,-379.58C57.78,-353.08 38,-301.6 38,-255.5 38,-255.5 38,-255.5 38,-176.38 38,-121.25 56.98,-99.08 105,-72 192.32,-22.76 1766.68,-19.25 2040.55,-19.02"/>
<polygon fill="grey" stroke="grey" stroke-width="2" points="2040.27,-22.52 2050.27,-19.01 2040.26,-15.52 2040.27,-22.52"/>
</g>
<!-- 13 -->
<g id="node14" class="node">
<title>13</title>
<path fill="none" stroke="#ced856" stroke-width="2" d="M115.88,-344.5C115.88,-344.5 78.12,-344.5 78.12,-344.5 72.12,-344.5 66.12,-338.5 66.12,-332.5 66.12,-332.5 66.12,-320.5 66.12,-320.5 66.12,-314.5 72.12,-308.5 78.12,-308.5 78.12,-308.5 115.88,-308.5 115.88,-308.5 121.88,-308.5 127.88,-314.5 127.88,-320.5 127.88,-320.5 127.88,-332.5 127.88,-332.5 127.88,-338.5 121.88,-344.5 115.88,-344.5"/>
<text text-anchor="middle" x="97" y="-323.38" font-family="sans" font-size="10.00">sort_bam</text>
</g>
<!-- 9&#45;&gt;13 -->
<g id="edge57" class="edge">
<title>9&#45;&gt;13</title>
<path fill="none" stroke="grey" stroke-width="2" d="M82.79,-379.84C84.6,-373.17 86.72,-365.39 88.75,-357.89"/>
<polygon fill="grey" stroke="grey" stroke-width="2" points="92.11,-358.89 91.35,-348.32 85.35,-357.06 92.11,-358.89"/>
</g>
<!-- 10&#45;&gt;0 -->
<g id="edge10" class="edge">
<title>10&#45;&gt;0</title>
<path fill="none" stroke="grey" stroke-width="2" d="M289.82,-379.74C282.5,-353.03 270,-300.81 270,-255.5 270,-255.5 270,-255.5 270,-176.38 270,-123.94 280.52,-99.76 325,-72 400.11,-25.12 1783.96,-19.68 2040.33,-19.07"/>
<polygon fill="grey" stroke="grey" stroke-width="2" points="2040.3,-22.57 2050.29,-19.05 2040.28,-15.57 2040.3,-22.57"/>
</g>
<!-- 14 -->
<g id="node15" class="node">
<title>14</title>
<path fill="none" stroke="#ced856" stroke-width="2" d="M347.88,-344.5C347.88,-344.5 310.12,-344.5 310.12,-344.5 304.12,-344.5 298.12,-338.5 298.12,-332.5 298.12,-332.5 298.12,-320.5 298.12,-320.5 298.12,-314.5 304.12,-308.5 310.12,-308.5 310.12,-308.5 347.88,-308.5 347.88,-308.5 353.88,-308.5 359.88,-314.5 359.88,-320.5 359.88,-320.5 359.88,-332.5 359.88,-332.5 359.88,-338.5 353.88,-344.5 347.88,-344.5"/>
<text text-anchor="middle" x="329" y="-323.38" font-family="sans" font-size="10.00">sort_bam</text>
</g>
<!-- 10&#45;&gt;14 -->
<g id="edge58" class="edge">
<title>10&#45;&gt;14</title>
<path fill="none" stroke="grey" stroke-width="2" d="M303.58,-379.84C306.94,-372.93 310.88,-364.81 314.64,-357.06"/>
<polygon fill="grey" stroke="grey" stroke-width="2" points="317.76,-358.65 318.98,-348.12 311.46,-355.59 317.76,-358.65"/>
</g>
<!-- 11&#45;&gt;0 -->
<g id="edge11" class="edge">
<title>11&#45;&gt;0</title>
<path fill="none" stroke="grey" stroke-width="2" d="M3940.18,-379.74C3947.5,-353.03 3960,-300.81 3960,-255.5 3960,-255.5 3960,-255.5 3960,-176.38 3960,-122.64 3945.21,-99.42 3899,-72 3820.05,-25.15 2383.87,-19.68 2121.85,-19.07"/>
<polygon fill="grey" stroke="grey" stroke-width="2" points="2121.96,-15.57 2111.96,-19.05 2121.95,-22.57 2121.96,-15.57"/>
</g>
<!-- 15 -->
<g id="node16" class="node">
<title>15</title>
<path fill="none" stroke="#ced856" stroke-width="2" d="M3686.88,-344.5C3686.88,-344.5 3649.12,-344.5 3649.12,-344.5 3643.12,-344.5 3637.12,-338.5 3637.12,-332.5 3637.12,-332.5 3637.12,-320.5 3637.12,-320.5 3637.12,-314.5 3643.12,-308.5 3649.12,-308.5 3649.12,-308.5 3686.88,-308.5 3686.88,-308.5 3692.88,-308.5 3698.88,-314.5 3698.88,-320.5 3698.88,-320.5 3698.88,-332.5 3698.88,-332.5 3698.88,-338.5 3692.88,-344.5 3686.88,-344.5"/>
<text text-anchor="middle" x="3668" y="-323.38" font-family="sans" font-size="10.00">sort_bam</text>
</g>
<!-- 11&#45;&gt;15 -->
<g id="edge59" class="edge">
<title>11&#45;&gt;15</title>
<path fill="none" stroke="grey" stroke-width="2" d="M3899.54,-388.2C3851.29,-375.55 3764.95,-352.92 3712.43,-339.15"/>
<polygon fill="grey" stroke="grey" stroke-width="2" points="3713.34,-335.77 3702.78,-336.62 3711.56,-342.54 3713.34,-335.77"/>
</g>
<!-- 12&#45;&gt;0 -->
<g id="edge12" class="edge">
<title>12&#45;&gt;0</title>
<path fill="none" stroke="grey" stroke-width="2" d="M4134.18,-379.74C4141.5,-353.03 4154,-300.81 4154,-255.5 4154,-255.5 4154,-255.5 4154,-176.38 4154,-119.51 4130.17,-98.78 4080,-72 3990.49,-24.22 2397.1,-19.51 2121.46,-19.05"/>
<polygon fill="grey" stroke="grey" stroke-width="2" points="2121.67,-15.55 2111.67,-19.03 2121.66,-22.55 2121.67,-15.55"/>
</g>
<!-- 16 -->
<g id="node17" class="node">
<title>16</title>
<path fill="none" stroke="#ced856" stroke-width="2" d="M4113.88,-344.5C4113.88,-344.5 4076.12,-344.5 4076.12,-344.5 4070.12,-344.5 4064.12,-338.5 4064.12,-332.5 4064.12,-332.5 4064.12,-320.5 4064.12,-320.5 4064.12,-314.5 4070.12,-308.5 4076.12,-308.5 4076.12,-308.5 4113.88,-308.5 4113.88,-308.5 4119.88,-308.5 4125.88,-314.5 4125.88,-320.5 4125.88,-320.5 4125.88,-332.5 4125.88,-332.5 4125.88,-338.5 4119.88,-344.5 4113.88,-344.5"/>
<text text-anchor="middle" x="4095" y="-323.38" font-family="sans" font-size="10.00">sort_bam</text>
</g>
<!-- 12&#45;&gt;16 -->
<g id="edge60" class="edge">
<title>12&#45;&gt;16</title>
<path fill="none" stroke="grey" stroke-width="2" d="M4120.42,-379.84C4117.06,-372.93 4113.12,-364.81 4109.36,-357.06"/>
<polygon fill="grey" stroke="grey" stroke-width="2" points="4112.54,-355.59 4105.02,-348.12 4106.24,-358.65 4112.54,-355.59"/>
</g>
<!-- 13&#45;&gt;0 -->
<g id="edge13" class="edge">
<title>13&#45;&gt;0</title>
<path fill="none" stroke="grey" stroke-width="2" d="M93.61,-307.83C85.74,-260.87 71.91,-132.4 142,-72 179.26,-39.9 1764.12,-22.24 2040.2,-19.41"/>
<polygon fill="grey" stroke="grey" stroke-width="2" points="2040.06,-22.91 2050.02,-19.31 2039.99,-15.91 2040.06,-22.91"/>
</g>
<!-- 29 -->
<g id="node30" class="node">
<title>29</title>
<path fill="none" stroke="#88d856" stroke-width="2" d="M678.5,-272.5C678.5,-272.5 605.5,-272.5 605.5,-272.5 599.5,-272.5 593.5,-266.5 593.5,-260.5 593.5,-260.5 593.5,-248.5 593.5,-248.5 593.5,-242.5 599.5,-236.5 605.5,-236.5 605.5,-236.5 678.5,-236.5 678.5,-236.5 684.5,-236.5 690.5,-242.5 690.5,-248.5 690.5,-248.5 690.5,-260.5 690.5,-260.5 690.5,-266.5 684.5,-272.5 678.5,-272.5"/>
<text text-anchor="middle" x="642" y="-251.38" font-family="sans" font-size="10.00">mark_duplicates</text>
</g>
<!-- 13&#45;&gt;29 -->
<g id="edge61" class="edge">
<title>13&#45;&gt;29</title>
<path fill="none" stroke="grey" stroke-width="2" d="M128.66,-321.43C216.27,-310.18 463.12,-278.47 579.64,-263.51"/>
<polygon fill="grey" stroke="grey" stroke-width="2" points="580.04,-266.99 589.51,-262.24 579.15,-260.04 580.04,-266.99"/>
</g>
<!-- 14&#45;&gt;0 -->
<g id="edge14" class="edge">
<title>14&#45;&gt;0</title>
<path fill="none" stroke="grey" stroke-width="2" d="M324.38,-307.73C313.3,-260.52 291.05,-131.49 361,-72 426.99,-15.88 1785.78,-17.95 2040.16,-18.83"/>
<polygon fill="grey" stroke="grey" stroke-width="2" points="2040.03,-22.33 2050.04,-18.87 2040.05,-15.33 2040.03,-22.33"/>
</g>
<!-- 30 -->
<g id="node31" class="node">
<title>30</title>
<path fill="none" stroke="#88d856" stroke-width="2" d="M2065.5,-272.5C2065.5,-272.5 1992.5,-272.5 1992.5,-272.5 1986.5,-272.5 1980.5,-266.5 1980.5,-260.5 1980.5,-260.5 1980.5,-248.5 1980.5,-248.5 1980.5,-242.5 1986.5,-236.5 1992.5,-236.5 1992.5,-236.5 2065.5,-236.5 2065.5,-236.5 2071.5,-236.5 2077.5,-242.5 2077.5,-248.5 2077.5,-248.5 2077.5,-260.5 2077.5,-260.5 2077.5,-266.5 2071.5,-272.5 2065.5,-272.5"/>
<text text-anchor="middle" x="2029" y="-251.38" font-family="sans" font-size="10.00">mark_duplicates</text>
</g>
<!-- 14&#45;&gt;30 -->
<g id="edge62" class="edge">
<title>14&#45;&gt;30</title>
<path fill="none" stroke="grey" stroke-width="2" d="M360.7,-324.19C564.29,-315.81 1688.47,-269.52 1966.7,-258.07"/>
<polygon fill="grey" stroke="grey" stroke-width="2" points="1966.81,-261.56 1976.66,-257.66 1966.52,-254.57 1966.81,-261.56"/>
</g>
<!-- 15&#45;&gt;0 -->
<g id="edge15" class="edge">
<title>15&#45;&gt;0</title>
<path fill="none" stroke="grey" stroke-width="2" d="M3671.16,-307.59C3676.04,-274.19 3681.7,-201.46 3649,-154.25 3603.02,-87.87 3565.16,-92.27 3487,-72 3351.94,-36.98 2338.05,-22.25 2121.58,-19.49"/>
<polygon fill="grey" stroke="grey" stroke-width="2" points="2121.84,-15.99 2111.8,-19.37 2121.75,-22.99 2121.84,-15.99"/>
</g>
<!-- 31 -->
<g id="node32" class="node">
<title>31</title>
<path fill="none" stroke="#88d856" stroke-width="2" d="M3337.5,-272.5C3337.5,-272.5 3264.5,-272.5 3264.5,-272.5 3258.5,-272.5 3252.5,-266.5 3252.5,-260.5 3252.5,-260.5 3252.5,-248.5 3252.5,-248.5 3252.5,-242.5 3258.5,-236.5 3264.5,-236.5 3264.5,-236.5 3337.5,-236.5 3337.5,-236.5 3343.5,-236.5 3349.5,-242.5 3349.5,-248.5 3349.5,-248.5 3349.5,-260.5 3349.5,-260.5 3349.5,-266.5 3343.5,-272.5 3337.5,-272.5"/>
<text text-anchor="middle" x="3301" y="-251.38" font-family="sans" font-size="10.00">mark_duplicates</text>
</g>
<!-- 15&#45;&gt;31 -->
<g id="edge63" class="edge">
<title>15&#45;&gt;31</title>
<path fill="none" stroke="grey" stroke-width="2" d="M3636.39,-319.47C3575.78,-307.91 3442.23,-282.44 3363.16,-267.36"/>
<polygon fill="grey" stroke="grey" stroke-width="2" points="3363.94,-263.94 3353.46,-265.51 3362.62,-270.82 3363.94,-263.94"/>
</g>
<!-- 16&#45;&gt;0 -->
<g id="edge16" class="edge">
<title>16&#45;&gt;0</title>
<path fill="none" stroke="grey" stroke-width="2" d="M4098.39,-307.83C4106.26,-260.86 4120.11,-132.38 4050,-72 4012.12,-39.37 2399.39,-22.12 2121.55,-19.39"/>
<polygon fill="grey" stroke="grey" stroke-width="2" points="2121.69,-15.89 2111.66,-19.29 2121.63,-22.89 2121.69,-15.89"/>
</g>
<!-- 32 -->
<g id="node33" class="node">
<title>32</title>
<path fill="none" stroke="#88d856" stroke-width="2" d="M3624.5,-272.5C3624.5,-272.5 3551.5,-272.5 3551.5,-272.5 3545.5,-272.5 3539.5,-266.5 3539.5,-260.5 3539.5,-260.5 3539.5,-248.5 3539.5,-248.5 3539.5,-242.5 3545.5,-236.5 3551.5,-236.5 3551.5,-236.5 3624.5,-236.5 3624.5,-236.5 3630.5,-236.5 3636.5,-242.5 3636.5,-248.5 3636.5,-248.5 3636.5,-260.5 3636.5,-260.5 3636.5,-266.5 3630.5,-272.5 3624.5,-272.5"/>
<text text-anchor="middle" x="3588" y="-251.38" font-family="sans" font-size="10.00">mark_duplicates</text>
</g>
<!-- 16&#45;&gt;32 -->
<g id="edge64" class="edge">
<title>16&#45;&gt;32</title>
<path fill="none" stroke="grey" stroke-width="2" d="M4063.28,-321.12C3980.9,-309.75 3758.94,-279.1 3650.01,-264.06"/>
<polygon fill="grey" stroke="grey" stroke-width="2" points="3650.69,-260.62 3640.31,-262.72 3649.73,-267.56 3650.69,-260.62"/>
</g>
<!-- 17 -->
<g id="node18" class="node">
<title>17</title>
<path fill="none" stroke="#569ad8" stroke-width="2" d="M973.12,-200.5C973.12,-200.5 888.88,-200.5 888.88,-200.5 882.88,-200.5 876.88,-194.5 876.88,-188.5 876.88,-188.5 876.88,-166.25 876.88,-166.25 876.88,-160.25 882.88,-154.25 888.88,-154.25 888.88,-154.25 973.12,-154.25 973.12,-154.25 979.12,-154.25 985.12,-160.25 985.12,-166.25 985.12,-166.25 985.12,-188.5 985.12,-188.5 985.12,-194.5 979.12,-200.5 973.12,-200.5"/>
<text text-anchor="middle" x="931" y="-187" font-family="sans" font-size="10.00">fastqc</text>
<text text-anchor="middle" x="931" y="-174.25" font-family="sans" font-size="10.00">end: 1</text>
<text text-anchor="middle" x="931" y="-161.5" font-family="sans" font-size="10.00">sample: Dark_rep1</text>
</g>
<!-- 17&#45;&gt;0 -->
<g id="edge17" class="edge">
<title>17&#45;&gt;0</title>
<path fill="none" stroke="grey" stroke-width="2" d="M981.88,-153.3C1039.35,-128.42 1136.32,-89.96 1224,-72 1383.14,-39.41 1892.47,-23.9 2040.37,-20"/>
<polygon fill="grey" stroke="grey" stroke-width="2" points="2040.21,-23.51 2050.12,-19.75 2040.03,-16.51 2040.21,-23.51"/>
</g>
<!-- 41 -->
<g id="node42" class="node">
<title>41</title>
<path fill="none" stroke="#56d86b" stroke-width="2" d="M2124.88,-113.12C2124.88,-113.12 2093.12,-113.12 2093.12,-113.12 2087.12,-113.12 2081.12,-107.12 2081.12,-101.12 2081.12,-101.12 2081.12,-89.12 2081.12,-89.12 2081.12,-83.12 2087.12,-77.12 2093.12,-77.12 2093.12,-77.12 2124.88,-77.12 2124.88,-77.12 2130.88,-77.12 2136.88,-83.12 2136.88,-89.12 2136.88,-89.12 2136.88,-101.12 2136.88,-101.12 2136.88,-107.12 2130.88,-113.12 2124.88,-113.12"/>
<text text-anchor="middle" x="2109" y="-92" font-family="sans" font-size="10.00">multiQC</text>
</g>
<!-- 17&#45;&gt;41 -->
<g id="edge73" class="edge">
<title>17&#45;&gt;41</title>
<path fill="none" stroke="grey" stroke-width="2" d="M986.07,-156.04C988.73,-155.37 991.38,-154.77 994,-154.25 1205.41,-112.51 1890.68,-99.43 2067.21,-96.71"/>
<polygon fill="grey" stroke="grey" stroke-width="2" points="2067.21,-100.21 2077.16,-96.56 2067.11,-93.21 2067.21,-100.21"/>
</g>
<!-- 18 -->
<g id="node19" class="node">
<title>18</title>
<path fill="none" stroke="#569ad8" stroke-width="2" d="M1099.12,-200.5C1099.12,-200.5 1014.88,-200.5 1014.88,-200.5 1008.88,-200.5 1002.88,-194.5 1002.88,-188.5 1002.88,-188.5 1002.88,-166.25 1002.88,-166.25 1002.88,-160.25 1008.88,-154.25 1014.88,-154.25 1014.88,-154.25 1099.12,-154.25 1099.12,-154.25 1105.12,-154.25 1111.12,-160.25 1111.12,-166.25 1111.12,-166.25 1111.12,-188.5 1111.12,-188.5 1111.12,-194.5 1105.12,-200.5 1099.12,-200.5"/>
<text text-anchor="middle" x="1057" y="-187" font-family="sans" font-size="10.00">fastqc</text>
<text text-anchor="middle" x="1057" y="-174.25" font-family="sans" font-size="10.00">end: 2</text>
<text text-anchor="middle" x="1057" y="-161.5" font-family="sans" font-size="10.00">sample: Dark_rep1</text>
</g>
<!-- 18&#45;&gt;0 -->
<g id="edge18" class="edge">
<title>18&#45;&gt;0</title>
<path fill="none" stroke="grey" stroke-width="2" d="M1111.85,-155.31C1178.43,-130.75 1294.65,-91.08 1398,-72 1638.62,-27.58 1933.6,-20.33 2040.17,-19.19"/>
<polygon fill="grey" stroke="grey" stroke-width="2" points="2040.08,-22.69 2050.05,-19.1 2040.02,-15.69 2040.08,-22.69"/>
</g>
<!-- 18&#45;&gt;41 -->
<g id="edge74" class="edge">
<title>18&#45;&gt;41</title>
<path fill="none" stroke="grey" stroke-width="2" d="M1112.07,-156.06C1114.73,-155.38 1117.39,-154.78 1120,-154.25 1305.75,-116.94 1904.24,-100.8 2067.52,-97.02"/>
<polygon fill="grey" stroke="grey" stroke-width="2" points="2067.29,-100.53 2077.21,-96.8 2067.13,-93.53 2067.29,-100.53"/>
</g>
<!-- 19 -->
<g id="node20" class="node">
<title>19</title>
<path fill="none" stroke="#569ad8" stroke-width="2" d="M1225.12,-200.5C1225.12,-200.5 1140.88,-200.5 1140.88,-200.5 1134.88,-200.5 1128.88,-194.5 1128.88,-188.5 1128.88,-188.5 1128.88,-166.25 1128.88,-166.25 1128.88,-160.25 1134.88,-154.25 1140.88,-154.25 1140.88,-154.25 1225.12,-154.25 1225.12,-154.25 1231.12,-154.25 1237.12,-160.25 1237.12,-166.25 1237.12,-166.25 1237.12,-188.5 1237.12,-188.5 1237.12,-194.5 1231.12,-200.5 1225.12,-200.5"/>
<text text-anchor="middle" x="1183" y="-187" font-family="sans" font-size="10.00">fastqc</text>
<text text-anchor="middle" x="1183" y="-174.25" font-family="sans" font-size="10.00">end: 1</text>
<text text-anchor="middle" x="1183" y="-161.5" font-family="sans" font-size="10.00">sample: Dark_rep2</text>
</g>
<!-- 19&#45;&gt;0 -->
<g id="edge19" class="edge">
<title>19&#45;&gt;0</title>
<path fill="none" stroke="grey" stroke-width="2" d="M1237.84,-156.65C1240.59,-155.81 1243.32,-155 1246,-154.25 1330.44,-130.53 1545.47,-86.29 1632,-72 1781.71,-47.27 1961.35,-29.67 2040.35,-22.53"/>
<polygon fill="grey" stroke="grey" stroke-width="2" points="2040.36,-26.04 2050.01,-21.66 2039.74,-19.07 2040.36,-26.04"/>
</g>
<!-- 19&#45;&gt;41 -->
<g id="edge75" class="edge">
<title>19&#45;&gt;41</title>
<path fill="none" stroke="grey" stroke-width="2" d="M1238.08,-156.09C1240.74,-155.4 1243.39,-154.79 1246,-154.25 1326.94,-137.63 1906.55,-106.63 2067.59,-98.25"/>
<polygon fill="grey" stroke="grey" stroke-width="2" points="2067.75,-101.75 2077.56,-97.74 2067.39,-94.76 2067.75,-101.75"/>
</g>
<!-- 20 -->
<g id="node21" class="node">
<title>20</title>
<path fill="none" stroke="#569ad8" stroke-width="2" d="M1351.12,-200.5C1351.12,-200.5 1266.88,-200.5 1266.88,-200.5 1260.88,-200.5 1254.88,-194.5 1254.88,-188.5 1254.88,-188.5 1254.88,-166.25 1254.88,-166.25 1254.88,-160.25 1260.88,-154.25 1266.88,-154.25 1266.88,-154.25 1351.12,-154.25 1351.12,-154.25 1357.12,-154.25 1363.12,-160.25 1363.12,-166.25 1363.12,-166.25 1363.12,-188.5 1363.12,-188.5 1363.12,-194.5 1357.12,-200.5 1351.12,-200.5"/>
<text text-anchor="middle" x="1309" y="-187" font-family="sans" font-size="10.00">fastqc</text>
<text text-anchor="middle" x="1309" y="-174.25" font-family="sans" font-size="10.00">end: 2</text>
<text text-anchor="middle" x="1309" y="-161.5" font-family="sans" font-size="10.00">sample: Dark_rep2</text>
</g>
<!-- 20&#45;&gt;0 -->
<g id="edge20" class="edge">
<title>20&#45;&gt;0</title>
<path fill="none" stroke="grey" stroke-width="2" d="M1363.96,-156.62C1367,-155.76 1370.03,-154.96 1373,-154.25 1486.01,-127.14 1518.89,-144.95 1632,-118.25 1694.55,-103.48 1706.68,-87.71 1769,-72 1865.09,-47.78 1980.65,-31.38 2040.55,-23.8"/>
<polygon fill="grey" stroke="grey" stroke-width="2" points="2040.65,-27.32 2050.15,-22.61 2039.79,-20.37 2040.65,-27.32"/>
</g>
<!-- 20&#45;&gt;41 -->
<g id="edge76" class="edge">
<title>20&#45;&gt;41</title>
<path fill="none" stroke="grey" stroke-width="2" d="M1363.91,-156.4C1366.96,-155.6 1370.01,-154.87 1373,-154.25 1441.06,-140.04 1922.47,-108.16 2067.65,-98.77"/>
<polygon fill="grey" stroke="grey" stroke-width="2" points="2067.47,-102.29 2077.22,-98.16 2067.02,-95.31 2067.47,-102.29"/>
</g>
<!-- 21 -->
<g id="node22" class="node">
<title>21</title>
<path fill="none" stroke="#569ad8" stroke-width="2" d="M1500.38,-200.5C1500.38,-200.5 1393.62,-200.5 1393.62,-200.5 1387.62,-200.5 1381.62,-194.5 1381.62,-188.5 1381.62,-188.5 1381.62,-166.25 1381.62,-166.25 1381.62,-160.25 1387.62,-154.25 1393.62,-154.25 1393.62,-154.25 1500.38,-154.25 1500.38,-154.25 1506.38,-154.25 1512.38,-160.25 1512.38,-166.25 1512.38,-166.25 1512.38,-188.5 1512.38,-188.5 1512.38,-194.5 1506.38,-200.5 1500.38,-200.5"/>
<text text-anchor="middle" x="1447" y="-187" font-family="sans" font-size="10.00">fastqc</text>
<text text-anchor="middle" x="1447" y="-174.25" font-family="sans" font-size="10.00">end: 1</text>
<text text-anchor="middle" x="1447" y="-161.5" font-family="sans" font-size="10.00">sample: BlueLight_rep1</text>
</g>
<!-- 21&#45;&gt;0 -->
<g id="edge21" class="edge">
<title>21&#45;&gt;0</title>
<path fill="none" stroke="grey" stroke-width="2" d="M1513.12,-156.32C1516.11,-155.58 1519.08,-154.89 1522,-154.25 1630.36,-130.5 1663.5,-152.55 1769,-118.25 1811.02,-104.59 1815.62,-87.49 1857,-72 1919.17,-48.73 1994.96,-33.35 2040.53,-25.41"/>
<polygon fill="grey" stroke="grey" stroke-width="2" points="2040.84,-28.91 2050.12,-23.78 2039.67,-22.01 2040.84,-28.91"/>
</g>
<!-- 21&#45;&gt;41 -->
<g id="edge77" class="edge">
<title>21&#45;&gt;41</title>
<path fill="none" stroke="grey" stroke-width="2" d="M1513.09,-156.15C1516.09,-155.46 1519.07,-154.82 1522,-154.25 1575.28,-143.85 1942.96,-110.81 2067.7,-99.76"/>
<polygon fill="grey" stroke="grey" stroke-width="2" points="2067.68,-103.28 2077.33,-98.91 2067.06,-96.3 2067.68,-103.28"/>
</g>
<!-- 22 -->
<g id="node23" class="node">
<title>22</title>
<path fill="none" stroke="#569ad8" stroke-width="2" d="M1649.38,-200.5C1649.38,-200.5 1542.62,-200.5 1542.62,-200.5 1536.62,-200.5 1530.62,-194.5 1530.62,-188.5 1530.62,-188.5 1530.62,-166.25 1530.62,-166.25 1530.62,-160.25 1536.62,-154.25 1542.62,-154.25 1542.62,-154.25 1649.38,-154.25 1649.38,-154.25 1655.38,-154.25 1661.38,-160.25 1661.38,-166.25 1661.38,-166.25 1661.38,-188.5 1661.38,-188.5 1661.38,-194.5 1655.38,-200.5 1649.38,-200.5"/>
<text text-anchor="middle" x="1596" y="-187" font-family="sans" font-size="10.00">fastqc</text>
<text text-anchor="middle" x="1596" y="-174.25" font-family="sans" font-size="10.00">end: 2</text>
<text text-anchor="middle" x="1596" y="-161.5" font-family="sans" font-size="10.00">sample: BlueLight_rep1</text>
</g>
<!-- 22&#45;&gt;0 -->
<g id="edge22" class="edge">
<title>22&#45;&gt;0</title>
<path fill="none" stroke="grey" stroke-width="2" d="M1662.16,-156.48C1665.14,-155.71 1668.1,-154.96 1671,-154.25 1752.81,-134.32 1779.85,-151.98 1857,-118.25 1888.83,-104.33 1889.12,-87.91 1920,-72 1959.03,-51.9 2007.25,-37.22 2040.69,-28.48"/>
<polygon fill="grey" stroke="grey" stroke-width="2" points="2041.41,-31.91 2050.24,-26.06 2039.69,-25.12 2041.41,-31.91"/>
</g>
<!-- 22&#45;&gt;41 -->
<g id="edge78" class="edge">
<title>22&#45;&gt;41</title>
<path fill="none" stroke="grey" stroke-width="2" d="M1662.11,-156.27C1665.11,-155.55 1668.08,-154.87 1671,-154.25 1746.36,-138.24 1973.12,-111.57 2067.3,-100.82"/>
<polygon fill="grey" stroke="grey" stroke-width="2" points="2067.65,-104.31 2077.19,-99.7 2066.86,-97.35 2067.65,-104.31"/>
</g>
<!-- 23 -->
<g id="node24" class="node">
<title>23</title>
<path fill="none" stroke="#569ad8" stroke-width="2" d="M1798.38,-200.5C1798.38,-200.5 1691.62,-200.5 1691.62,-200.5 1685.62,-200.5 1679.62,-194.5 1679.62,-188.5 1679.62,-188.5 1679.62,-166.25 1679.62,-166.25 1679.62,-160.25 1685.62,-154.25 1691.62,-154.25 1691.62,-154.25 1798.38,-154.25 1798.38,-154.25 1804.38,-154.25 1810.38,-160.25 1810.38,-166.25 1810.38,-166.25 1810.38,-188.5 1810.38,-188.5 1810.38,-194.5 1804.38,-200.5 1798.38,-200.5"/>
<text text-anchor="middle" x="1745" y="-187" font-family="sans" font-size="10.00">fastqc</text>
<text text-anchor="middle" x="1745" y="-174.25" font-family="sans" font-size="10.00">end: 1</text>
<text text-anchor="middle" x="1745" y="-161.5" font-family="sans" font-size="10.00">sample: BlueLight_rep2</text>
</g>
<!-- 23&#45;&gt;0 -->
<g id="edge23" class="edge">
<title>23&#45;&gt;0</title>
<path fill="none" stroke="grey" stroke-width="2" d="M1810.96,-155.95C1856.32,-141.65 1910.11,-124.09 1920,-118.25 1946.06,-102.85 1944.95,-88.99 1970,-72 1992.26,-56.9 2019.5,-43.83 2041.41,-34.44"/>
<polygon fill="grey" stroke="grey" stroke-width="2" points="2042.62,-37.73 2050.51,-30.65 2039.93,-31.27 2042.62,-37.73"/>
</g>
<!-- 23&#45;&gt;41 -->
<g id="edge79" class="edge">
<title>23&#45;&gt;41</title>
<path fill="none" stroke="grey" stroke-width="2" d="M1811.17,-156.51C1814.15,-155.73 1817.1,-154.97 1820,-154.25 1907.61,-132.56 2011.67,-113.17 2067.93,-103.2"/>
<polygon fill="grey" stroke="grey" stroke-width="2" points="2068.29,-106.7 2077.53,-101.52 2067.07,-99.8 2068.29,-106.7"/>
</g>
<!-- 24 -->
<g id="node25" class="node">
<title>24</title>
<path fill="none" stroke="#569ad8" stroke-width="2" d="M1947.38,-200.5C1947.38,-200.5 1840.62,-200.5 1840.62,-200.5 1834.62,-200.5 1828.62,-194.5 1828.62,-188.5 1828.62,-188.5 1828.62,-166.25 1828.62,-166.25 1828.62,-160.25 1834.62,-154.25 1840.62,-154.25 1840.62,-154.25 1947.38,-154.25 1947.38,-154.25 1953.38,-154.25 1959.38,-160.25 1959.38,-166.25 1959.38,-166.25 1959.38,-188.5 1959.38,-188.5 1959.38,-194.5 1953.38,-200.5 1947.38,-200.5"/>
<text text-anchor="middle" x="1894" y="-187" font-family="sans" font-size="10.00">fastqc</text>
<text text-anchor="middle" x="1894" y="-174.25" font-family="sans" font-size="10.00">end: 2</text>
<text text-anchor="middle" x="1894" y="-161.5" font-family="sans" font-size="10.00">sample: BlueLight_rep2</text>
</g>
<!-- 24&#45;&gt;0 -->
<g id="edge24" class="edge">
<title>24&#45;&gt;0</title>
<path fill="none" stroke="grey" stroke-width="2" d="M1925.11,-153.43C1939.04,-142.94 1955.54,-130.22 1970,-118.25 1998.84,-94.38 2030.58,-65.76 2052.7,-45.4"/>
<polygon fill="grey" stroke="grey" stroke-width="2" points="2054.95,-48.08 2059.92,-38.72 2050.2,-42.94 2054.95,-48.08"/>
</g>
<!-- 24&#45;&gt;41 -->
<g id="edge80" class="edge">
<title>24&#45;&gt;41</title>
<path fill="none" stroke="grey" stroke-width="2" d="M1955.9,-153.27C1992.04,-139.78 2036.62,-123.14 2068.34,-111.3"/>
<polygon fill="grey" stroke="grey" stroke-width="2" points="2069.25,-114.7 2077.4,-107.92 2066.81,-108.14 2069.25,-114.7"/>
</g>
<!-- 25 -->
<g id="node26" class="node">
<title>25</title>
<path fill="none" stroke="#d89c56" stroke-width="2" d="M2475.12,-195.38C2475.12,-195.38 2390.88,-195.38 2390.88,-195.38 2384.88,-195.38 2378.88,-189.38 2378.88,-183.38 2378.88,-183.38 2378.88,-171.38 2378.88,-171.38 2378.88,-165.38 2384.88,-159.38 2390.88,-159.38 2390.88,-159.38 2475.12,-159.38 2475.12,-159.38 2481.12,-159.38 2487.12,-165.38 2487.12,-171.38 2487.12,-171.38 2487.12,-183.38 2487.12,-183.38 2487.12,-189.38 2481.12,-195.38 2475.12,-195.38"/>
<text text-anchor="middle" x="2433" y="-180.62" font-family="sans" font-size="10.00">fastq_screen</text>
<text text-anchor="middle" x="2433" y="-167.88" font-family="sans" font-size="10.00">sample: Dark_rep1</text>
</g>
<!-- 25&#45;&gt;0 -->
<g id="edge25" class="edge">
<title>25&#45;&gt;0</title>
<path fill="none" stroke="grey" stroke-width="2" d="M2392.96,-158.48C2325.11,-128.14 2188.32,-66.98 2120.7,-36.75"/>
<polygon fill="grey" stroke="grey" stroke-width="2" points="2122.23,-33.6 2111.67,-32.71 2119.37,-39.99 2122.23,-33.6"/>
</g>
<!-- 25&#45;&gt;41 -->
<g id="edge81" class="edge">
<title>25&#45;&gt;41</title>
<path fill="none" stroke="grey" stroke-width="2" d="M2379.32,-158.41C2374.49,-156.94 2369.67,-155.54 2365,-154.25 2289.98,-133.58 2201.15,-114.62 2150.31,-104.29"/>
<polygon fill="grey" stroke="grey" stroke-width="2" points="2151.09,-100.88 2140.59,-102.33 2149.7,-107.74 2151.09,-100.88"/>
</g>
<!-- 26 -->
<g id="node27" class="node">
<title>26</title>
<path fill="none" stroke="#d89c56" stroke-width="2" d="M2601.12,-195.38C2601.12,-195.38 2516.88,-195.38 2516.88,-195.38 2510.88,-195.38 2504.88,-189.38 2504.88,-183.38 2504.88,-183.38 2504.88,-171.38 2504.88,-171.38 2504.88,-165.38 2510.88,-159.38 2516.88,-159.38 2516.88,-159.38 2601.12,-159.38 2601.12,-159.38 2607.12,-159.38 2613.12,-165.38 2613.12,-171.38 2613.12,-171.38 2613.12,-183.38 2613.12,-183.38 2613.12,-189.38 2607.12,-195.38 2601.12,-195.38"/>
<text text-anchor="middle" x="2559" y="-180.62" font-family="sans" font-size="10.00">fastq_screen</text>
<text text-anchor="middle" x="2559" y="-167.88" font-family="sans" font-size="10.00">sample: Dark_rep2</text>
</g>
<!-- 26&#45;&gt;0 -->
<g id="edge26" class="edge">
<title>26&#45;&gt;0</title>
<path fill="none" stroke="grey" stroke-width="2" d="M2511.18,-158.39C2453.25,-136.84 2352.54,-100.12 2265,-72 2215.88,-56.22 2158.69,-40.09 2121.27,-29.84"/>
<polygon fill="grey" stroke="grey" stroke-width="2" points="2122.39,-26.52 2111.82,-27.27 2120.55,-33.27 2122.39,-26.52"/>
</g>
<!-- 26&#45;&gt;41 -->
<g id="edge82" class="edge">
<title>26&#45;&gt;41</title>
<path fill="none" stroke="grey" stroke-width="2" d="M2510.78,-158.41C2505.83,-156.87 2500.84,-155.45 2496,-154.25 2372.11,-123.48 2221.61,-106.57 2150.3,-99.75"/>
<polygon fill="grey" stroke="grey" stroke-width="2" points="2150.82,-96.28 2140.54,-98.83 2150.17,-103.25 2150.82,-96.28"/>
</g>
<!-- 27 -->
<g id="node28" class="node">
<title>27</title>
<path fill="none" stroke="#d89c56" stroke-width="2" d="M2750.38,-195.38C2750.38,-195.38 2643.62,-195.38 2643.62,-195.38 2637.62,-195.38 2631.62,-189.38 2631.62,-183.38 2631.62,-183.38 2631.62,-171.38 2631.62,-171.38 2631.62,-165.38 2637.62,-159.38 2643.62,-159.38 2643.62,-159.38 2750.38,-159.38 2750.38,-159.38 2756.38,-159.38 2762.38,-165.38 2762.38,-171.38 2762.38,-171.38 2762.38,-183.38 2762.38,-183.38 2762.38,-189.38 2756.38,-195.38 2750.38,-195.38"/>
<text text-anchor="middle" x="2697" y="-180.62" font-family="sans" font-size="10.00">fastq_screen</text>
<text text-anchor="middle" x="2697" y="-167.88" font-family="sans" font-size="10.00">sample: BlueLight_rep1</text>
</g>
<!-- 27&#45;&gt;0 -->
<g id="edge27" class="edge">
<title>27&#45;&gt;0</title>
<path fill="none" stroke="grey" stroke-width="2" d="M2636.01,-158.38C2631.27,-156.98 2626.56,-155.59 2622,-154.25 2498,-117.68 2468.47,-103.12 2343,-72 2265.1,-52.68 2172.88,-35.27 2121.24,-26.01"/>
<polygon fill="grey" stroke="grey" stroke-width="2" points="2122.15,-22.62 2111.69,-24.32 2120.93,-29.51 2122.15,-22.62"/>
</g>
<!-- 27&#45;&gt;41 -->
<g id="edge83" class="edge">
<title>27&#45;&gt;41</title>
<path fill="none" stroke="grey" stroke-width="2" d="M2639.93,-158.43C2633.91,-156.87 2627.85,-155.44 2622,-154.25 2448.79,-119.17 2238.09,-103.65 2150.39,-98.37"/>
<polygon fill="grey" stroke="grey" stroke-width="2" points="2150.84,-94.89 2140.66,-97.79 2150.43,-101.87 2150.84,-94.89"/>
</g>
<!-- 28 -->
<g id="node29" class="node">
<title>28</title>
<path fill="none" stroke="#d89c56" stroke-width="2" d="M2899.38,-195.38C2899.38,-195.38 2792.62,-195.38 2792.62,-195.38 2786.62,-195.38 2780.62,-189.38 2780.62,-183.38 2780.62,-183.38 2780.62,-171.38 2780.62,-171.38 2780.62,-165.38 2786.62,-159.38 2792.62,-159.38 2792.62,-159.38 2899.38,-159.38 2899.38,-159.38 2905.38,-159.38 2911.38,-165.38 2911.38,-171.38 2911.38,-171.38 2911.38,-183.38 2911.38,-183.38 2911.38,-189.38 2905.38,-195.38 2899.38,-195.38"/>
<text text-anchor="middle" x="2846" y="-180.62" font-family="sans" font-size="10.00">fastq_screen</text>
<text text-anchor="middle" x="2846" y="-167.88" font-family="sans" font-size="10.00">sample: BlueLight_rep2</text>
</g>
<!-- 28&#45;&gt;0 -->
<g id="edge28" class="edge">
<title>28&#45;&gt;0</title>
<path fill="none" stroke="grey" stroke-width="2" d="M2785.89,-158.38C2780.86,-156.95 2775.85,-155.56 2771,-154.25 2622.99,-114.27 2586.42,-101.63 2436,-72 2322.74,-49.69 2187.52,-31.92 2121.42,-23.8"/>
<polygon fill="grey" stroke="grey" stroke-width="2" points="2122.12,-20.36 2111.77,-22.62 2121.28,-27.31 2122.12,-20.36"/>
</g>
<!-- 28&#45;&gt;41 -->
<g id="edge84" class="edge">
<title>28&#45;&gt;41</title>
<path fill="none" stroke="grey" stroke-width="2" d="M2789.37,-158.38C2783.21,-156.81 2777,-155.39 2771,-154.25 2539.15,-110.33 2255.2,-99.49 2150.4,-96.9"/>
<polygon fill="grey" stroke="grey" stroke-width="2" points="2150.77,-93.41 2140.69,-96.68 2150.61,-100.41 2150.77,-93.41"/>
</g>
<!-- 29&#45;&gt;0 -->
<g id="edge29" class="edge">
<title>29&#45;&gt;0</title>
<path fill="none" stroke="grey" stroke-width="2" d="M592.77,-251.36C521.07,-247.11 393.35,-234.79 365,-200.5 325.63,-152.89 364.24,-102.43 418,-72 490.74,-30.82 1791.83,-20.78 2040.21,-19.23"/>
<polygon fill="grey" stroke="grey" stroke-width="2" points="2040.15,-22.73 2050.13,-19.17 2040.11,-15.73 2040.15,-22.73"/>
</g>
<!-- 33 -->
<g id="node34" class="node">
<title>33</title>
<path fill="none" stroke="#567bd8" stroke-width="2" d="M808.5,-195.38C808.5,-195.38 723.5,-195.38 723.5,-195.38 717.5,-195.38 711.5,-189.38 711.5,-183.38 711.5,-183.38 711.5,-171.38 711.5,-171.38 711.5,-165.38 717.5,-159.38 723.5,-159.38 723.5,-159.38 808.5,-159.38 808.5,-159.38 814.5,-159.38 820.5,-165.38 820.5,-171.38 820.5,-171.38 820.5,-183.38 820.5,-183.38 820.5,-189.38 814.5,-195.38 808.5,-195.38"/>
<text text-anchor="middle" x="766" y="-174.25" font-family="sans" font-size="10.00">picard_rna_metrics</text>
</g>
<!-- 29&#45;&gt;33 -->
<g id="edge65" class="edge">
<title>29&#45;&gt;33</title>
<path fill="none" stroke="grey" stroke-width="2" d="M671.7,-235.51C687.81,-225.75 707.94,-213.55 725.47,-202.93"/>
<polygon fill="grey" stroke="grey" stroke-width="2" points="727.21,-205.97 733.95,-197.79 723.59,-199.98 727.21,-205.97"/>
</g>
<!-- 37 -->
<g id="node38" class="node">
<title>37</title>
<path fill="none" stroke="#56c1d8" stroke-width="2" d="M681.88,-195.38C681.88,-195.38 602.12,-195.38 602.12,-195.38 596.12,-195.38 590.12,-189.38 590.12,-183.38 590.12,-183.38 590.12,-171.38 590.12,-171.38 590.12,-165.38 596.12,-159.38 602.12,-159.38 602.12,-159.38 681.88,-159.38 681.88,-159.38 687.88,-159.38 693.88,-165.38 693.88,-171.38 693.88,-171.38 693.88,-183.38 693.88,-183.38 693.88,-189.38 687.88,-195.38 681.88,-195.38"/>
<text text-anchor="middle" x="642" y="-174.25" font-family="sans" font-size="10.00">picard_insert_size</text>
</g>
<!-- 29&#45;&gt;37 -->
<g id="edge69" class="edge">
<title>29&#45;&gt;37</title>
<path fill="none" stroke="grey" stroke-width="2" d="M642,-235.7C642,-227.8 642,-218.28 642,-209.28"/>
<polygon fill="grey" stroke="grey" stroke-width="2" points="645.5,-209.34 642,-199.34 638.5,-209.34 645.5,-209.34"/>
</g>
<!-- 29&#45;&gt;41 -->
<g id="edge85" class="edge">
<title>29&#45;&gt;41</title>
<path fill="none" stroke="grey" stroke-width="2" d="M691.46,-253.41C939.26,-252.76 2036.04,-247.23 2090,-200.5 2110.49,-182.76 2113.7,-150.94 2112.73,-127.08"/>
<polygon fill="grey" stroke="grey" stroke-width="2" points="2116.22,-126.85 2112,-117.14 2109.24,-127.37 2116.22,-126.85"/>
</g>
<!-- 43 -->
<g id="node44" class="node">
<title>43</title>
<path fill="none" stroke="#d8bc56" stroke-width="2" d="M3219.5,-195.38C3219.5,-195.38 3068.5,-195.38 3068.5,-195.38 3062.5,-195.38 3056.5,-189.38 3056.5,-183.38 3056.5,-183.38 3056.5,-171.38 3056.5,-171.38 3056.5,-165.38 3062.5,-159.38 3068.5,-159.38 3068.5,-159.38 3219.5,-159.38 3219.5,-159.38 3225.5,-159.38 3231.5,-165.38 3231.5,-171.38 3231.5,-171.38 3231.5,-183.38 3231.5,-183.38 3231.5,-189.38 3225.5,-195.38 3219.5,-195.38"/>
<text text-anchor="middle" x="3144" y="-180.62" font-family="sans" font-size="10.00">multiBamSummary_all_samples</text>
<text text-anchor="middle" x="3144" y="-167.88" font-family="sans" font-size="10.00">line: SPT5longLEXY_3&#45;4h</text>
</g>
<!-- 29&#45;&gt;43 -->
<g id="edge98" class="edge">
<title>29&#45;&gt;43</title>
<path fill="none" stroke="grey" stroke-width="2" d="M691.44,-253.02C1013.44,-249.8 2806.63,-230.65 3048,-200.5 3052.29,-199.96 3056.66,-199.32 3061.07,-198.59"/>
<polygon fill="grey" stroke="grey" stroke-width="2" points="3061.32,-202.1 3070.54,-196.88 3060.07,-195.21 3061.32,-202.1"/>
</g>
<!-- 44 -->
<g id="node45" class="node">
<title>44</title>
<path fill="none" stroke="#afd856" stroke-width="2" d="M451.75,-195.38C451.75,-195.38 386.25,-195.38 386.25,-195.38 380.25,-195.38 374.25,-189.38 374.25,-183.38 374.25,-183.38 374.25,-171.38 374.25,-171.38 374.25,-165.38 380.25,-159.38 386.25,-159.38 386.25,-159.38 451.75,-159.38 451.75,-159.38 457.75,-159.38 463.75,-165.38 463.75,-171.38 463.75,-171.38 463.75,-183.38 463.75,-183.38 463.75,-189.38 457.75,-195.38 451.75,-195.38"/>
<text text-anchor="middle" x="419" y="-174.25" font-family="sans" font-size="10.00">create_bigwigs</text>
</g>
<!-- 29&#45;&gt;44 -->
<g id="edge102" class="edge">
<title>29&#45;&gt;44</title>
<path fill="none" stroke="grey" stroke-width="2" d="M592.82,-239.28C561.62,-229.99 520.2,-217.17 474.06,-200.72"/>
<polygon fill="grey" stroke="grey" stroke-width="2" points="475.35,-197.46 464.75,-197.36 472.98,-204.05 475.35,-197.46"/>
</g>
<!-- 30&#45;&gt;0 -->
<g id="edge30" class="edge">
<title>30&#45;&gt;0</title>
<path fill="none" stroke="grey" stroke-width="2" d="M1979.86,-253.13C1763.77,-251.26 906.96,-241.28 868,-200.5 853.8,-185.64 856.6,-171.36 868,-154.25 920.6,-75.29 972.49,-93.06 1065,-72 1255.55,-28.63 1875.78,-20.64 2040.52,-19.27"/>
<polygon fill="grey" stroke="grey" stroke-width="2" points="2040.31,-22.77 2050.28,-19.19 2040.26,-15.77 2040.31,-22.77"/>
</g>
<!-- 34 -->
<g id="node35" class="node">
<title>34</title>
<path fill="none" stroke="#567bd8" stroke-width="2" d="M2272.5,-195.38C2272.5,-195.38 2187.5,-195.38 2187.5,-195.38 2181.5,-195.38 2175.5,-189.38 2175.5,-183.38 2175.5,-183.38 2175.5,-171.38 2175.5,-171.38 2175.5,-165.38 2181.5,-159.38 2187.5,-159.38 2187.5,-159.38 2272.5,-159.38 2272.5,-159.38 2278.5,-159.38 2284.5,-165.38 2284.5,-171.38 2284.5,-171.38 2284.5,-183.38 2284.5,-183.38 2284.5,-189.38 2278.5,-195.38 2272.5,-195.38"/>
<text text-anchor="middle" x="2230" y="-174.25" font-family="sans" font-size="10.00">picard_rna_metrics</text>
</g>
<!-- 30&#45;&gt;34 -->
<g id="edge66" class="edge">
<title>30&#45;&gt;34</title>
<path fill="none" stroke="grey" stroke-width="2" d="M2077.14,-235.51C2105.01,-225.09 2140.33,-211.89 2169.99,-200.8"/>
<polygon fill="grey" stroke="grey" stroke-width="2" points="2170.92,-204.19 2179.06,-197.41 2168.47,-197.63 2170.92,-204.19"/>
</g>
<!-- 38 -->
<g id="node39" class="node">
<title>38</title>
<path fill="none" stroke="#56c1d8" stroke-width="2" d="M2068.88,-195.38C2068.88,-195.38 1989.12,-195.38 1989.12,-195.38 1983.12,-195.38 1977.12,-189.38 1977.12,-183.38 1977.12,-183.38 1977.12,-171.38 1977.12,-171.38 1977.12,-165.38 1983.12,-159.38 1989.12,-159.38 1989.12,-159.38 2068.88,-159.38 2068.88,-159.38 2074.88,-159.38 2080.88,-165.38 2080.88,-171.38 2080.88,-171.38 2080.88,-183.38 2080.88,-183.38 2080.88,-189.38 2074.88,-195.38 2068.88,-195.38"/>
<text text-anchor="middle" x="2029" y="-174.25" font-family="sans" font-size="10.00">picard_insert_size</text>
</g>
<!-- 30&#45;&gt;38 -->
<g id="edge70" class="edge">
<title>30&#45;&gt;38</title>
<path fill="none" stroke="grey" stroke-width="2" d="M2029,-235.7C2029,-227.8 2029,-218.28 2029,-209.28"/>
<polygon fill="grey" stroke="grey" stroke-width="2" points="2032.5,-209.34 2029,-199.34 2025.5,-209.34 2032.5,-209.34"/>
</g>
<!-- 30&#45;&gt;41 -->
<g id="edge86" class="edge">
<title>30&#45;&gt;41</title>
<path fill="none" stroke="grey" stroke-width="2" d="M2078.18,-237.66C2095.48,-229.45 2113.08,-217.49 2123,-200.5 2136.18,-177.93 2130.28,-148.03 2122.49,-126.01"/>
<polygon fill="grey" stroke="grey" stroke-width="2" points="2125.83,-124.93 2118.92,-116.89 2119.31,-127.48 2125.83,-124.93"/>
</g>
<!-- 30&#45;&gt;43 -->
<g id="edge99" class="edge">
<title>30&#45;&gt;43</title>
<path fill="none" stroke="grey" stroke-width="2" d="M2078.34,-253.97C2226.16,-254.74 2678.05,-252.35 3048,-200.5 3051.82,-199.97 3055.7,-199.35 3059.62,-198.68"/>
<polygon fill="grey" stroke="grey" stroke-width="2" points="3060,-202.17 3069.2,-196.91 3058.73,-195.29 3060,-202.17"/>
</g>
<!-- 45 -->
<g id="node46" class="node">
<title>45</title>
<path fill="none" stroke="#afd856" stroke-width="2" d="M559.75,-195.38C559.75,-195.38 494.25,-195.38 494.25,-195.38 488.25,-195.38 482.25,-189.38 482.25,-183.38 482.25,-183.38 482.25,-171.38 482.25,-171.38 482.25,-165.38 488.25,-159.38 494.25,-159.38 494.25,-159.38 559.75,-159.38 559.75,-159.38 565.75,-159.38 571.75,-165.38 571.75,-171.38 571.75,-171.38 571.75,-183.38 571.75,-183.38 571.75,-189.38 565.75,-195.38 559.75,-195.38"/>
<text text-anchor="middle" x="527" y="-174.25" font-family="sans" font-size="10.00">create_bigwigs</text>
</g>
<!-- 30&#45;&gt;45 -->
<g id="edge103" class="edge">
<title>30&#45;&gt;45</title>
<path fill="none" stroke="grey" stroke-width="2" d="M1979.73,-252.72C1742.07,-248.84 719.93,-230.51 581,-200.5 580.24,-200.34 579.48,-200.16 578.72,-199.98"/>
<polygon fill="grey" stroke="grey" stroke-width="2" points="579.79,-196.65 569.21,-197.18 577.81,-203.36 579.79,-196.65"/>
</g>
<!-- 31&#45;&gt;0 -->
<g id="edge31" class="edge">
<title>31&#45;&gt;0</title>
<path fill="none" stroke="grey" stroke-width="2" d="M3331,-235.63C3342.99,-226.73 3355.48,-214.8 3362,-200.5 3370.53,-181.8 3372.35,-172.01 3362,-154.25 3324.71,-90.23 3288.18,-92.57 3217,-72 3110.2,-41.14 2312,-23.56 2121.66,-19.78"/>
<polygon fill="grey" stroke="grey" stroke-width="2" points="2121.87,-16.28 2111.81,-19.58 2121.74,-23.28 2121.87,-16.28"/>
</g>
<!-- 35 -->
<g id="node36" class="node">
<title>35</title>
<path fill="none" stroke="#567bd8" stroke-width="2" d="M3026.5,-195.38C3026.5,-195.38 2941.5,-195.38 2941.5,-195.38 2935.5,-195.38 2929.5,-189.38 2929.5,-183.38 2929.5,-183.38 2929.5,-171.38 2929.5,-171.38 2929.5,-165.38 2935.5,-159.38 2941.5,-159.38 2941.5,-159.38 3026.5,-159.38 3026.5,-159.38 3032.5,-159.38 3038.5,-165.38 3038.5,-171.38 3038.5,-171.38 3038.5,-183.38 3038.5,-183.38 3038.5,-189.38 3032.5,-195.38 3026.5,-195.38"/>
<text text-anchor="middle" x="2984" y="-174.25" font-family="sans" font-size="10.00">picard_rna_metrics</text>
</g>
<!-- 31&#45;&gt;35 -->
<g id="edge67" class="edge">
<title>31&#45;&gt;35</title>
<path fill="none" stroke="grey" stroke-width="2" d="M3251.58,-245.06C3200.26,-235.85 3117.86,-219.81 3048,-200.5 3047.43,-200.34 3046.86,-200.18 3046.29,-200.02"/>
<polygon fill="grey" stroke="grey" stroke-width="2" points="3047.6,-196.76 3037.02,-197.24 3045.59,-203.47 3047.6,-196.76"/>
</g>
<!-- 39 -->
<g id="node40" class="node">
<title>39</title>
<path fill="none" stroke="#56c1d8" stroke-width="2" d="M3340.88,-195.38C3340.88,-195.38 3261.12,-195.38 3261.12,-195.38 3255.12,-195.38 3249.12,-189.38 3249.12,-183.38 3249.12,-183.38 3249.12,-171.38 3249.12,-171.38 3249.12,-165.38 3255.12,-159.38 3261.12,-159.38 3261.12,-159.38 3340.88,-159.38 3340.88,-159.38 3346.88,-159.38 3352.88,-165.38 3352.88,-171.38 3352.88,-171.38 3352.88,-183.38 3352.88,-183.38 3352.88,-189.38 3346.88,-195.38 3340.88,-195.38"/>
<text text-anchor="middle" x="3301" y="-174.25" font-family="sans" font-size="10.00">picard_insert_size</text>
</g>
<!-- 31&#45;&gt;39 -->
<g id="edge71" class="edge">
<title>31&#45;&gt;39</title>
<path fill="none" stroke="grey" stroke-width="2" d="M3301,-235.7C3301,-227.8 3301,-218.28 3301,-209.28"/>
<polygon fill="grey" stroke="grey" stroke-width="2" points="3304.5,-209.34 3301,-199.34 3297.5,-209.34 3304.5,-209.34"/>
</g>
<!-- 31&#45;&gt;41 -->
<g id="edge87" class="edge">
<title>31&#45;&gt;41</title>
<path fill="none" stroke="grey" stroke-width="2" d="M3251.62,-252.94C3066.5,-250.55 2420.09,-239.45 2337,-200.5 2311.59,-188.59 2317.73,-169.23 2294,-154.25 2269.93,-139.05 2196.94,-118.57 2150.16,-106.42"/>
<polygon fill="grey" stroke="grey" stroke-width="2" points="2151.21,-103.07 2140.65,-103.98 2149.47,-109.85 2151.21,-103.07"/>
</g>
<!-- 31&#45;&gt;43 -->
<g id="edge100" class="edge">
<title>31&#45;&gt;43</title>
<path fill="none" stroke="grey" stroke-width="2" d="M3263.39,-235.51C3242.31,-225.41 3215.75,-212.71 3193.04,-201.84"/>
<polygon fill="grey" stroke="grey" stroke-width="2" points="3194.83,-198.82 3184.3,-197.66 3191.81,-205.13 3194.83,-198.82"/>
</g>
<!-- 46 -->
<g id="node47" class="node">
<title>46</title>
<path fill="none" stroke="#afd856" stroke-width="2" d="M3773.75,-195.38C3773.75,-195.38 3708.25,-195.38 3708.25,-195.38 3702.25,-195.38 3696.25,-189.38 3696.25,-183.38 3696.25,-183.38 3696.25,-171.38 3696.25,-171.38 3696.25,-165.38 3702.25,-159.38 3708.25,-159.38 3708.25,-159.38 3773.75,-159.38 3773.75,-159.38 3779.75,-159.38 3785.75,-165.38 3785.75,-171.38 3785.75,-171.38 3785.75,-183.38 3785.75,-183.38 3785.75,-189.38 3779.75,-195.38 3773.75,-195.38"/>
<text text-anchor="middle" x="3741" y="-174.25" font-family="sans" font-size="10.00">create_bigwigs</text>
</g>
<!-- 31&#45;&gt;46 -->
<g id="edge104" class="edge">
<title>31&#45;&gt;46</title>
<path fill="none" stroke="grey" stroke-width="2" d="M3350.21,-247.34C3417.84,-238.58 3543.15,-221.25 3649,-200.5 3660.01,-198.34 3671.69,-195.76 3682.91,-193.14"/>
<polygon fill="grey" stroke="grey" stroke-width="2" points="3683.45,-196.6 3692.36,-190.88 3681.82,-189.8 3683.45,-196.6"/>
</g>
<!-- 32&#45;&gt;0 -->
<g id="edge32" class="edge">
<title>32&#45;&gt;0</title>
<path fill="none" stroke="grey" stroke-width="2" d="M3637.34,-252.64C3717.28,-250.09 3869.56,-240.04 3903,-200.5 3928.42,-170.45 3878.8,-74.8 3875,-72 3802.17,-18.21 2382.3,-18.41 2121.85,-18.9"/>
<polygon fill="grey" stroke="grey" stroke-width="2" points="2122.02,-15.4 2112.03,-18.92 2122.03,-22.4 2122.02,-15.4"/>
</g>
<!-- 36 -->
<g id="node37" class="node">
<title>36</title>
<path fill="none" stroke="#567bd8" stroke-width="2" d="M3506.5,-195.38C3506.5,-195.38 3421.5,-195.38 3421.5,-195.38 3415.5,-195.38 3409.5,-189.38 3409.5,-183.38 3409.5,-183.38 3409.5,-171.38 3409.5,-171.38 3409.5,-165.38 3415.5,-159.38 3421.5,-159.38 3421.5,-159.38 3506.5,-159.38 3506.5,-159.38 3512.5,-159.38 3518.5,-165.38 3518.5,-171.38 3518.5,-171.38 3518.5,-183.38 3518.5,-183.38 3518.5,-189.38 3512.5,-195.38 3506.5,-195.38"/>
<text text-anchor="middle" x="3464" y="-174.25" font-family="sans" font-size="10.00">picard_rna_metrics</text>
</g>
<!-- 32&#45;&gt;36 -->
<g id="edge68" class="edge">
<title>32&#45;&gt;36</title>
<path fill="none" stroke="grey" stroke-width="2" d="M3558.3,-235.51C3542.19,-225.75 3522.06,-213.55 3504.53,-202.93"/>
<polygon fill="grey" stroke="grey" stroke-width="2" points="3506.41,-199.98 3496.05,-197.79 3502.79,-205.97 3506.41,-199.98"/>
</g>
<!-- 40 -->
<g id="node41" class="node">
<title>40</title>
<path fill="none" stroke="#56c1d8" stroke-width="2" d="M3627.88,-195.38C3627.88,-195.38 3548.12,-195.38 3548.12,-195.38 3542.12,-195.38 3536.12,-189.38 3536.12,-183.38 3536.12,-183.38 3536.12,-171.38 3536.12,-171.38 3536.12,-165.38 3542.12,-159.38 3548.12,-159.38 3548.12,-159.38 3627.88,-159.38 3627.88,-159.38 3633.88,-159.38 3639.88,-165.38 3639.88,-171.38 3639.88,-171.38 3639.88,-183.38 3639.88,-183.38 3639.88,-189.38 3633.88,-195.38 3627.88,-195.38"/>
<text text-anchor="middle" x="3588" y="-174.25" font-family="sans" font-size="10.00">picard_insert_size</text>
</g>
<!-- 32&#45;&gt;40 -->
<g id="edge72" class="edge">
<title>32&#45;&gt;40</title>
<path fill="none" stroke="grey" stroke-width="2" d="M3588,-235.7C3588,-227.8 3588,-218.28 3588,-209.28"/>
<polygon fill="grey" stroke="grey" stroke-width="2" points="3591.5,-209.34 3588,-199.34 3584.5,-209.34 3591.5,-209.34"/>
</g>
<!-- 32&#45;&gt;41 -->
<g id="edge88" class="edge">
<title>32&#45;&gt;41</title>
<path fill="none" stroke="grey" stroke-width="2" d="M3538.9,-249.32C3492.55,-245.5 3421.1,-239.93 3359,-236.5 3249.21,-230.43 2469.44,-247.43 2370,-200.5 2345.16,-188.78 2352.39,-168.65 2329,-154.25 2321.29,-149.5 2211.65,-121.71 2150.13,-106.34"/>
<polygon fill="grey" stroke="grey" stroke-width="2" points="2151.28,-103.02 2140.73,-103.99 2149.58,-109.81 2151.28,-103.02"/>
</g>
<!-- 32&#45;&gt;43 -->
<g id="edge101" class="edge">
<title>32&#45;&gt;43</title>
<path fill="none" stroke="grey" stroke-width="2" d="M3538.53,-247.16C3470.87,-238.22 3345.8,-220.72 3240,-200.5 3237.41,-200 3234.78,-199.49 3232.13,-198.96"/>
<polygon fill="grey" stroke="grey" stroke-width="2" points="3233.08,-195.58 3222.57,-196.98 3231.66,-202.43 3233.08,-195.58"/>
</g>
<!-- 47 -->
<g id="node48" class="node">
<title>47</title>
<path fill="none" stroke="#afd856" stroke-width="2" d="M3881.75,-195.38C3881.75,-195.38 3816.25,-195.38 3816.25,-195.38 3810.25,-195.38 3804.25,-189.38 3804.25,-183.38 3804.25,-183.38 3804.25,-171.38 3804.25,-171.38 3804.25,-165.38 3810.25,-159.38 3816.25,-159.38 3816.25,-159.38 3881.75,-159.38 3881.75,-159.38 3887.75,-159.38 3893.75,-165.38 3893.75,-171.38 3893.75,-171.38 3893.75,-183.38 3893.75,-183.38 3893.75,-189.38 3887.75,-195.38 3881.75,-195.38"/>
<text text-anchor="middle" x="3849" y="-174.25" font-family="sans" font-size="10.00">create_bigwigs</text>
</g>
<!-- 32&#45;&gt;47 -->
<g id="edge105" class="edge">
<title>32&#45;&gt;47</title>
<path fill="none" stroke="grey" stroke-width="2" d="M3637.49,-242.86C3677.13,-233.88 3734.3,-219.93 3794.65,-200.32"/>
<polygon fill="grey" stroke="grey" stroke-width="2" points="3795.49,-203.73 3803.89,-197.28 3793.29,-197.09 3795.49,-203.73"/>
</g>
<!-- 33&#45;&gt;0 -->
<g id="edge33" class="edge">
<title>33&#45;&gt;0</title>
<path fill="none" stroke="grey" stroke-width="2" d="M771.94,-158.51C781.13,-134.06 801.34,-91.03 835,-72 888.6,-41.69 1831.06,-23.39 2040.14,-19.7"/>
<polygon fill="grey" stroke="grey" stroke-width="2" points="2040.14,-23.2 2050.08,-19.52 2040.02,-16.2 2040.14,-23.2"/>
</g>
<!-- 33&#45;&gt;41 -->
<g id="edge89" class="edge">
<title>33&#45;&gt;41</title>
<path fill="none" stroke="grey" stroke-width="2" d="M821.29,-162.62C836.35,-159.36 852.73,-156.25 868,-154.25 1107.68,-122.87 1878.99,-101.88 2067.26,-97.14"/>
<polygon fill="grey" stroke="grey" stroke-width="2" points="2067.34,-100.64 2077.25,-96.89 2067.17,-93.64 2067.34,-100.64"/>
</g>
<!-- 34&#45;&gt;0 -->
<g id="edge34" class="edge">
<title>34&#45;&gt;0</title>
<path fill="none" stroke="grey" stroke-width="2" d="M2217.37,-158.45C2201.77,-136.87 2173.87,-100.05 2146,-72 2136.53,-62.47 2125.45,-52.93 2115.14,-44.62"/>
<polygon fill="grey" stroke="grey" stroke-width="2" points="2117.58,-42.08 2107.56,-38.64 2113.24,-47.58 2117.58,-42.08"/>
</g>
<!-- 34&#45;&gt;41 -->
<g id="edge90" class="edge">
<title>34&#45;&gt;41</title>
<path fill="none" stroke="grey" stroke-width="2" d="M2203.15,-158.56C2186.46,-147.5 2164.77,-133.12 2146.42,-120.94"/>
<polygon fill="grey" stroke="grey" stroke-width="2" points="2148.57,-118.17 2138.3,-115.56 2144.7,-124 2148.57,-118.17"/>
</g>
<!-- 35&#45;&gt;0 -->
<g id="edge35" class="edge">
<title>35&#45;&gt;0</title>
<path fill="none" stroke="grey" stroke-width="2" d="M2933.86,-158.44C2929.2,-156.95 2924.52,-155.53 2920,-154.25 2758.34,-108.45 2716.72,-99.73 2551,-72 2393.32,-45.61 2203.62,-28.71 2121.82,-22.12"/>
<polygon fill="grey" stroke="grey" stroke-width="2" points="2122.22,-18.64 2111.97,-21.34 2121.67,-25.62 2122.22,-18.64"/>
</g>
<!-- 35&#45;&gt;41 -->
<g id="edge91" class="edge">
<title>35&#45;&gt;41</title>
<path fill="none" stroke="grey" stroke-width="2" d="M2936.5,-158.43C2931,-156.81 2925.41,-155.36 2920,-154.25 2770.46,-123.6 2294.76,-103.25 2150.73,-97.68"/>
<polygon fill="grey" stroke="grey" stroke-width="2" points="2151,-94.18 2140.87,-97.3 2150.73,-101.18 2151,-94.18"/>
</g>
<!-- 36&#45;&gt;0 -->
<g id="edge36" class="edge">
<title>36&#45;&gt;0</title>
<path fill="none" stroke="grey" stroke-width="2" d="M3458.07,-158.5C3448.88,-134.04 3428.68,-90.99 3395,-72 3338.24,-39.99 2337.23,-22.92 2121.68,-19.6"/>
<polygon fill="grey" stroke="grey" stroke-width="2" points="2121.99,-16.11 2111.94,-19.45 2121.89,-23.1 2121.99,-16.11"/>
</g>
<!-- 36&#45;&gt;41 -->
<g id="edge92" class="edge">
<title>36&#45;&gt;41</title>
<path fill="none" stroke="grey" stroke-width="2" d="M3408.71,-162.62C3393.65,-159.36 3377.27,-156.25 3362,-154.25 3119.75,-122.58 2339.6,-101.78 2150.55,-97.12"/>
<polygon fill="grey" stroke="grey" stroke-width="2" points="2150.84,-93.62 2140.76,-96.88 2150.67,-100.62 2150.84,-93.62"/>
</g>
<!-- 37&#45;&gt;0 -->
<g id="edge37" class="edge">
<title>37&#45;&gt;0</title>
<path fill="none" stroke="grey" stroke-width="2" d="M659.22,-158.64C684.54,-133.93 734.52,-90.12 787,-72 907.75,-30.31 1833.95,-20.87 2040.33,-19.28"/>
<polygon fill="grey" stroke="grey" stroke-width="2" points="2040.13,-22.78 2050.1,-19.2 2040.07,-15.78 2040.13,-22.78"/>
</g>
<!-- 37&#45;&gt;41 -->
<g id="edge93" class="edge">
<title>37&#45;&gt;41</title>
<path fill="none" stroke="grey" stroke-width="2" d="M685.78,-158.46C691.17,-156.78 696.67,-155.32 702,-154.25 973.12,-100.06 1863.45,-96.25 2067.21,-96.1"/>
<polygon fill="grey" stroke="grey" stroke-width="2" points="2067.12,-99.6 2077.12,-96.1 2067.12,-92.6 2067.12,-99.6"/>
</g>
<!-- 38&#45;&gt;0 -->
<g id="edge38" class="edge">
<title>38&#45;&gt;0</title>
<path fill="none" stroke="grey" stroke-width="2" d="M2034.86,-158.63C2043.64,-132.06 2060.31,-81.62 2071.02,-49.19"/>
<polygon fill="grey" stroke="grey" stroke-width="2" points="2074.31,-50.39 2074.13,-39.8 2067.67,-48.19 2074.31,-50.39"/>
</g>
<!-- 38&#45;&gt;41 -->
<g id="edge94" class="edge">
<title>38&#45;&gt;41</title>
<path fill="none" stroke="grey" stroke-width="2" d="M2046.75,-158.56C2057.22,-148.07 2070.65,-134.59 2082.36,-122.84"/>
<polygon fill="grey" stroke="grey" stroke-width="2" points="2084.58,-125.58 2089.16,-116.03 2079.62,-120.64 2084.58,-125.58"/>
</g>
<!-- 39&#45;&gt;0 -->
<g id="edge39" class="edge">
<title>39&#45;&gt;0</title>
<path fill="none" stroke="grey" stroke-width="2" d="M3285.21,-158.71C3261.93,-134.07 3215.75,-90.36 3166,-72 3066.69,-35.36 2307.1,-22.22 2121.71,-19.55"/>
<polygon fill="grey" stroke="grey" stroke-width="2" points="2121.97,-16.05 2111.92,-19.41 2121.87,-23.05 2121.97,-16.05"/>
</g>
<!-- 39&#45;&gt;41 -->
<g id="edge95" class="edge">
<title>39&#45;&gt;41</title>
<path fill="none" stroke="grey" stroke-width="2" d="M3256.88,-158.41C3251.59,-156.77 3246.22,-155.32 3241,-154.25 3026.35,-110.23 2328.51,-98.81 2150.59,-96.58"/>
<polygon fill="grey" stroke="grey" stroke-width="2" points="2150.83,-93.09 2140.78,-96.47 2150.74,-100.09 2150.83,-93.09"/>
</g>
<!-- 40&#45;&gt;0 -->
<g id="edge40" class="edge">
<title>40&#45;&gt;0</title>
<path fill="none" stroke="grey" stroke-width="2" d="M3568.92,-158.62C3540.94,-133.88 3486.01,-90.04 3430,-72 3302.9,-31.07 2333.23,-21.01 2121.68,-19.3"/>
<polygon fill="grey" stroke="grey" stroke-width="2" points="2121.91,-15.8 2111.88,-19.22 2121.85,-22.8 2121.91,-15.8"/>
</g>
<!-- 40&#45;&gt;41 -->
<g id="edge96" class="edge">
<title>40&#45;&gt;41</title>
<path fill="none" stroke="grey" stroke-width="2" d="M3544.22,-158.46C3538.83,-156.78 3533.33,-155.32 3528,-154.25 3390.04,-126.7 2370.23,-102.07 2150.6,-97.06"/>
<polygon fill="grey" stroke="grey" stroke-width="2" points="2150.69,-93.56 2140.62,-96.83 2150.53,-100.56 2150.69,-93.56"/>
</g>
<!-- 41&#45;&gt;0 -->
<g id="edge41" class="edge">
<title>41&#45;&gt;0</title>
<path fill="none" stroke="grey" stroke-width="2" d="M2102.36,-76.32C2099.32,-68.15 2095.62,-58.23 2092.17,-48.96"/>
<polygon fill="grey" stroke="grey" stroke-width="2" points="2095.51,-47.92 2088.74,-39.77 2088.96,-50.37 2095.51,-47.92"/>
</g>
<!-- 42 -->
<g id="node43" class="node">
<title>42</title>
<path fill="none" stroke="#d87556" stroke-width="2" d="M3145.12,-113.12C3145.12,-113.12 3012.88,-113.12 3012.88,-113.12 3006.88,-113.12 3000.88,-107.12 3000.88,-101.12 3000.88,-101.12 3000.88,-89.12 3000.88,-89.12 3000.88,-83.12 3006.88,-77.12 3012.88,-77.12 3012.88,-77.12 3145.12,-77.12 3145.12,-77.12 3151.12,-77.12 3157.12,-83.12 3157.12,-89.12 3157.12,-89.12 3157.12,-101.12 3157.12,-101.12 3157.12,-107.12 3151.12,-113.12 3145.12,-113.12"/>
<text text-anchor="middle" x="3079" y="-92" font-family="sans" font-size="10.00">plot_correlation_all_samples</text>
</g>
<!-- 42&#45;&gt;0 -->
<g id="edge42" class="edge">
<title>42&#45;&gt;0</title>
<path fill="none" stroke="grey" stroke-width="2" d="M2999.98,-81.86C2974.79,-78.27 2946.77,-74.61 2921,-72 2614.79,-40.95 2243.81,-25.11 2121.94,-20.48"/>
<polygon fill="grey" stroke="grey" stroke-width="2" points="2122.13,-16.98 2112,-20.1 2121.87,-23.98 2122.13,-16.98"/>
</g>
<!-- 43&#45;&gt;42 -->
<g id="edge97" class="edge">
<title>43&#45;&gt;42</title>
<path fill="none" stroke="grey" stroke-width="2" d="M3129.57,-158.56C3121.33,-148.38 3110.8,-135.39 3101.49,-123.9"/>
<polygon fill="grey" stroke="grey" stroke-width="2" points="3104.3,-121.81 3095.29,-116.24 3098.86,-126.21 3104.3,-121.81"/>
</g>
<!-- 44&#45;&gt;0 -->
<g id="edge43" class="edge">
<title>44&#45;&gt;0</title>
<path fill="none" stroke="grey" stroke-width="2" d="M417.74,-158.61C417.13,-134.67 420.14,-92.7 446,-72 510.13,-20.67 1793.93,-18.83 2040.31,-18.95"/>
<polygon fill="grey" stroke="grey" stroke-width="2" points="2040.12,-22.45 2050.13,-18.96 2040.13,-15.45 2040.12,-22.45"/>
</g>
<!-- 48 -->
<g id="node49" class="node">
<title>48</title>
<path fill="none" stroke="#56d8a9" stroke-width="2" d="M586.75,-118.25C586.75,-118.25 467.25,-118.25 467.25,-118.25 461.25,-118.25 455.25,-112.25 455.25,-106.25 455.25,-106.25 455.25,-84 455.25,-84 455.25,-78 461.25,-72 467.25,-72 467.25,-72 586.75,-72 586.75,-72 592.75,-72 598.75,-78 598.75,-84 598.75,-84 598.75,-106.25 598.75,-106.25 598.75,-112.25 592.75,-118.25 586.75,-118.25"/>
<text text-anchor="middle" x="527" y="-104.75" font-family="sans" font-size="10.00">merge_replicates_bigwigs</text>
<text text-anchor="middle" x="527" y="-92" font-family="sans" font-size="10.00">condition: Dark</text>
<text text-anchor="middle" x="527" y="-79.25" font-family="sans" font-size="10.00">line: SPT5longLEXY_3&#45;4h</text>
</g>
<!-- 44&#45;&gt;48 -->
<g id="edge106" class="edge">
<title>44&#45;&gt;48</title>
<path fill="none" stroke="grey" stroke-width="2" d="M442.97,-158.56C455.57,-149.2 471.37,-137.46 485.86,-126.69"/>
<polygon fill="grey" stroke="grey" stroke-width="2" points="487.75,-129.65 493.69,-120.88 483.57,-124.03 487.75,-129.65"/>
</g>
<!-- 45&#45;&gt;0 -->
<g id="edge44" class="edge">
<title>45&#45;&gt;0</title>
<path fill="none" stroke="grey" stroke-width="2" d="M553.65,-158.44C594.85,-131.12 672.51,-81.25 704,-72 834.91,-33.56 1825.89,-21.54 2040.21,-19.38"/>
<polygon fill="grey" stroke="grey" stroke-width="2" points="2040.19,-22.88 2050.16,-19.28 2040.12,-15.88 2040.19,-22.88"/>
</g>
<!-- 45&#45;&gt;48 -->
<g id="edge107" class="edge">
<title>45&#45;&gt;48</title>
<path fill="none" stroke="grey" stroke-width="2" d="M527,-158.56C527,-150.75 527,-141.27 527,-132.09"/>
<polygon fill="grey" stroke="grey" stroke-width="2" points="530.5,-132.1 527,-122.1 523.5,-132.1 530.5,-132.1"/>
</g>
<!-- 46&#45;&gt;0 -->
<g id="edge45" class="edge">
<title>46&#45;&gt;0</title>
<path fill="none" stroke="grey" stroke-width="2" d="M3726.23,-158.71C3701.79,-129.58 3655.1,-74.43 3650,-72 3578.99,-38.25 2361.03,-22.28 2121.65,-19.46"/>
<polygon fill="grey" stroke="grey" stroke-width="2" points="2121.89,-15.96 2111.85,-19.35 2121.81,-22.96 2121.89,-15.96"/>
</g>
<!-- 49 -->
<g id="node50" class="node">
<title>49</title>
<path fill="none" stroke="#56d8a9" stroke-width="2" d="M3833.75,-118.25C3833.75,-118.25 3714.25,-118.25 3714.25,-118.25 3708.25,-118.25 3702.25,-112.25 3702.25,-106.25 3702.25,-106.25 3702.25,-84 3702.25,-84 3702.25,-78 3708.25,-72 3714.25,-72 3714.25,-72 3833.75,-72 3833.75,-72 3839.75,-72 3845.75,-78 3845.75,-84 3845.75,-84 3845.75,-106.25 3845.75,-106.25 3845.75,-112.25 3839.75,-118.25 3833.75,-118.25"/>
<text text-anchor="middle" x="3774" y="-104.75" font-family="sans" font-size="10.00">merge_replicates_bigwigs</text>
<text text-anchor="middle" x="3774" y="-92" font-family="sans" font-size="10.00">condition: BlueLight3h</text>
<text text-anchor="middle" x="3774" y="-79.25" font-family="sans" font-size="10.00">line: SPT5longLEXY_3&#45;4h</text>
</g>
<!-- 46&#45;&gt;49 -->
<g id="edge108" class="edge">
<title>46&#45;&gt;49</title>
<path fill="none" stroke="grey" stroke-width="2" d="M3748.32,-158.56C3751.69,-150.38 3755.8,-140.39 3759.74,-130.81"/>
<polygon fill="grey" stroke="grey" stroke-width="2" points="3762.85,-132.45 3763.41,-121.87 3756.37,-129.79 3762.85,-132.45"/>
</g>
<!-- 47&#45;&gt;0 -->
<g id="edge46" class="edge">
<title>47&#45;&gt;0</title>
<path fill="none" stroke="grey" stroke-width="2" d="M3857.07,-158.49C3866.2,-135.2 3877.12,-94.79 3855,-72 3823.79,-39.84 2383.41,-22.35 2121.6,-19.44"/>
<polygon fill="grey" stroke="grey" stroke-width="2" points="2121.76,-15.94 2111.72,-19.33 2121.68,-22.94 2121.76,-15.94"/>
</g>
<!-- 47&#45;&gt;49 -->
<g id="edge109" class="edge">
<title>47&#45;&gt;49</title>
<path fill="none" stroke="grey" stroke-width="2" d="M3832.36,-158.56C3824.11,-149.75 3813.9,-138.82 3804.34,-128.58"/>
<polygon fill="grey" stroke="grey" stroke-width="2" points="3806.9,-126.2 3797.51,-121.29 3801.79,-130.98 3806.9,-126.2"/>
</g>
<!-- 48&#45;&gt;0 -->
<g id="edge47" class="edge">
<title>48&#45;&gt;0</title>
<path fill="none" stroke="grey" stroke-width="2" d="M599.64,-76.44C608.81,-74.69 618.09,-73.14 627,-72 911.42,-35.66 1834.87,-22.09 2040.27,-19.49"/>
<polygon fill="grey" stroke="grey" stroke-width="2" points="2040.03,-22.99 2049.98,-19.37 2039.94,-15.99 2040.03,-22.99"/>
</g>
<!-- 49&#45;&gt;0 -->
<g id="edge48" class="edge">
<title>49&#45;&gt;0</title>
<path fill="none" stroke="grey" stroke-width="2" d="M3701.5,-74.28C3696.95,-73.41 3692.43,-72.63 3688,-72 3372.34,-26.75 2340.11,-20.05 2121.79,-19.14"/>
<polygon fill="grey" stroke="grey" stroke-width="2" points="2121.92,-15.64 2111.91,-19.1 2121.9,-22.64 2121.92,-15.64"/>
</g>
</g>
</svg>
